<svg width="10" height="11" viewBox="0 0 10 11" fill="none" xmlns="http://www.w3.org/2000/svg">
<g id="Vector">
<path d="M0.827175 10.1512C0.704641 10.1512 0.582107 10.1046 0.489009 10.0108C0.302112 9.82386 0.302112 9.52085 0.489009 9.33396L8.83395 0.989009C9.02085 0.802112 9.32386 0.802112 9.51076 0.989009C9.69765 1.17591 9.69765 1.47891 9.51076 1.66593L1.16593 10.0108C1.07213 10.104 0.949593 10.1512 0.827175 10.1512Z" fill="#DF003B"/>
<path d="M9.17271 10.1512C9.05017 10.1512 8.92775 10.1046 8.83454 10.0108L0.489009 1.66593C0.302112 1.47891 0.302112 1.17591 0.489009 0.989009C0.675906 0.802112 0.978912 0.802112 1.16593 0.989009L9.51076 9.33396C9.69765 9.52085 9.69765 9.82386 9.51076 10.0108C9.41696 10.104 9.29454 10.1512 9.17271 10.1512Z" fill="#DF003B"/>
<path fill-rule="evenodd" clip-rule="evenodd" d="M0.91926 1.23567C0.868409 1.18494 0.786273 1.18507 0.735674 1.23567C0.685061 1.28629 0.684888 1.3684 0.735663 1.41925C0.735651 1.41924 0.735676 1.41926 0.735663 1.41925L4.32317 5.00646L4.50659 4.82305L0.91926 1.23567C0.919286 1.2357 0.919234 1.23565 0.91926 1.23567ZM4.99992 4.32972L1.41259 0.742346C1.08941 0.419365 0.565513 0.419176 0.242344 0.742344C-0.080824 1.06551 -0.0807132 1.58933 0.242267 1.91251L3.82984 5.49979L0.242344 9.08729C-0.0806548 9.41029 -0.0807814 9.93388 0.241965 10.257C0.403636 10.4196 0.616471 10.5 0.827175 10.5C1.03926 10.5 1.25093 10.4181 1.41182 10.2582L5.00008 6.66993L8.58711 10.2566C8.58697 10.2565 8.58724 10.2568 8.58711 10.2566C8.74876 10.4191 8.96181 10.5 9.17271 10.5C9.38452 10.5 9.59598 10.4179 9.75665 10.2582C10.0798 9.93507 10.0805 9.41042 9.75742 9.08729L6.1701 5.49992L9.75742 1.91259C10.0804 1.58941 10.0806 1.06551 9.75742 0.742344C9.43429 0.419219 8.91042 0.419219 8.58729 0.742344L4.99992 4.32972ZM4.99991 5.31638L4.81652 5.49977L5.00006 5.68329L5.18344 5.49991L4.99991 5.31638ZM5.67677 5.00658L5.49324 4.82305L9.08062 1.23567C9.13129 1.18501 9.21342 1.18501 9.26409 1.23567C9.31469 1.28627 9.31483 1.36841 9.26409 1.41926C9.26406 1.41929 9.26412 1.41924 9.26409 1.41926L5.67677 5.00658ZM5.67677 5.99325L5.49341 6.1766L9.08119 9.76408C9.10592 9.78896 9.13871 9.80233 9.17271 9.80233C9.2044 9.80233 9.23761 9.7902 9.26448 9.7637C9.31476 9.71301 9.31463 9.63116 9.26409 9.58062L5.67677 5.99325ZM4.50673 6.17662L4.32319 5.9931L0.735674 9.58062C0.685006 9.63129 0.685006 9.71342 0.735674 9.76409L0.736599 9.76502C0.761055 9.78966 0.793048 9.80233 0.827175 9.80233C0.859809 9.80233 0.893089 9.78996 0.919754 9.7636C0.919661 9.76369 0.919847 9.76351 0.919754 9.7636L4.50673 6.17662Z" fill="#DF003B"/>
</g>
</svg>
