<svg width="12" height="9" viewBox="0 0 12 9" fill="none" xmlns="http://www.w3.org/2000/svg">
<g id="Vector">
<path fill-rule="evenodd" clip-rule="evenodd" d="M10.692 0.933058C10.936 1.17714 10.936 1.57286 10.692 1.81695L4.44194 8.06695C4.19788 8.31102 3.80214 8.31102 3.55806 8.06695L0.433055 4.94195C0.18898 4.69788 0.18898 4.30213 0.433055 4.05807C0.677137 3.81401 1.07286 3.81401 1.31694 4.05807L4.00001 6.74114L9.80808 0.933058C10.0521 0.688982 10.4479 0.688982 10.692 0.933058Z" fill="#00C483"/>
<path fill-rule="evenodd" clip-rule="evenodd" d="M10.5152 1.10983C10.3687 0.963393 10.1313 0.963393 9.98486 1.10983L4.00001 7.09469L1.14017 4.23485C0.993722 4.08841 0.756278 4.08841 0.609826 4.23485C0.46339 4.38128 0.463391 4.61873 0.609828 4.76516L3.73483 7.89017C3.88129 8.03661 4.11874 8.0366 4.26517 7.89017L10.5152 1.64018C10.6616 1.49372 10.6616 1.25628 10.5152 1.10983ZM9.6313 0.75628C9.973 0.414572 10.527 0.414573 10.8687 0.756285C11.2104 1.098 11.2104 1.65201 10.8687 1.99372L4.61872 8.24373C4.27702 8.58543 3.723 8.58542 3.38129 8.24374L0.256282 5.11873C-0.085426 4.77703 -0.085429 4.22298 0.256282 3.88129C0.597994 3.5396 1.152 3.5396 1.49371 3.88129L4.00001 6.38758L9.6313 0.75628Z" fill="#00C483"/>
</g>
</svg>
