<svg width="16" height="15" viewBox="0 0 16 15" fill="none" xmlns="http://www.w3.org/2000/svg">
<path id="Vector" d="M2.21128 14.5C2.20765 14.5 2.20336 14.5 2.19906 14.5C1.39135 14.5 0.685938 14.062 0.307403 13.4105L0.301797 13.4001C0.11214 13.0829 0 12.7005 0 12.2919C0 11.8882 0.109419 11.5102 0.300211 11.1857L0.294632 11.1959L5.77203 1.61282C6.15421 0.943705 6.86338 0.5 7.67619 0.5C7.68058 0.5 7.68495 0.500014 7.68933 0.500041C7.69324 0.500014 7.6972 0.5 7.70184 0.5C8.51464 0.5 9.22383 0.943704 9.60037 1.60212L9.60601 1.61282L15.0827 11.1959C15.2677 11.51 15.377 11.8879 15.377 12.2913C15.377 12.7001 15.2647 13.0828 15.0693 13.41L15.0748 13.4C14.691 14.0615 13.986 14.4993 13.1788 14.4993C13.1743 14.4993 13.1699 14.4993 13.1654 14.4992L2.21128 14.5ZM6.70319 2.14276L1.2258 11.7259C1.13053 11.8875 1.07426 12.082 1.07426 12.2896C1.07426 12.4997 1.1319 12.6963 1.23222 12.8645L1.22938 12.8594C1.42665 13.1994 1.78896 13.4244 2.20382 13.4244C2.20645 13.4244 2.20907 13.4244 2.2117 13.4244H13.1661C13.1683 13.4244 13.1709 13.4244 13.1736 13.4244C13.5884 13.4244 13.9507 13.1994 14.1451 12.8648L14.148 12.8594C14.2455 12.6963 14.3031 12.4997 14.3031 12.2896C14.3031 12.082 14.2469 11.8875 14.1487 11.7206L14.1516 11.7259L8.67419 2.14277C8.47809 1.79877 8.11374 1.57061 7.69611 1.57061C7.69351 1.57061 7.6909 1.57063 7.6883 1.57064C7.68622 1.57063 7.68417 1.57061 7.68171 1.57061C7.26396 1.57061 6.8995 1.79876 6.70611 2.13725L6.70319 2.14276ZM6.97351 10.6288C6.97351 10.6282 6.97351 10.6275 6.97351 10.6268C6.97351 10.4304 7.05273 10.2524 7.18096 10.1232C7.31001 9.99156 7.48931 9.90971 7.68777 9.90866C8.08274 9.90866 8.40313 10.2288 8.40313 10.6238C8.40313 11.0188 8.08295 11.339 7.68797 11.339C7.29532 11.3386 6.97677 11.0218 6.97354 10.6298L6.97351 10.6288ZM7.15231 8.29955V5.62487C7.15231 5.32864 7.39245 5.0885 7.68869 5.0885C7.98492 5.0885 8.22577 5.32864 8.22577 5.62487V8.29955C8.22577 8.59579 7.98563 8.83593 7.6894 8.83593C7.68915 8.83593 7.68964 8.83593 7.6894 8.83593C7.68918 8.83593 7.68822 8.83593 7.68797 8.83593C7.392 8.83593 7.15201 8.5962 7.1516 8.30031L7.15231 8.29955Z" fill="#F19602"/>
</svg>
