<svg width="240" height="240" viewBox="0 0 240 240" fill="none" xmlns="http://www.w3.org/2000/svg">
<path d="M240 183.552H0V183.672H240V183.552Z" fill="#F0F1F7"/>
<path d="M215.952 191.275H200.054V191.395H215.952V191.275Z" fill="#F0F1F7"/>
<path d="M158.986 192.581H154.814V192.701H158.986V192.581Z" fill="#F0F1F7"/>
<path d="M199.574 186.821H190.363V186.941H199.574V186.821Z" fill="#F0F1F7"/>
<path d="M45.9119 187.627H25.1807V187.747H45.9119V187.627Z" fill="#F0F1F7"/>
<path d="M53.2274 187.627H50.189V187.747H53.2274V187.627Z" fill="#F0F1F7"/>
<path d="M108.072 189.653H63.1055V189.773H108.072V189.653Z" fill="#F0F1F7"/>
<path d="M113.76 162.144H21.0768C20.3507 162.143 19.6548 161.853 19.1419 161.339C18.6289 160.826 18.3408 160.129 18.3408 159.403V29.1167C18.3471 28.3948 18.638 27.7045 19.1503 27.1958C19.6626 26.6872 20.3549 26.4011 21.0768 26.3999H113.76C114.487 26.3999 115.184 26.6887 115.698 27.2027C116.212 27.7167 116.501 28.4138 116.501 29.1407V159.403C116.501 160.13 116.212 160.827 115.698 161.341C115.184 161.855 114.487 162.144 113.76 162.144ZM21.0768 26.4959C20.3826 26.4972 19.7172 26.7739 19.2267 27.2652C18.7363 27.7566 18.4608 28.4225 18.4608 29.1167V159.403C18.4608 160.097 18.7363 160.763 19.2267 161.255C19.7172 161.746 20.3826 162.023 21.0768 162.024H113.76C114.455 162.023 115.121 161.746 115.612 161.255C116.103 160.764 116.38 160.098 116.381 159.403V29.1167C116.38 28.422 116.103 27.7561 115.612 27.2649C115.121 26.7737 114.455 26.4972 113.76 26.4959H21.0768Z" fill="#F0F1F7"/>
<path d="M217.589 162.144H124.901C124.174 162.143 123.478 161.853 122.964 161.34C122.451 160.826 122.161 160.13 122.16 159.403V29.1167C122.168 28.3944 122.46 27.7041 122.973 27.1955C123.486 26.687 124.179 26.4011 124.901 26.3999H217.589C218.31 26.4024 219.001 26.689 219.512 27.1975C220.024 27.7061 220.314 28.3956 220.32 29.1167V159.403C220.32 160.128 220.033 160.824 219.521 161.338C219.009 161.851 218.314 162.141 217.589 162.144ZM124.901 26.4959C124.206 26.4972 123.54 26.7737 123.049 27.2649C122.558 27.7561 122.281 28.422 122.28 29.1167V159.403C122.281 160.098 122.558 160.764 123.049 161.255C123.54 161.746 124.206 162.023 124.901 162.024H217.589C218.284 162.023 218.95 161.746 219.441 161.255C219.932 160.764 220.208 160.098 220.21 159.403V29.1167C220.208 28.422 219.932 27.7561 219.441 27.2649C218.95 26.7737 218.284 26.4972 217.589 26.4959H124.901Z" fill="#F0F1F7"/>
<path d="M203.011 38.2944H109.512V120.422H203.011V38.2944Z" fill="#F0F1F7"/>
<path d="M205.454 38.2944H110.654V120.422H205.454V38.2944Z" fill="#F0F1F7"/>
<path d="M203.011 120.417H109.512V122.683H203.011V120.417Z" fill="#F0F1F7"/>
<path d="M209.515 120.417H114.715V122.683H209.515V120.417Z" fill="#F0F1F7"/>
<path d="M202.037 117.009V41.707L114.067 41.707V117.009H202.037Z" fill="#F0F1F7"/>
<path d="M125.842 117.005L135.543 41.707H152.338L142.632 117.005H125.842Z" fill="white"/>
<path d="M146.237 117.005L155.942 41.707H162.49L152.784 117.005H146.237Z" fill="white"/>
<path d="M202.042 117.005V41.7021H201.609V117.005H202.042Z" fill="#F0F1F7"/>
<path opacity="0.5" d="M206.256 48.8829H112.757L112.445 43.0317H205.944L206.256 48.8829Z" fill="#F0F1F7"/>
<path opacity="0.5" d="M206.256 58.4973H112.757L112.445 52.6509H205.944L206.256 58.4973Z" fill="#F0F1F7"/>
<path opacity="0.5" d="M206.256 68.112H112.757L112.445 62.2656H205.944L206.256 68.112Z" fill="#F0F1F7"/>
<path opacity="0.5" d="M206.256 77.7311H112.757L112.445 71.8799H205.944L206.256 77.7311Z" fill="#F0F1F7"/>
<path opacity="0.5" d="M206.256 87.3453H112.757L112.445 81.4941H205.944L206.256 87.3453Z" fill="#F0F1F7"/>
<path opacity="0.5" d="M206.256 96.9601H112.757L112.445 91.1089H205.944L206.256 96.9601Z" fill="#F0F1F7"/>
<path d="M57.3599 55.5454H28.1519V113.294H57.3599V55.5454Z" fill="#F0F1F7"/>
<path d="M59.0926 55.5454H29.3086V113.294H59.0926V55.5454Z" fill="#F0F1F7"/>
<path d="M31.7998 58.8864L31.7998 109.954H56.5918V58.8864H31.7998Z" fill="white"/>
<path d="M96.355 46.7329H67.147V104.482H96.355V46.7329Z" fill="#F0F1F7"/>
<path d="M98.0882 46.7329H68.3042V104.482H98.0882V46.7329Z" fill="#F0F1F7"/>
<path d="M70.7998 50.0734V101.141H95.5966V50.0734H70.7998Z" fill="white"/>
<path d="M91.1663 130.33H78.8735V183.552H91.1663V130.33Z" fill="#F0F1F7"/>
<path d="M88.8337 183.552H91.1665V178.133H86.3857L88.8337 183.552Z" fill="#F0F1F7"/>
<path d="M45.2161 130.33H32.9233V183.552H45.2161V130.33Z" fill="#F0F1F7"/>
<path d="M91.1662 130.33H43.1758V180.226H91.1662V130.33Z" fill="#F0F1F7"/>
<path d="M67.9536 133.646V173.448H89.352V133.646H67.9536Z" fill="#F0F1F7"/>
<path d="M44.9858 133.646V173.448H66.3842V133.646H44.9858Z" fill="#F0F1F7"/>
<path d="M57.8064 135.168H53.5728C51.7986 135.185 50.0757 134.573 48.7104 133.44H62.6688C61.3036 134.573 59.5807 135.185 57.8064 135.168Z" fill="#F0F1F7"/>
<path d="M80.9905 135.168H76.7569C74.9826 135.186 73.2594 134.574 71.8945 133.44H85.8529C84.4877 134.573 82.7647 135.185 80.9905 135.168Z" fill="#F0F1F7"/>
<path d="M45.5134 183.552H43.1758V178.133H47.9614L45.5134 183.552Z" fill="#F0F1F7"/>
<path d="M54.4414 125.251C54.4414 125.251 54.8062 130.329 68.7982 130.329C82.7902 130.329 83.155 125.251 83.155 125.251H54.4414Z" fill="#F0F1F7"/>
<path d="M109.593 148.018H214.627V139.224H109.593V148.018Z" fill="#F0F1F7"/>
<path d="M109.598 148.018H139.411V139.224H109.598V148.018Z" fill="#F0F1F7"/>
<path d="M208.344 183.552H214.632V148.017H208.344V183.552Z" fill="#F0F1F7"/>
<path d="M208.344 150.48L214.632 149.251V148.018H208.344V150.48Z" fill="#F0F1F7"/>
<path d="M109.594 183.552H115.882V148.017H109.594V183.552Z" fill="#F0F1F7"/>
<path d="M133.123 183.552H139.411V148.017H133.123V183.552Z" fill="#F0F1F7"/>
<path d="M133.123 150.48L139.411 149.251V148.018H133.123V150.48Z" fill="#F0F1F7"/>
<path d="M188.659 183.552H194.947V148.017H188.659V183.552Z" fill="#F0F1F7"/>
<path d="M120 205.229C171.399 205.229 213.067 202.796 213.067 199.795C213.067 196.795 171.399 194.362 120 194.362C68.6002 194.362 26.9326 196.795 26.9326 199.795C26.9326 202.796 68.6002 205.229 120 205.229Z" fill="#F0F1F7"/>
<path d="M111.605 62.0785H54.3453C53.4387 62.0691 52.54 62.2485 51.7063 62.6051C50.8727 62.9618 50.1224 63.4879 49.503 64.1501C48.8837 64.8124 48.4089 65.5962 48.1088 66.4518C47.8086 67.3074 47.6898 68.2161 47.7597 69.1201L55.9677 191.232C56.1226 193.134 56.9801 194.911 58.3733 196.215C59.7665 197.52 61.5954 198.259 63.5037 198.288H120.763C121.671 198.298 122.571 198.119 123.406 197.762C124.241 197.405 124.992 196.877 125.611 196.213C126.23 195.549 126.704 194.763 127.003 193.905C127.301 193.048 127.417 192.137 127.344 191.232L119.136 69.1201C118.978 67.2212 118.119 65.449 116.727 64.1476C115.336 62.8463 113.51 62.1088 111.605 62.0785Z" fill="#00C3DF"/>
<path opacity="0.3" d="M111.605 62.0785H54.3453C53.4387 62.0691 52.54 62.2485 51.7063 62.6051C50.8727 62.9618 50.1224 63.4879 49.503 64.1501C48.8837 64.8124 48.4089 65.5962 48.1088 66.4518C47.8086 67.3074 47.6898 68.2161 47.7597 69.1201L55.9677 191.232C56.1226 193.134 56.9801 194.911 58.3733 196.215C59.7665 197.52 61.5954 198.259 63.5037 198.288H120.763C121.671 198.298 122.571 198.119 123.406 197.762C124.241 197.405 124.992 196.877 125.611 196.213C126.23 195.549 126.704 194.763 127.003 193.905C127.301 193.048 127.417 192.137 127.344 191.232L119.136 69.1201C118.978 67.2212 118.119 65.449 116.727 64.1476C115.336 62.8463 113.51 62.1088 111.605 62.0785Z" fill="white"/>
<path d="M47.83 88.2428L47.3511 88.2749L48.1242 99.793L48.6031 99.7608L47.83 88.2428Z" fill="#00C3DF"/>
<path d="M49.0282 105.816L48.5493 105.849L48.8967 111.011L49.3757 110.979L49.0282 105.816Z" fill="#00C3DF"/>
<path d="M60.1246 192.48C60.1637 192.946 60.0317 193.409 59.7535 193.785C59.4752 194.16 59.0697 194.421 58.613 194.518C58.1562 194.616 57.6795 194.544 57.2721 194.315C56.8647 194.087 56.5546 193.718 56.3998 193.277C56.1611 192.627 56.0156 191.947 55.9678 191.256L47.7598 69.1202C47.7112 68.4326 47.7662 67.7417 47.923 67.0706C48.0195 66.6132 48.2795 66.2067 48.6543 65.9274C49.0292 65.648 49.493 65.515 49.9589 65.5533C50.4248 65.5916 50.8607 65.7985 51.1849 66.1353C51.5091 66.4721 51.6993 66.9156 51.7198 67.3826L60.1246 192.48Z" fill="#00C3DF"/>
<path d="M120.763 195.999H67.5647C66.2439 195.963 64.9821 195.444 64.0186 194.54C63.0551 193.635 62.4569 192.409 62.3375 191.093L54.1295 68.9859C54.0769 68.3963 54.1489 67.8022 54.3409 67.2422C54.5329 66.6823 54.8406 66.169 55.244 65.7358C55.6474 65.3025 56.1374 64.959 56.6822 64.7275C57.227 64.4961 57.8144 64.3818 58.4063 64.3923H111.605C112.925 64.4279 114.186 64.9464 115.149 65.8496C116.113 66.7528 116.711 67.978 116.832 69.2931L125.04 191.405C125.091 191.994 125.018 192.588 124.825 193.147C124.633 193.706 124.325 194.219 123.922 194.652C123.519 195.085 123.029 195.428 122.485 195.66C121.941 195.892 121.355 196.008 120.763 195.999ZM58.4063 64.9059C57.885 64.8963 57.3676 64.9967 56.8877 65.2005C56.4078 65.4043 55.9763 65.707 55.6212 66.0888C55.2661 66.4706 54.9955 66.9229 54.827 67.4163C54.6585 67.9097 54.5958 68.433 54.6431 68.9523L62.8511 191.04C62.9578 192.227 63.4968 193.334 64.3658 194.15C65.2347 194.966 66.3731 195.434 67.5647 195.466H120.763C121.284 195.475 121.802 195.375 122.282 195.171C122.762 194.967 123.193 194.665 123.548 194.283C123.903 193.901 124.174 193.449 124.342 192.955C124.511 192.462 124.574 191.939 124.526 191.419L116.318 69.3123C116.212 68.1251 115.673 67.0184 114.804 66.2025C113.935 65.3866 112.796 64.9184 111.605 64.8867L58.4063 64.9059Z" fill="white"/>
<g opacity="0.5">
<path d="M107.513 119.811C115.626 111.232 114.428 96.9251 104.838 87.8561C95.2479 78.7871 80.8968 78.3899 72.7841 86.9689C64.6714 95.5478 65.8691 109.854 75.4593 118.923C85.0495 127.992 99.4005 128.39 107.513 119.811Z" fill="#00C3DF"/>
<path d="M104.04 116.53C110.529 109.668 109.571 98.2231 101.899 90.9682C94.2277 83.7134 82.7475 83.3956 76.2577 90.2584C69.7679 97.1212 70.726 108.566 78.3978 115.821C86.0695 123.075 97.5498 123.393 104.04 116.53Z" fill="white"/>
<path d="M100.563 113.266C105.431 108.12 104.714 99.5377 98.9615 94.096C93.2091 88.6543 84.5997 88.4145 79.7319 93.5602C74.8641 98.706 75.5812 107.289 81.3336 112.73C87.086 118.172 95.6953 118.412 100.563 113.266Z" fill="#00C3DF"/>
<path d="M97.0957 109.964C100.342 106.532 99.8624 100.808 96.0256 97.1795C92.1887 93.5512 86.4471 93.3924 83.2013 96.8247C79.9555 100.257 80.4346 105.981 84.2714 109.609C88.1083 113.238 93.8499 113.396 97.0957 109.964Z" fill="white"/>
<path d="M93.6205 106.694C95.2437 104.978 95.0046 102.116 93.0865 100.302C91.1684 98.4871 88.2976 98.4072 86.6744 100.123C85.0512 101.839 85.2903 104.701 87.2084 106.515C89.1265 108.33 91.9973 108.41 93.6205 106.694Z" fill="#00C3DF"/>
</g>
<path d="M94.5071 134.165C94.4207 134.165 94.3391 134.165 94.2527 134.165C93.5939 132.893 92.602 131.824 91.383 131.071C90.1639 130.319 88.7635 129.912 87.3311 129.893C86.5964 129.892 85.8661 130.006 85.1663 130.229C84.4759 128.964 83.4611 127.905 82.226 127.162C80.991 126.419 79.5804 126.018 78.1391 126C77.2331 125.987 76.3335 126.153 75.4917 126.488C74.6499 126.823 73.8826 127.321 73.2338 127.953C72.5849 128.586 72.0673 129.34 71.7106 130.173C71.3538 131.006 71.1651 131.901 71.1551 132.807C70.4386 132.849 69.7378 133.034 69.0941 133.352C68.4504 133.669 67.8768 134.112 67.407 134.655C66.9373 135.198 66.581 135.829 66.3591 136.511C66.1372 137.194 66.0542 137.914 66.1151 138.629C66.2394 140.206 66.9484 141.679 68.1028 142.759C69.2572 143.84 70.7738 144.45 72.3551 144.471H95.2127C95.8762 144.478 96.534 144.347 97.1438 144.086C97.7537 143.824 98.3022 143.438 98.7542 142.953C99.2061 142.467 99.5515 141.892 99.7682 141.265C99.985 140.637 100.068 139.972 100.013 139.311C99.8994 137.922 99.2725 136.625 98.2545 135.674C97.2364 134.722 95.9004 134.184 94.5071 134.165Z" fill="white"/>
<path d="M109.065 78.3171H108.868C108.355 77.326 107.581 76.4931 106.631 75.9072C105.681 75.3213 104.589 75.0046 103.473 74.9907C102.9 74.9895 102.33 75.0769 101.784 75.2499C101.245 74.2646 100.454 73.4404 99.4911 72.8618C98.5287 72.2832 97.4297 71.9709 96.3068 71.9571C94.8851 71.9366 93.5134 72.4811 92.4928 73.471C91.4723 74.461 90.8863 75.8155 90.8636 77.2371C90.3049 77.2703 89.7585 77.415 89.2565 77.6627C88.7546 77.9103 88.3073 78.2559 87.941 78.679C87.5746 79.1021 87.2967 79.5943 87.1235 80.1265C86.9502 80.6587 86.8853 81.2202 86.9324 81.7779C87.0303 83.0058 87.5831 84.1529 88.4825 84.9946C89.3819 85.8362 90.5631 86.3119 91.7948 86.3283H109.612C110.13 86.3355 110.644 86.2342 111.12 86.0309C111.597 85.8276 112.025 85.5269 112.378 85.148C112.731 84.7691 113.001 84.3205 113.171 83.831C113.34 83.3415 113.405 82.822 113.361 82.3059C113.266 81.2271 112.774 80.2219 111.981 79.485C111.187 78.7481 110.148 78.3319 109.065 78.3171Z" fill="white"/>
<path opacity="0.3" d="M116.16 153.053H83.2509C83.013 153.05 82.7773 153.097 82.5586 153.191C82.3399 153.284 82.1432 153.422 81.981 153.596C81.8188 153.77 81.6947 153.976 81.6166 154.201C81.5386 154.425 81.5083 154.664 81.5277 154.901L82.8621 174.528C82.9004 175.027 83.1242 175.493 83.4894 175.835C83.8545 176.177 84.3346 176.37 84.8349 176.376H89.2509L89.6205 181.805L94.6749 176.376H117.715C117.953 176.38 118.189 176.333 118.408 176.24C118.627 176.147 118.824 176.008 118.986 175.834C119.149 175.66 119.273 175.454 119.351 175.229C119.428 175.004 119.458 174.765 119.438 174.528L118.108 154.901C118.068 154.407 117.847 153.945 117.488 153.604C117.128 153.263 116.655 153.067 116.16 153.053Z" fill="white"/>
<path d="M115.905 165.955H85.2525L85.0845 163.474H115.742L115.905 165.955Z" fill="white"/>
<path d="M106.56 171.111H85.6031L85.4351 168.629H106.392L106.56 171.111Z" fill="white"/>
<path d="M115.56 160.8H84.9024L84.7344 158.318H115.392L115.56 160.8Z" fill="white"/>
<path d="M141.907 70.0799L143.17 70.9871C143.608 71.3071 144.05 71.6095 144.494 71.8943C145.382 72.4847 146.275 73.0751 147.178 73.6127C148.08 74.1503 148.992 74.6591 149.894 75.1103C150.74 75.5368 151.616 75.9009 152.515 76.1999C152.316 76.1505 152.109 76.1407 151.906 76.1711C151.784 76.186 151.666 76.22 151.555 76.2719C151.416 76.3439 151.459 76.3487 151.531 76.3055C151.809 76.1131 152.059 75.8838 152.275 75.6239C152.907 74.87 153.478 74.0675 153.984 73.2239C154.546 72.3407 155.083 71.4047 155.597 70.4447C156.11 69.4847 156.624 68.5007 157.099 67.5647L157.133 67.5023C157.376 67.0237 157.789 66.6528 158.29 66.4619C158.792 66.2711 159.347 66.2739 159.847 66.4698C160.347 66.6658 160.756 67.0409 160.994 67.5219C161.232 68.003 161.283 68.5555 161.136 69.0719C160.483 71.3588 159.657 73.5926 158.664 75.7535C158.126 76.9162 157.491 78.0321 156.768 79.0895C156.315 79.7447 155.785 80.3427 155.189 80.8703C154.752 81.2503 154.258 81.5582 153.725 81.7823C153.349 81.9362 152.956 82.0411 152.554 82.0943C152.072 82.149 151.585 82.1214 151.114 82.0127C149.831 81.7151 148.576 81.3122 147.36 80.8079C146.222 80.3448 145.11 79.8209 144.029 79.2383C142.963 78.6719 141.925 78.0751 140.914 77.4479C140.41 77.1311 139.91 76.8095 139.416 76.4879C138.922 76.1663 138.456 75.8303 137.914 75.4367C137.307 74.878 136.928 74.116 136.847 73.2956C136.766 72.4753 136.99 71.6539 137.475 70.9877C137.961 70.3215 138.674 69.857 139.48 69.6825C140.286 69.5081 141.127 69.6358 141.845 70.0415L141.907 70.0799Z" fill="#00C3DF"/>
<path opacity="0.2" d="M141.907 70.0799L143.17 70.9871C143.608 71.3071 144.05 71.6095 144.494 71.8943C145.382 72.4847 146.275 73.0751 147.178 73.6127C148.08 74.1503 148.992 74.6591 149.894 75.1103C150.74 75.5368 151.616 75.9009 152.515 76.1999C152.316 76.1505 152.109 76.1407 151.906 76.1711C151.784 76.186 151.666 76.22 151.555 76.2719C151.416 76.3439 151.459 76.3487 151.531 76.3055C151.809 76.1131 152.059 75.8838 152.275 75.6239C152.907 74.87 153.478 74.0675 153.984 73.2239C154.546 72.3407 155.083 71.4047 155.597 70.4447C156.11 69.4847 156.624 68.5007 157.099 67.5647L157.133 67.5023C157.376 67.0237 157.789 66.6528 158.29 66.4619C158.792 66.2711 159.347 66.2739 159.847 66.4698C160.347 66.6658 160.756 67.0409 160.994 67.5219C161.232 68.003 161.283 68.5555 161.136 69.0719C160.483 71.3588 159.657 73.5926 158.664 75.7535C158.126 76.9162 157.491 78.0321 156.768 79.0895C156.315 79.7447 155.785 80.3427 155.189 80.8703C154.752 81.2503 154.258 81.5582 153.725 81.7823C153.349 81.9362 152.956 82.0411 152.554 82.0943C152.072 82.149 151.585 82.1214 151.114 82.0127C149.831 81.7151 148.576 81.3122 147.36 80.8079C146.222 80.3448 145.11 79.8209 144.029 79.2383C142.963 78.6719 141.925 78.0751 140.914 77.4479C140.41 77.1311 139.91 76.8095 139.416 76.4879C138.922 76.1663 138.456 75.8303 137.914 75.4367C137.307 74.878 136.928 74.116 136.847 73.2956C136.766 72.4753 136.99 71.6539 137.475 70.9877C137.961 70.3215 138.674 69.857 139.48 69.6825C140.286 69.5081 141.127 69.6358 141.845 70.0415L141.907 70.0799Z" fill="#0D1033"/>
<path d="M158.309 66.6672L159.61 64.4688L162.106 67.1616C161.745 67.9436 161.095 68.5546 160.291 68.8656C160.111 68.927 159.919 68.946 159.73 68.921C159.541 68.8961 159.36 68.8278 159.202 68.7215L158.722 68.4144C158.442 68.2319 158.243 67.9487 158.166 67.6234C158.089 67.2981 158.14 66.9556 158.309 66.6672Z" fill="#FFDBA1"/>
<path d="M163.147 63.1587L163.699 63.4995C163.873 63.6067 164.018 63.7529 164.125 63.9264C164.231 64.0999 164.296 64.2959 164.313 64.4988C164.33 64.7017 164.3 64.9058 164.224 65.0948C164.148 65.2839 164.03 65.4526 163.877 65.5875L162.106 67.1619L159.61 64.4691L161.784 63.1539C161.99 63.0285 162.226 62.9625 162.467 62.9634C162.707 62.9642 162.943 63.0318 163.147 63.1587Z" fill="#FFDBA1"/>
<path d="M111.37 195.898L115.171 196.008L116.602 187.205L112.805 187.095L111.37 195.898Z" fill="#FFDBA1"/>
<path d="M115.771 194.938L111.523 194.4C111.452 194.389 111.379 194.407 111.321 194.449C111.262 194.491 111.223 194.555 111.211 194.626L110.582 197.957C110.559 198.133 110.607 198.312 110.715 198.453C110.823 198.594 110.982 198.687 111.158 198.711C112.642 198.874 113.357 198.874 115.224 199.109C116.371 199.258 119.362 199.978 120.95 199.781C122.539 199.584 122.299 198.024 121.608 197.967C118.512 197.698 117.35 196.224 116.39 195.25C116.224 195.081 116.006 194.971 115.771 194.938Z" fill="#0D1033"/>
<path opacity="0.2" d="M112.8 187.099L116.602 187.21L115.863 191.746L112.061 191.635L112.8 187.099Z" fill="#0D1033"/>
<path d="M133.58 102.72C133.58 102.72 130.263 134.204 128.055 144.898C125.655 156.61 117.893 190.872 117.893 190.872L110.938 190.359C110.938 190.359 114.749 154.916 117.869 143.444C117.869 131.53 120.749 98.1411 120.749 98.1411L133.58 102.72Z" fill="#0D1033"/>
<path opacity="0.3" d="M122.496 113.362C122.434 110.899 121.099 110.107 119.784 110.136C119.304 116.059 118.791 123.322 118.402 129.874C120.735 126.091 122.669 120.202 122.496 113.362Z" fill="#0D1033"/>
<path d="M110.731 190.406L118.181 190.958L119.035 188.15L110.458 188.064L110.731 190.406Z" fill="white"/>
<path d="M72.8208 166.392L75.216 169.354L82.3824 164.184L79.9824 161.228L72.8208 166.392Z" fill="#FFDBA1"/>
<path d="M75.7346 169.358L73.6034 165.648C73.5697 165.585 73.5126 165.538 73.4444 165.516C73.3763 165.495 73.3024 165.501 73.2386 165.533L70.2002 167.04C70.046 167.128 69.9327 167.273 69.8851 167.444C69.8374 167.615 69.8592 167.797 69.9458 167.952C70.709 169.234 71.141 169.805 72.077 171.437C72.653 172.44 74.1698 175.325 74.957 176.717C75.7442 178.109 77.1026 177.278 76.877 176.621C75.917 173.664 75.6434 171.403 75.8402 170.054C75.8841 169.817 75.8469 169.572 75.7346 169.358Z" fill="#0D1033"/>
<path opacity="0.2" d="M79.9826 161.228L82.3826 164.189L78.6866 166.848L76.2866 163.892L79.9826 161.228Z" fill="#0D1033"/>
<path d="M126.643 100.013C126.643 100.013 117.288 126.787 113.035 136.848C108.384 147.864 80.5683 167.429 80.5683 167.429L76.1763 162.01C76.1763 162.01 95.0787 143.064 102.096 134.079C105.984 121.843 114.283 95.5923 114.283 95.5923L126.643 100.013Z" fill="#0D1033"/>
<path d="M75.9985 161.789L80.7457 167.645L83.0641 166.306L77.5057 160.104L75.9985 161.789Z" fill="white"/>
<path d="M133.541 102.902L114.264 95.592C114.744 93.8304 117.264 88.656 119.506 81.4512C121.201 76.1272 122.434 70.667 123.192 65.1312C123.212 64.9699 123.264 64.8142 123.346 64.6738C123.428 64.5333 123.538 64.4111 123.668 64.3145C123.799 64.2179 123.948 64.149 124.106 64.112C124.265 64.0749 124.429 64.0706 124.589 64.0992C124.949 64.1616 125.376 64.2432 125.847 64.3344C127.061 64.5792 128.578 64.9248 130.023 65.3664C132.796 66.1794 135.52 67.1506 138.183 68.2752C139.074 68.6766 139.941 69.1302 140.779 69.6336C141.278 69.9176 141.741 70.2609 142.157 70.656C142.307 70.7767 142.432 70.9265 142.524 71.0963C142.615 71.2662 142.672 71.4527 142.69 71.6448C142.69 74.4 139.93 85.0752 133.541 102.902Z" fill="#F0F1F7"/>
<path d="M137.799 68.098C135.629 66.6868 135.735 65.074 136.469 63.5188C136.654 63.1342 136.86 62.7607 137.088 62.4004L135 58.8724L133.464 56.2852C133.128 59.1268 132.101 64.1572 129.701 65.2708C131.013 67.1227 132.886 68.5029 135.044 69.2068C138.586 70.3108 137.799 68.098 137.799 68.098Z" fill="#FFDBA1"/>
<path d="M134.909 69.149L134.876 68.2466L132.476 68.717L134.909 69.149Z" fill="#F0F1F7"/>
<path d="M134.909 69.149L135.356 68.4146L136.906 70.301L134.909 69.149Z" fill="#F0F1F7"/>
<path d="M130.027 64.8384C131.487 66.1817 133.117 67.3274 134.875 68.2464C133.915 68.8368 133.003 70.392 132.658 71.6784C131.88 71.136 128.77 66.0192 128.338 64.6128L130.027 64.8384Z" fill="white"/>
<path d="M137.347 67.5508C136.779 68.0253 136.086 68.3253 135.351 68.4148C135.864 69.1684 136.311 71.122 136.311 72.2548C137.208 71.6692 138.595 69.6244 138.816 68.698L137.347 67.5508Z" fill="white"/>
<path opacity="0.3" d="M137.424 67.4834C137.424 67.4834 139.522 68.4914 141.375 69.6338C142.134 70.1018 142.72 70.8037 143.046 71.634C143.371 72.4642 143.418 73.3778 143.179 74.237C140.89 82.3298 137.799 90.1874 136.517 94.5602C135.159 99.221 133.267 105.067 133.267 105.067L129.999 105.84C129.999 105.84 138.192 74.501 137.424 67.4834Z" fill="#0D1033"/>
<path opacity="0.3" d="M129.979 64.4736C129.979 64.4736 127.162 64.104 124.699 63.9936C123.836 63.9547 122.985 64.2146 122.291 64.7296C121.597 65.2446 121.102 65.9831 120.888 66.8208C119.64 71.7552 118.719 81.1919 117.456 84.864C115.887 89.4527 113.76 98.3999 113.76 98.3999L124.925 104.851C124.925 104.851 136.205 70.2 129.979 64.4736Z" fill="#0D1033"/>
<path d="M129.979 64.4736C129.979 64.4736 127.162 64.104 124.699 63.9936C123.836 63.9547 122.985 64.2146 122.291 64.7296C121.597 65.2446 121.101 65.9831 120.888 66.8208C119.64 71.7552 117.941 80.9712 116.674 84.648C115.095 89.2368 111.744 97.0368 111.744 97.0368L125.827 103.642C125.827 103.642 136.205 70.2 129.979 64.4736Z" fill="#00C3DF"/>
<path opacity="0.2" d="M129.979 64.4736C129.979 64.4736 127.162 64.104 124.699 63.9936C123.836 63.9547 122.985 64.2146 122.291 64.7296C121.597 65.2446 121.101 65.9831 120.888 66.8208C119.64 71.7552 117.941 80.9712 116.674 84.648C115.095 89.2368 111.744 97.0368 111.744 97.0368L125.827 103.642C125.827 103.642 136.205 70.2 129.979 64.4736Z" fill="#0D1033"/>
<path d="M137.424 67.4834C137.424 67.4834 139.522 68.4914 141.374 69.6338C142.134 70.1018 142.72 70.8037 143.046 71.634C143.371 72.4642 143.418 73.3778 143.179 74.237C140.89 82.3298 139.08 90.8114 138.168 95.2754C137.208 100.027 136.205 104.352 136.205 104.352L130.925 105.067C130.925 105.067 138.192 74.501 137.424 67.4834Z" fill="#00C3DF"/>
<path opacity="0.2" d="M137.424 67.4834C137.424 67.4834 139.522 68.4914 141.374 69.6338C142.134 70.1018 142.72 70.8037 143.046 71.634C143.371 72.4642 143.418 73.3778 143.179 74.237C140.89 82.3298 139.08 90.8114 138.168 95.2754C137.208 100.027 136.205 104.352 136.205 104.352L130.925 105.067C130.925 105.067 138.192 74.501 137.424 67.4834Z" fill="#0D1033"/>
<path opacity="0.2" d="M137.088 62.4001C136.859 62.7651 136.653 63.1434 136.469 63.5329C135.442 62.9137 134.386 61.2049 134.635 60.0193C134.714 59.6245 134.836 59.2397 135 58.8721L137.088 62.4001Z" fill="#0D1033"/>
<path d="M140.05 47.8467C142.603 48.1779 143.539 51.6243 142.128 53.8995C139.814 50.5443 140.05 47.8467 140.05 47.8467Z" fill="#0D1033"/>
<path d="M132.101 54.2019C132.965 57.8931 133.277 60.0915 135.49 61.7475C136.203 62.2942 137.052 62.6354 137.945 62.7341C138.838 62.8328 139.741 62.6853 140.556 62.3076C141.372 61.9299 142.068 61.3363 142.57 60.5912C143.072 59.8461 143.361 58.9778 143.405 58.0803C143.645 54.6291 142.195 49.1715 138.283 48.1827C137.442 47.9453 136.553 47.9336 135.705 48.1487C134.857 48.3638 134.081 48.7981 133.455 49.4081C132.828 50.0181 132.374 50.7822 132.136 51.6237C131.898 52.4651 131.886 53.3543 132.101 54.2019Z" fill="#FFDBA1"/>
<path d="M133.239 57.4897C135.461 57.5521 135.115 53.8705 134.146 52.4785C137.227 52.9585 142.335 50.2369 142.848 47.3857C143.592 43.2529 137.29 43.2529 135.25 44.5681C136.128 44.6305 136.575 45.3745 136.363 45.7585C136.363 45.7585 133.32 44.8369 131.352 45.9073C132.211 46.2241 133.123 47.4625 129.855 47.8561C126.744 48.2305 127.685 51.3601 129.255 51.3025C128.419 52.5841 127.416 55.4977 129.298 56.7361C131.179 57.9745 132.466 59.5873 132.058 60.2497C132.715 60.2257 134.112 59.4337 133.239 57.4897Z" fill="#0D1033"/>
<path d="M129.701 51.0146C128.213 51.1586 127.358 52.3202 127.301 53.8946C127.938 52.81 128.749 51.8372 129.701 51.0146Z" fill="#0D1033"/>
<path d="M131.213 57.5375C131.592 58.2951 132.244 58.8814 133.037 59.1791C134.079 59.5583 134.626 58.6367 134.357 57.6095C134.112 56.6783 133.277 55.3679 132.221 55.4351C131.165 55.5023 130.752 56.5967 131.213 57.5375Z" fill="#FFDBA1"/>
<path d="M137.952 54.485C138 54.7874 138.207 55.0082 138.403 54.965C138.6 54.9218 138.72 54.6722 138.672 54.3698C138.624 54.0674 138.418 53.8418 138.216 53.8898C138.015 53.9378 137.899 54.1826 137.952 54.485Z" fill="#0D1033"/>
<path d="M141.394 54.024C141.442 54.3264 141.643 54.5472 141.845 54.504C142.046 54.4608 142.162 54.2112 142.114 53.904C142.066 53.5968 141.859 53.3808 141.658 53.424C141.456 53.4672 141.341 53.7168 141.394 54.024Z" fill="#0D1033"/>
<path d="M140.323 54.3218C140.845 55.2015 141.481 56.0085 142.214 56.7218C141.763 57.293 140.808 57.2018 140.808 57.2018L140.323 54.3218Z" fill="#0D1033"/>
<path d="M139.704 58.1665C139.349 58.176 138.996 58.1133 138.666 57.9821C138.336 57.8509 138.036 57.654 137.784 57.4033C137.768 57.3864 137.759 57.3641 137.759 57.3409C137.759 57.3177 137.768 57.2954 137.784 57.2785C137.792 57.2699 137.803 57.2631 137.814 57.2585C137.825 57.2539 137.837 57.2515 137.849 57.2515C137.861 57.2515 137.873 57.2539 137.884 57.2585C137.895 57.2631 137.905 57.2699 137.914 57.2785C138.192 57.5479 138.528 57.7493 138.897 57.8667C139.266 57.9841 139.657 58.0144 140.04 57.9553C140.053 57.9511 140.066 57.9497 140.08 57.9513C140.093 57.9528 140.106 57.9573 140.117 57.9644C140.128 57.9715 140.138 57.981 140.145 57.9923C140.153 58.0036 140.157 58.0163 140.159 58.0296C140.161 58.0429 140.16 58.0564 140.156 58.0692C140.152 58.082 140.145 58.0938 140.136 58.1036C140.127 58.1135 140.116 58.1212 140.103 58.1263C140.091 58.1313 140.077 58.1336 140.064 58.1329C139.945 58.1535 139.825 58.1647 139.704 58.1665Z" fill="#0D1033"/>
<path d="M138.744 59.1648C138.457 58.9532 138.216 58.6853 138.036 58.3775C137.857 58.0696 137.741 57.7283 137.698 57.3744C137.697 57.351 137.704 57.3279 137.719 57.31C137.735 57.2921 137.756 57.2808 137.78 57.2784C137.791 57.2771 137.803 57.2781 137.814 57.2816C137.826 57.285 137.836 57.2908 137.845 57.2984C137.854 57.306 137.861 57.3155 137.867 57.326C137.872 57.3366 137.875 57.3482 137.876 57.36C137.932 57.7431 138.074 58.1085 138.292 58.4286C138.51 58.7487 138.797 59.0152 139.133 59.208C139.143 59.2135 139.152 59.221 139.16 59.2301C139.167 59.2392 139.172 59.2496 139.175 59.2608C139.179 59.272 139.179 59.2838 139.178 59.2953C139.176 59.3068 139.173 59.318 139.167 59.328C139.161 59.3384 139.153 59.3475 139.143 59.3549C139.134 59.3622 139.123 59.3676 139.111 59.3707C139.1 59.3738 139.088 59.3746 139.076 59.3731C139.064 59.3715 139.052 59.3676 139.042 59.3616C138.939 59.301 138.84 59.2353 138.744 59.1648Z" fill="#0D1033"/>
<path d="M136.699 53.5203C136.671 53.5275 136.641 53.5275 136.613 53.5203C136.591 53.5097 136.572 53.4948 136.557 53.4766C136.541 53.4584 136.529 53.4372 136.522 53.4143C136.515 53.3915 136.513 53.3674 136.515 53.3435C136.517 53.3197 136.525 53.2965 136.536 53.2755C136.663 53.0183 136.851 52.7962 137.083 52.6288C137.316 52.4614 137.586 52.3538 137.871 52.3155C137.894 52.3136 137.918 52.3164 137.941 52.3239C137.963 52.3313 137.984 52.3432 138.002 52.3589C138.02 52.3746 138.035 52.3937 138.045 52.4151C138.055 52.4365 138.061 52.4598 138.063 52.4835C138.065 52.5073 138.062 52.5311 138.054 52.5537C138.047 52.5763 138.035 52.5972 138.019 52.6151C138.004 52.633 137.984 52.6476 137.963 52.658C137.942 52.6684 137.918 52.6743 137.895 52.6755C137.674 52.7072 137.464 52.7913 137.283 52.9207C137.102 53.0502 136.954 53.2212 136.853 53.4195C136.84 53.4494 136.818 53.4749 136.791 53.4928C136.764 53.5107 136.732 53.5203 136.699 53.5203Z" fill="#0D1033"/>
<path d="M142.671 52.6464C142.641 52.6473 142.612 52.6407 142.586 52.6272C142.56 52.6138 142.538 52.594 142.522 52.5696C142.394 52.3767 142.224 52.2158 142.024 52.0992C141.824 51.9827 141.6 51.9137 141.37 51.8976C141.327 51.8906 141.288 51.8687 141.26 51.8357C141.232 51.8027 141.217 51.7609 141.217 51.7176C141.217 51.6743 141.232 51.6325 141.26 51.5995C141.288 51.5665 141.327 51.5446 141.37 51.5376C141.657 51.5538 141.937 51.6368 142.187 51.7801C142.437 51.9234 142.65 52.1231 142.81 52.3632C142.823 52.3823 142.833 52.4041 142.839 52.427C142.844 52.45 142.844 52.4738 142.84 52.4971C142.836 52.5203 142.828 52.5425 142.815 52.5624C142.802 52.5822 142.786 52.5994 142.766 52.6128C142.739 52.6342 142.705 52.6461 142.671 52.6464Z" fill="#0D1033"/>
<path d="M125.731 70.205C124.771 70.9874 123.758 71.8562 122.794 72.7058C121.829 73.5554 120.845 74.429 119.914 75.3218C118.061 77.0366 116.326 78.8744 114.72 80.8226L114.173 81.533L114.106 81.6242C114.12 81.6027 114.133 81.5803 114.144 81.557C114.173 81.5032 114.197 81.447 114.216 81.389C114.253 81.2923 114.272 81.1899 114.274 81.0866C114.274 80.9234 114.245 80.9234 114.274 81.0002C114.295 81.1478 114.337 81.2917 114.398 81.4274C114.592 81.8806 114.833 82.3119 115.118 82.7138C115.449 83.1992 115.805 83.667 116.184 84.1154C116.957 85.0754 117.821 85.9922 118.728 86.8994C119.635 87.8066 120.595 88.7234 121.512 89.5634L121.574 89.6162C121.979 89.9795 122.231 90.4823 122.28 91.0238C122.33 91.5652 122.172 92.1053 121.84 92.5358C121.508 92.9662 121.026 93.2553 120.489 93.3449C119.953 93.4346 119.403 93.3183 118.949 93.0194C116.541 91.4931 114.29 89.7325 112.229 87.7634C111.706 87.2402 111.192 86.693 110.688 86.0882C110.143 85.4326 109.661 84.727 109.248 83.981C108.998 83.5222 108.794 83.0399 108.638 82.541C108.43 81.8693 108.355 81.1631 108.418 80.4626C108.457 80.0236 108.557 79.5923 108.715 79.181C108.798 78.9679 108.896 78.761 109.008 78.5618L109.181 78.2786L109.258 78.1634L109.882 77.237C111.545 74.9149 113.396 72.7332 115.416 70.7138C116.376 69.7154 117.384 68.741 118.406 67.8002C119.429 66.8594 120.442 65.9522 121.57 65.0306C122.263 64.62 123.08 64.4722 123.873 64.614C124.667 64.7559 125.382 65.178 125.89 65.8034C126.398 66.4288 126.664 67.2159 126.64 68.0212C126.617 68.8264 126.304 69.5964 125.76 70.1906L125.731 70.205Z" fill="#00C3DF"/>
<path opacity="0.2" d="M125.731 70.205C124.771 70.9874 123.758 71.8562 122.794 72.7058C121.829 73.5554 120.845 74.429 119.914 75.3218C118.061 77.0366 116.326 78.8744 114.72 80.8226L114.173 81.533L114.106 81.6242C114.12 81.6027 114.133 81.5803 114.144 81.557C114.173 81.5032 114.197 81.447 114.216 81.389C114.253 81.2923 114.272 81.1899 114.274 81.0866C114.274 80.9234 114.245 80.9234 114.274 81.0002C114.295 81.1478 114.337 81.2917 114.398 81.4274C114.592 81.8806 114.833 82.3119 115.118 82.7138C115.449 83.1992 115.805 83.667 116.184 84.1154C116.957 85.0754 117.821 85.9922 118.728 86.8994C119.635 87.8066 120.595 88.7234 121.512 89.5634L121.574 89.6162C121.979 89.9795 122.231 90.4823 122.28 91.0238C122.33 91.5652 122.172 92.1053 121.84 92.5358C121.508 92.9662 121.026 93.2553 120.489 93.3449C119.953 93.4346 119.403 93.3183 118.949 93.0194C116.541 91.4931 114.29 89.7325 112.229 87.7634C111.706 87.2402 111.192 86.693 110.688 86.0882C110.143 85.4326 109.661 84.727 109.248 83.981C108.998 83.5222 108.794 83.0399 108.638 82.541C108.43 81.8693 108.355 81.1631 108.418 80.4626C108.457 80.0236 108.557 79.5923 108.715 79.181C108.798 78.9679 108.896 78.761 109.008 78.5618L109.181 78.2786L109.258 78.1634L109.882 77.237C111.545 74.9149 113.396 72.7332 115.416 70.7138C116.376 69.7154 117.384 68.741 118.406 67.8002C119.429 66.8594 120.442 65.9522 121.57 65.0306C122.263 64.62 123.08 64.4722 123.873 64.614C124.667 64.7559 125.382 65.178 125.89 65.8034C126.398 66.4288 126.664 67.2159 126.64 68.0212C126.617 68.8264 126.304 69.5964 125.76 70.1906L125.731 70.205Z" fill="#0D1033"/>
<path d="M122.242 90.3555L125.506 92.3523L121.335 94.7283C121.335 94.7283 118.56 92.6547 119.746 91.3155L121.138 90.3555C121.302 90.2487 121.494 90.1919 121.69 90.1919C121.886 90.1919 122.078 90.2487 122.242 90.3555Z" fill="#FFDBA1"/>
<path d="M125.683 96.0001L123.888 97.0561C123.764 97.1302 123.626 97.1787 123.483 97.1985C123.339 97.2183 123.194 97.2091 123.054 97.1715C122.914 97.1339 122.784 97.0687 122.67 96.9796C122.556 96.8905 122.461 96.7794 122.39 96.6529L121.334 94.7329L125.506 92.3569L126.178 94.7569C126.244 94.9897 126.232 95.2379 126.143 95.4629C126.053 95.6878 125.892 95.8768 125.683 96.0001Z" fill="#FFDBA1"/>
<path d="M156.907 62.1022L161.328 61.2334C160.113 63.3742 161.899 65.4238 163.502 66.7102C164.265 67.3246 163.728 68.4238 162.542 68.6302L159.662 69.1966C156.187 69.8974 156.907 62.1022 156.907 62.1022Z" fill="#00C3DF"/>
<path d="M155.15 62.4431L165.288 60.4799C166.871 60.1643 168.264 59.2348 169.164 57.8946C170.063 56.5543 170.396 54.9124 170.088 53.3279C169.77 51.7462 168.84 50.3541 167.5 49.4551C166.161 48.556 164.52 48.2227 162.936 48.5279L152.803 50.5151C151.221 50.8341 149.829 51.7651 148.93 53.1055C148.031 54.4458 147.698 56.0871 148.003 57.6719C148.326 59.2479 149.258 60.6329 150.596 61.5261C151.934 62.4194 153.571 62.7489 155.15 62.4431Z" fill="#00C3DF"/>
<path opacity="0.3" d="M155.15 62.4431L165.288 60.4799C166.871 60.1643 168.264 59.2348 169.164 57.8946C170.063 56.5543 170.396 54.9124 170.088 53.3279C169.77 51.7462 168.84 50.3541 167.5 49.4551C166.161 48.556 164.52 48.2227 162.936 48.5279L152.803 50.5151C151.221 50.8341 149.829 51.7651 148.93 53.1055C148.031 54.4458 147.698 56.0871 148.003 57.6719C148.326 59.2479 149.258 60.6329 150.596 61.5261C151.934 62.4194 153.571 62.7489 155.15 62.4431Z" fill="white"/>
<path d="M182.741 64.5118L165.461 64.2814C163.963 64.5742 160.181 45.1822 161.659 44.8894L177.566 38.1694L182.741 64.5118Z" fill="#00C3DF"/>
<path d="M178.776 51.6044C180.216 58.8812 181.977 64.6604 182.741 64.5116C183.504 64.3628 182.966 58.3388 181.536 51.0716C180.105 43.8044 178.334 38.0156 177.571 38.1644C176.808 38.3132 177.35 44.3228 178.776 51.6044Z" fill="#00C3DF"/>
<path opacity="0.3" d="M178.776 51.6044C180.216 58.8812 181.977 64.6604 182.741 64.5116C183.504 64.3628 182.966 58.3388 181.536 51.0716C180.105 43.8044 178.334 38.0156 177.571 38.1644C176.808 38.3132 177.35 44.3228 178.776 51.6044Z" fill="#0D1033"/>
<path d="M185.28 50.7069C184.929 48.9261 180.96 48.2013 180.12 48.3693C179.28 48.5373 178.872 50.1117 179.217 51.8925C179.563 53.6733 180.537 54.9789 181.382 54.8157C182.227 54.6525 185.616 52.4829 185.28 50.7069Z" fill="#00C3DF"/>
<path d="M212.009 46.0871L189.525 49.7246L189.607 50.2316L212.091 46.5941L212.009 46.0871Z" fill="#00C3DF"/>
<path d="M196.625 36.3796L187.406 44.2397L187.739 44.6306L196.958 36.7704L196.625 36.3796Z" fill="#00C3DF"/>
<path d="M201.189 60.6871L201.019 61.1714L204.4 62.3647L204.571 61.8804L201.189 60.6871Z" fill="#00C3DF"/>
<path d="M188.938 56.514L188.775 57.001L197.331 59.8703L197.494 59.3834L188.938 56.514Z" fill="#00C3DF"/>
</svg>
