<svg width="8" height="6" viewBox="0 0 8 6" fill="none" xmlns="http://www.w3.org/2000/svg">
<path d="M7.76578 1.05529C7.69148 0.980952 7.60327 0.92198 7.50618 0.881745C7.40909 0.84151 7.30502 0.820801 7.19992 0.820801C7.09482 0.820801 6.99075 0.84151 6.89366 0.881745C6.79657 0.92198 6.70836 0.980952 6.63407 1.05529L4.18825 3.50058C4.13824 3.55057 4.07043 3.57865 3.99972 3.57865C3.92901 3.57865 3.8612 3.55057 3.81119 3.50058L1.36591 1.05529C1.2159 0.905218 1.01243 0.820879 0.80024 0.820829C0.588053 0.820779 0.384537 0.905022 0.234463 1.05502C0.0843887 1.20503 5.00325e-05 1.4085 2.22535e-08 1.62069C-4.9988e-05 1.83288 0.0841929 2.03639 0.234196 2.18647L2.68001 4.63228C2.85335 4.80564 3.05913 4.94315 3.28561 5.03697C3.5121 5.13079 3.75484 5.17908 3.99999 5.17908C4.24513 5.17908 4.48788 5.13079 4.71436 5.03697C4.94084 4.94315 5.14662 4.80564 5.31996 4.63228L7.76578 2.18647C7.91575 2.03645 8 1.83301 8 1.62088C8 1.40875 7.91575 1.20531 7.76578 1.05529Z" fill="#75778A"/>
</svg>
