<svg width="14" height="16" viewBox="0 0 14 16" fill="none" xmlns="http://www.w3.org/2000/svg">
<path id="Vector" d="M5.6665 7C5.6665 6.08067 6.41384 5.33333 7.33317 5.33333C8.2525 5.33333 8.99984 6.08067 8.99984 7C8.99984 7.91933 8.2525 8.66667 7.33317 8.66667C6.41384 8.66667 5.6665 7.91933 5.6665 7ZM7.33317 9.33333C5.78717 9.33333 4.3945 10.3847 4.0205 11.8333C3.96917 12.0327 4.01317 12.2453 4.13984 12.408C4.26584 12.5707 4.45984 12.666 4.6665 12.666H9.99984C10.2065 12.666 10.4005 12.5707 10.5265 12.408C10.6525 12.2447 10.6972 12.0327 10.6458 11.8333C10.2718 10.3847 8.87984 9.33333 7.33317 9.33333ZM13.9998 5V12.3333C13.9998 14.3553 12.3552 16 10.3332 16H4.33317C2.31117 16 0.666504 14.3553 0.666504 12.3333V5C0.666504 3.01467 2.2525 1.39267 4.2245 1.33467C4.59917 0.546 5.40384 0 6.33317 0H8.33317C9.26317 0 10.0672 0.546 10.4418 1.33467C12.4138 1.392 13.9998 3.01467 13.9998 5ZM11.9998 5C11.9998 4.08133 11.2518 3.33333 10.3332 3.33333H9.6665C9.11384 3.33333 8.6665 2.886 8.6665 2.33333C8.6665 2.14933 8.51717 2 8.33317 2H6.33317C6.14917 2 5.99984 2.14933 5.99984 2.33333C5.99984 2.886 5.5525 3.33333 4.99984 3.33333H4.33317C3.4145 3.33333 2.6665 4.08133 2.6665 5V12.3333C2.6665 13.252 3.4145 14 4.33317 14H10.3332C11.2518 14 11.9998 13.252 11.9998 12.3333V5Z" fill="#75778A"/>
</svg>
