<svg width="12" height="12" viewBox="0 0 12 12" fill="none" xmlns="http://www.w3.org/2000/svg">
<path d="M11.5 2.25C11.5 1.83579 11.1642 1.5 10.75 1.5H8.86201C8.54607 0.60368 7.70037 0.00304687 6.75001 0H5.25001C4.29964 0.00304687 3.45395 0.60368 3.13801 1.5H1.25C0.835789 1.5 0.5 1.83579 0.5 2.25C0.5 2.66421 0.835789 3 1.25 3H1.50001V9.25001C1.50001 10.7688 2.73123 12 4.25 12H7.74999C9.26879 12 10.5 10.7688 10.5 9.25001V3H10.75C11.1642 3 11.5 2.66421 11.5 2.25ZM9.00001 9.25001C9.00001 9.94036 8.44037 10.5 7.75002 10.5H4.25C3.55965 10.5 3.00001 9.94036 3.00001 9.25001V3H9.00001V9.25001Z" fill="#75778A"/>
<path d="M4.75002 9C5.16423 9 5.50002 8.66421 5.50002 8.25V5.25C5.50002 4.83579 5.16423 4.5 4.75002 4.5C4.3358 4.5 4.00002 4.83579 4.00002 5.25V8.25C4.00002 8.66421 4.3358 9 4.75002 9Z" fill="#75778A"/>
<path d="M7.25 9C7.66421 9 8 8.66421 8 8.25V5.25C8 4.83579 7.66421 4.5 7.25 4.5C6.83579 4.5 6.5 4.83579 6.5 5.25V8.25C6.5 8.66421 6.83579 9 7.25 9Z" fill="#75778A"/>
</svg>
