<svg width="26" height="25" viewBox="0 0 26 25" fill="none" xmlns="http://www.w3.org/2000/svg">
<path d="M17.0994 13.3199L25.2156 18.0539L21.7507 19.0446L24.2273 23.3346L22.2087 24.5L19.7322 20.2112L17.1414 22.7169L17.0994 13.3199ZM14.7685 5.16178H17.0994V7.49267H22.9267C23.2357 7.49267 23.5322 7.61546 23.7507 7.83401C23.9693 8.05258 24.0921 8.34901 24.0921 8.65811V13.3199H21.7612V9.82356H10.1068V21.478H14.7685V23.8089H8.94132C8.63222 23.8089 8.33578 23.6861 8.11722 23.4675C7.89866 23.249 7.77587 22.9525 7.77587 22.6434V16.8162H5.44498V14.4853H7.77587V8.65811C7.77587 8.34901 7.89866 8.05258 8.11722 7.83401C8.33578 7.61546 8.63222 7.49267 8.94132 7.49267H14.7685V5.16178ZM3.11409 14.4853V16.8162H0.783203V14.4853H3.11409ZM3.11409 9.82356V12.1544H0.783203V9.82356H3.11409ZM3.11409 5.16178V7.49267H0.783203V5.16178H3.11409ZM3.11409 0.5V2.83089H0.783203V0.5H3.11409ZM7.77587 0.5V2.83089H5.44498V0.5H7.77587ZM12.4376 0.5V2.83089H10.1068V0.5H12.4376ZM17.0994 0.5V2.83089H14.7685V0.5H17.0994Z" fill="#0D1033"/>
</svg>
