<svg width="17" height="18" viewBox="0 0 17 18" fill="none" xmlns="http://www.w3.org/2000/svg">
<path fill-rule="evenodd" clip-rule="evenodd" d="M8.1 7.2C9.59121 7.2 10.8 5.99116 10.8 4.5C10.8 3.00883 9.59121 1.8 8.1 1.8C6.60879 1.8 5.4 3.00883 5.4 4.5C5.4 5.99116 6.60879 7.2 8.1 7.2ZM8.1 9C10.5853 9 12.6 6.98528 12.6 4.5C12.6 2.01472 10.5853 0 8.1 0C5.61472 0 3.6 2.01472 3.6 4.5C3.6 6.98528 5.61472 9 8.1 9Z" fill="#75778A"/>
<path fill-rule="evenodd" clip-rule="evenodd" d="M5.4 12.6C3.41177 12.6 1.8 14.2118 1.8 16.2V17.1C1.8 17.5971 1.39705 18 0.9 18C0.402948 18 0 17.5971 0 17.1V16.2C0 13.2177 2.41766 10.8 5.4 10.8H10.8C13.7823 10.8 16.2 13.2177 16.2 16.2V17.1C16.2 17.5971 15.7971 18 15.3 18C14.8029 18 14.4 17.5971 14.4 17.1V16.2C14.4 14.2118 12.7882 12.6 10.8 12.6H5.4Z" fill="#75778A"/>
</svg>
