<svg width="18" height="18" viewBox="0 0 18 18" fill="none" xmlns="http://www.w3.org/2000/svg">
<g id="Vector">
<path fill-rule="evenodd" clip-rule="evenodd" d="M8.9999 7.2C10.4911 7.2 11.6999 5.99116 11.6999 4.5C11.6999 3.00883 10.4911 1.8 8.9999 1.8C7.50869 1.8 6.2999 3.00883 6.2999 4.5C6.2999 5.99116 7.50869 7.2 8.9999 7.2ZM8.9999 9C11.4852 9 13.4999 6.98528 13.4999 4.5C13.4999 2.01472 11.4852 0 8.9999 0C6.51462 0 4.4999 2.01472 4.4999 4.5C4.4999 6.98528 6.51462 9 8.9999 9Z" fill="#0D1033"/>
<path fill-rule="evenodd" clip-rule="evenodd" d="M6.2999 12.6C4.31168 12.6 2.6999 14.2118 2.6999 16.2V17.1C2.6999 17.5971 2.29695 18 1.7999 18C1.30285 18 0.899902 17.5971 0.899902 17.1V16.2C0.899902 13.2177 3.31756 10.8 6.2999 10.8H11.6999C14.6822 10.8 17.0999 13.2177 17.0999 16.2V17.1C17.0999 17.5971 16.697 18 16.1999 18C15.7028 18 15.2999 17.5971 15.2999 17.1V16.2C15.2999 14.2118 13.6881 12.6 11.6999 12.6H6.2999Z" fill="#0D1033"/>
</g>
</svg>
