<svg width="16" height="20" viewBox="0 0 16 20" fill="none" xmlns="http://www.w3.org/2000/svg">
<path d="M7.90935 0.243902C5.60839 0.243902 3.7281 2.12434 3.7281 4.42528C3.7281 6.72622 5.60839 8.60586 7.90935 8.60586C10.2103 8.60586 12.0906 6.72622 12.0906 4.42528C12.0906 2.12434 10.2103 0.243902 7.90935 0.243902ZM7.90935 1.63748C9.45708 1.63748 10.6965 2.87756 10.6965 4.42528C10.6965 5.97301 9.45708 7.21228 7.90935 7.21228C6.36162 7.21228 5.12168 5.97301 5.12168 4.42528C5.12168 2.87756 6.36162 1.63748 7.90935 1.63748ZM6.51526 10.0001C3.05274 10.0001 0.243902 12.8094 0.243902 16.2719V19.7561H1.63748V16.2719C1.63748 13.8715 3.33149 11.9083 5.6001 11.4846L4.44573 16.1026C4.41657 16.2193 4.4181 16.3415 4.4502 16.4574C4.48229 16.5733 4.54384 16.679 4.62886 16.7641L7.41653 19.5518C7.48124 19.6165 7.55807 19.6679 7.64263 19.7029C7.72719 19.7379 7.81782 19.7559 7.90935 19.7559C8.00087 19.7559 8.0915 19.7379 8.17606 19.7029C8.26062 19.6679 8.33745 19.6165 8.40217 19.5518L11.1893 16.7641C11.2743 16.679 11.3359 16.5733 11.368 16.4574C11.4001 16.3415 11.4016 16.2193 11.3725 16.1026L10.2181 11.4846C12.4867 11.9083 14.1812 13.8715 14.1812 16.2719V19.7561H15.5748V16.2719C15.5748 12.8094 12.7655 10.0001 9.30293 10.0001C9.19706 10.0001 9.09258 10.0242 8.99743 10.0707C8.90229 10.1171 8.81898 10.1846 8.75382 10.2681C8.68867 10.3515 8.64338 10.4487 8.6214 10.5523C8.59942 10.6558 8.60133 10.763 8.62697 10.8657L9.92487 16.0578L7.90935 18.0733L5.89332 16.0578L7.19173 10.8657C7.21739 10.763 7.21928 10.6557 7.19728 10.5521C7.17527 10.4485 7.12994 10.3514 7.06472 10.2679C6.99951 10.1844 6.91613 10.1169 6.82092 10.0705C6.72571 10.0241 6.62118 10 6.51526 10.0001Z" fill="#0D1033"/>
<path fill-rule="evenodd" clip-rule="evenodd" d="M3.4842 4.42528C3.4842 1.98965 5.47368 0 7.90935 0C10.345 0 12.3345 1.98965 12.3345 4.42528C12.3345 6.86098 10.345 8.84976 7.90935 8.84976C5.47374 8.84976 3.4842 6.86098 3.4842 4.42528ZM7.90935 0.487805C5.74311 0.487805 3.972 2.25904 3.972 4.42528C3.972 6.59147 5.74305 8.36196 7.90935 8.36196C10.0757 8.36196 11.8467 6.59147 11.8467 4.42528C11.8467 2.25904 10.0756 0.487805 7.90935 0.487805ZM7.90935 1.88138C6.49634 1.88138 5.36558 3.01225 5.36558 4.42528C5.36558 5.83823 6.49625 6.96838 7.90935 6.96838C9.32239 6.96838 10.4526 5.83829 10.4526 4.42528C10.4526 3.01219 9.3223 1.88138 7.90935 1.88138ZM4.87778 4.42528C4.87778 2.74287 6.2269 1.39358 7.90935 1.39358C9.59186 1.39358 10.9404 2.74293 10.9404 4.42528C10.9404 6.10773 9.59176 7.45618 7.90935 7.45618C6.227 7.45618 4.87778 6.10779 4.87778 4.42528ZM6.51516 9.75618C2.91796 9.75623 0 12.6748 0 16.2719ZM6.51526 10.244C3.18747 10.244 0.487805 12.9441 0.487805 16.2719V19.5122H1.39358V16.2719C1.39358 13.7522 3.1731 11.6898 5.55532 11.2449L5.92887 11.1751L4.68235 16.1618V16.1618C4.6634 16.2376 4.6644 16.317 4.68526 16.3924C4.70613 16.4677 4.74615 16.5365 4.80139 16.5917L7.58899 19.3793C7.63108 19.4214 7.68104 19.4548 7.73597 19.4776C7.79093 19.5003 7.84984 19.512 7.90935 19.512C7.96885 19.512 8.02776 19.5003 8.08272 19.4776C8.13765 19.4548 8.1876 19.4214 8.22969 19.3793L11.0168 16.5917V16.5917C11.072 16.5365 11.1121 16.4677 11.1329 16.3924C11.1538 16.317 11.1548 16.2376 11.1358 16.1618V16.1618L9.88932 11.1751L10.2629 11.2449C12.645 11.6897 14.4251 13.7522 14.4251 16.2719V19.5122H15.3309V16.2719C15.3309 12.9441 12.6308 10.244 9.30301 10.244M6.51516 9.75618C6.65803 9.75614 6.79922 9.78858 6.92779 9.85125C7.05636 9.91392 7.16891 10.0051 7.25691 10.1177C7.34492 10.2304 7.40614 10.3615 7.43586 10.5014C7.46556 10.6413 7.463 10.7861 7.42837 10.9248L6.16345 15.983L7.90933 17.7284L9.65476 15.983L8.39035 10.9249C8.35573 10.7862 8.35314 10.6415 8.38281 10.5016C8.41248 10.3618 8.47362 10.2306 8.56158 10.118C8.64953 10.0053 8.762 9.91417 8.89044 9.85147C9.01897 9.78873 9.16002 9.75622 9.30285 9.75618C12.9001 9.75618 15.8187 12.6747 15.8187 16.2719V20H13.9373V16.2719C13.9373 14.1263 12.5137 12.3496 10.5512 11.8113L11.6091 16.0435C11.6484 16.201 11.6464 16.366 11.603 16.5225C11.5597 16.679 11.4767 16.8216 11.3619 16.9365L8.57465 19.7242C8.48731 19.8116 8.38358 19.8809 8.2694 19.9282C8.15524 19.9755 8.03289 19.9998 7.90935 19.9998C7.7858 19.9998 7.66345 19.9755 7.54929 19.9282C7.43511 19.8809 7.3314 19.8116 7.24406 19.7242L4.45639 16.9366C4.34159 16.8217 4.25845 16.679 4.21513 16.5225C4.17181 16.366 4.16973 16.201 4.2091 16.0435L5.26703 11.8113C3.30455 12.3496 1.88138 14.1262 1.88138 16.2719V20H0V16.2719M6.51526 10.244C6.58419 10.244 6.65224 10.2596 6.71405 10.2897ZM9.30301 10.244C9.23412 10.244 9.16616 10.2597 9.10443 10.2898C9.04258 10.32 8.98842 10.3639 8.94607 10.4182C8.90371 10.4724 8.87428 10.5356 8.85999 10.6029C8.84571 10.6702 8.84694 10.7398 8.8636 10.8066V10.8066L10.195 16.1326L7.90938 18.4182L5.6232 16.1326L6.95509 10.8067V10.8067C6.97175 10.7399 6.973 10.6701 6.9587 10.6028C6.9444 10.5355 6.91496 10.4724 6.87253 10.4181C6.83011 10.3638 6.7759 10.3199 6.71405 10.2897" fill="#0D1033"/>
</svg>
