<svg width="62" height="12" viewBox="0 0 62 12" fill="none" xmlns="http://www.w3.org/2000/svg">
<g id="Group 6">
<g id="logo">
<path id="Fill-1" d="M10.886 8.94522C10.2722 8.94522 9.70215 8.84291 9.17597 8.62367C8.66441 8.41905 8.21131 8.11211 7.83129 7.74671C7.45128 7.36669 7.15896 6.92821 6.93972 6.40204C6.72048 5.89047 6.61816 5.32045 6.61816 4.69196C6.61816 4.06347 6.73509 3.46421 6.96895 2.92342C7.20281 2.36801 7.53897 1.9003 7.94822 1.49105C8.37209 1.0818 8.85442 0.760246 9.42444 0.52639C9.99447 0.292533 10.5937 0.175606 11.2514 0.175606C11.7338 0.175606 12.1869 0.248685 12.6254 0.380229C13.0492 0.52639 13.4146 0.716399 13.7362 0.950256C14.0577 1.19873 14.3062 1.49105 14.4816 1.82722C14.657 2.16339 14.7593 2.52879 14.7593 2.9088C14.7593 3.33267 14.6277 3.68345 14.3647 3.96116C14.1016 4.23886 13.78 4.38502 13.3854 4.38502C12.9908 4.38502 12.6546 4.25348 12.3915 3.97577C12.1284 3.69807 11.9969 3.34728 11.9969 2.92342C11.9969 2.80649 12.0115 2.68956 12.0407 2.57263C12.0699 2.45571 12.1138 2.29493 12.1576 2.09031C12.2161 1.9003 12.2453 1.75414 12.26 1.66644C12.2746 1.57874 12.2892 1.47643 12.2892 1.35951C12.2892 1.06718 12.2015 0.833328 12.0115 0.657935C11.8215 0.467927 11.5876 0.380229 11.3099 0.380229C11.0614 0.380229 10.8276 0.467927 10.6083 0.628704C10.3891 0.78948 10.2137 1.00872 10.0529 1.28642C9.89215 1.56413 9.77523 1.9003 9.67291 2.28031C9.58522 2.66033 9.52675 3.06958 9.52675 3.50806C9.52675 4.51657 9.77523 5.32045 10.2868 5.91971C10.7983 6.51896 11.4853 6.81128 12.3476 6.81128C12.83 6.81128 13.2685 6.72359 13.6777 6.53358C14.0723 6.34357 14.467 6.06587 14.8324 5.67123L15.037 5.77355C14.1016 7.89287 12.713 8.94522 10.886 8.94522Z" fill="#3C3F40"/>
<path id="Fill-3" d="M21.3688 2.68956C21.325 2.14877 21.2519 1.69567 21.1642 1.37412C21.0765 1.06718 20.9303 0.818711 20.7403 0.643318C20.5503 0.467926 20.3165 0.380229 20.0534 0.380229C19.7757 0.380229 19.5418 0.467926 19.3372 0.643318C19.1472 0.818711 19.001 1.05257 18.9279 1.37412C18.8402 1.7249 18.7672 2.178 18.7233 2.71879C18.6795 3.25959 18.6502 3.87346 18.6502 4.57503C18.6502 5.2766 18.6795 5.89047 18.7233 6.43127C18.7672 6.97206 18.8402 7.42516 18.9279 7.77594C19.001 8.08288 19.1472 8.33135 19.3372 8.50674C19.5272 8.68213 19.7757 8.76983 20.0534 8.76983C20.3165 8.76983 20.5503 8.68213 20.7549 8.50674C20.9449 8.33135 21.0911 8.09749 21.1642 7.77594C21.3542 7.04514 21.4565 5.99279 21.4565 4.57503C21.4565 3.85885 21.4273 3.23036 21.3688 2.68956ZM24.2774 6.29972C24.0435 6.8259 23.722 7.29361 23.3127 7.68824C22.9035 8.08288 22.4212 8.38981 21.8658 8.60905C21.3103 8.82829 20.7111 8.94522 20.068 8.94522C19.4103 8.94522 18.811 8.82829 18.2556 8.60905C17.7002 8.38981 17.2179 8.08288 16.8086 7.68824C16.3994 7.29361 16.0778 6.8259 15.8439 6.29972C15.6101 5.77354 15.4932 5.1889 15.4932 4.56041C15.4932 3.93193 15.6101 3.3619 15.8439 2.82111C16.0778 2.29493 16.3994 1.82722 16.8086 1.43259C17.2179 1.03795 17.7002 0.731015 18.2556 0.511775C18.811 0.292534 19.4103 0.175606 20.068 0.175606C20.7111 0.175606 21.3103 0.292534 21.8658 0.511775C22.4212 0.731015 22.9035 1.03795 23.3127 1.43259C23.722 1.82722 24.0435 2.29493 24.2774 2.82111C24.5113 3.34729 24.6282 3.93193 24.6282 4.56041C24.6282 5.1889 24.5113 5.75893 24.2774 6.29972Z" fill="#3C3F40"/>
<path id="Fill-5" d="M59.0762 1.46186C59.0762 2.26575 59.7339 2.92347 60.5378 2.92347C61.3417 2.92347 61.9994 2.26575 61.9994 1.46186C61.9994 0.657983 61.3417 0.000261854 60.5378 0.000261854C59.7339 -0.0143542 59.0762 0.643367 59.0762 1.46186Z" fill="#3C3F40"/>
<path id="Fill-5-Copy" d="M0.978516 2.35346C0.978516 3.15735 1.63624 3.81507 2.44012 3.81507C3.244 3.81507 3.90172 3.15735 3.90172 2.35346C3.90172 1.54958 3.244 0.891861 2.44012 0.891861C1.63624 0.891861 0.978516 1.54958 0.978516 2.35346Z" fill="#E83B67"/>
<path id="Fill-5-Copy-2" d="M0.978516 6.82597C0.978516 7.62985 1.63624 8.28757 2.44012 8.28757C3.244 8.28757 3.90172 7.62985 3.90172 6.82597C3.90172 6.02209 3.244 5.36436 2.44012 5.36436C1.63624 5.36436 0.978516 6.00747 0.978516 6.82597Z" fill="#E83B67"/>
<path id="Fill-8" d="M30.9259 7.469C30.6336 8.12672 30.2243 8.44828 29.7127 8.44828C29.4058 8.44828 29.1427 8.33135 28.8942 8.08288V1.52028C29.1427 1.3595 29.3327 1.25719 29.4643 1.19873C29.5958 1.14026 29.7274 1.11103 29.8589 1.11103C30.3266 1.11103 30.692 1.43258 30.9551 2.07569C31.2182 2.71879 31.3497 3.59576 31.3497 4.72119C31.3644 5.89047 31.2182 6.81128 30.9259 7.469ZM34.2437 2.5434C34.0976 2.06107 33.8783 1.63721 33.6152 1.28642C33.3375 0.93564 33.016 0.657935 32.6359 0.467926C32.2559 0.277918 31.8467 0.175606 31.3936 0.175606C30.9697 0.175606 30.5605 0.263301 30.1658 0.424078C29.7712 0.584854 29.3473 0.862558 28.8942 1.25719V0.555623V0.175606L24.8018 1.40335V1.47643V1.65183C24.9772 1.68106 25.1233 1.71029 25.2402 1.76875C25.401 1.84183 25.5472 1.95876 25.6641 2.10492C25.7372 2.19262 25.781 2.29493 25.8249 2.38263C25.8687 2.48494 25.898 2.60187 25.9126 2.73341C25.9418 2.86495 25.9564 3.02573 25.9564 3.20112C25.971 3.39113 25.971 3.59576 25.971 3.84423V9.106V9.79295C25.971 9.98296 25.971 10.1437 25.9564 10.2607C25.9564 10.3776 25.9418 10.4945 25.9272 10.5822C25.9126 10.6699 25.898 10.7576 25.8833 10.8453C25.8541 11.0499 25.781 11.2253 25.6641 11.3422C25.5472 11.503 25.401 11.6053 25.2402 11.6638C25.1672 11.693 25.0648 11.7223 24.9479 11.7369V12H29.9174V11.7661C29.7712 11.7515 29.6397 11.7223 29.552 11.693C29.3912 11.6492 29.2596 11.5615 29.1573 11.4446C29.0989 11.3715 29.055 11.313 29.0258 11.2253C28.9966 11.1522 28.9673 11.0499 28.9381 10.933C28.9089 10.8161 28.9089 10.6699 28.8942 10.4945C28.8942 10.3191 28.8796 10.1145 28.8796 9.86603V8.34596C29.172 8.5652 29.435 8.72598 29.6689 8.81368C29.9028 8.90137 30.1805 8.94522 30.502 8.94522C31.0574 8.94522 31.569 8.82829 32.0513 8.57982C32.5336 8.33135 32.9429 7.99518 33.2937 7.5567C33.6445 7.11822 33.9222 6.62127 34.1268 6.03663C34.3314 5.45199 34.4337 4.8235 34.4337 4.15116C34.463 3.56652 34.3899 3.02573 34.2437 2.5434Z" fill="#3C3F40"/>
<path id="Fill-10" d="M41.2149 7.469C40.9226 8.12672 40.5133 8.44828 40.0018 8.44828C39.6948 8.44828 39.4317 8.33135 39.1833 8.08288V1.52028C39.4317 1.3595 39.6218 1.25719 39.7533 1.19873C39.8848 1.14026 40.0164 1.11103 40.1479 1.11103C40.6156 1.11103 40.981 1.43258 41.2441 2.07569C41.5072 2.71879 41.6388 3.59576 41.6388 4.72119C41.6388 5.89047 41.4926 6.81128 41.2149 7.469ZM44.5181 2.5434C44.372 2.06107 44.1527 1.63721 43.8896 1.28642C43.6119 0.93564 43.2904 0.657935 42.9104 0.467926C42.5303 0.277918 42.1211 0.175606 41.668 0.175606C41.2441 0.175606 40.8349 0.263301 40.4403 0.424078C40.0456 0.584854 39.6218 0.862558 39.1687 1.25719V0.555623V0.175606L35.0762 1.40335V1.47643V1.65183C35.2516 1.68106 35.3977 1.71029 35.5147 1.76875C35.6754 1.84183 35.8216 1.95876 35.9385 2.10492C36.0116 2.19262 36.0554 2.29493 36.0993 2.38263C36.1431 2.48494 36.1724 2.60187 36.187 2.73341C36.2162 2.86495 36.2308 3.02573 36.2308 3.20112C36.2455 3.39113 36.2455 3.59576 36.2455 3.84423V9.106V9.79295C36.2455 9.98296 36.2455 10.1437 36.2308 10.2607C36.2308 10.3776 36.2162 10.4945 36.2016 10.5822C36.187 10.6699 36.1724 10.7576 36.1578 10.8453C36.1285 11.0499 36.0554 11.2253 35.9385 11.3422C35.8216 11.503 35.6754 11.6053 35.5147 11.6638C35.4416 11.693 35.3393 11.7223 35.2223 11.7369V12H40.1918V11.7661C40.0456 11.7515 39.9141 11.7223 39.8264 11.693C39.6656 11.6492 39.5341 11.5615 39.4317 11.4446C39.3733 11.3715 39.3294 11.313 39.3002 11.2253C39.271 11.1522 39.2417 11.0499 39.2125 10.933C39.1833 10.8161 39.1833 10.6699 39.1687 10.4945C39.1687 10.3191 39.154 10.1145 39.154 9.86603V8.34596C39.4464 8.5652 39.7095 8.72598 39.9433 8.81368C40.1772 8.90137 40.4549 8.94522 40.7764 8.94522C41.3318 8.94522 41.8434 8.82829 42.3257 8.57982C42.808 8.33135 43.2173 7.99518 43.5681 7.5567C43.9189 7.11822 44.1966 6.62127 44.4012 6.03663C44.6058 5.45199 44.7081 4.8235 44.7081 4.15116C44.7374 3.56652 44.6643 3.02573 44.5181 2.5434Z" fill="#3C3F40"/>
<path id="Fill-12" d="M59.0901 8.41907C58.9293 8.37523 58.8123 8.28753 58.7247 8.15599C58.6662 8.08291 58.6223 8.02444 58.6077 7.93675C58.5785 7.86367 58.5493 7.76135 58.5346 7.64443C58.5054 7.5275 58.5054 7.38134 58.4908 7.20595C58.4908 7.03055 58.4762 6.81131 58.4762 6.56284V5.51049V4.51659V0.161018L54.3398 1.40338V1.65185C54.5445 1.68109 54.7052 1.72493 54.8222 1.76878C54.9829 1.84186 55.1291 1.95879 55.246 2.10495C55.3191 2.19265 55.363 2.28034 55.4068 2.38266C55.4507 2.48497 55.4799 2.6019 55.4945 2.73344C55.5091 2.86498 55.5384 3.02576 55.5384 3.20115C55.553 3.37654 55.553 3.59579 55.553 3.84426V6.56284C55.553 7.08902 55.5384 7.45442 55.5091 7.67366C55.4799 7.8929 55.4214 8.05367 55.3337 8.1706C55.2314 8.28753 55.1145 8.37523 54.9537 8.43369C54.8368 8.46292 54.6906 8.49216 54.486 8.52139V8.74063H59.4993V8.50677C59.3239 8.47754 59.1777 8.46292 59.0901 8.41907Z" fill="#3C3F40"/>
<path id="Fill-14" d="M49.8387 0.380229C50.1748 0.380229 50.4233 0.511774 50.5987 0.789479C50.7741 1.06718 50.891 1.50566 50.9349 2.10492C50.9495 2.22185 50.9495 2.32416 50.9641 2.41186C50.9641 2.49955 50.9787 2.60187 50.9787 2.70418C50.9787 2.80649 50.9933 2.93804 50.9933 3.06958V3.39113H48.4501C48.4647 2.44109 48.5817 1.71029 48.8009 1.19873C49.0202 0.657935 49.3709 0.380229 49.8387 0.380229ZM53.8288 5.40814C53.6681 5.67123 53.5219 5.86124 53.4196 5.97817C53.3027 6.10971 53.1565 6.22664 52.9665 6.35819C52.4842 6.70897 51.8849 6.86975 51.1979 6.86975C49.3709 6.86975 48.4355 5.83201 48.4355 3.75653H53.6388H53.9165C53.8434 3.21574 53.6973 2.71879 53.478 2.28031C53.2588 1.84183 52.9665 1.46182 52.6011 1.14026C52.2503 0.833328 51.841 0.584854 51.3733 0.424078C50.9056 0.263301 50.3941 0.175606 49.8533 0.175606C49.2248 0.175606 48.6401 0.292533 48.0847 0.52639C47.5439 0.760246 47.0616 1.0818 46.6524 1.49105C46.2431 1.9003 45.9216 2.36801 45.6877 2.9088C45.4538 3.4496 45.3369 4.03424 45.3369 4.66273C45.3369 5.2766 45.4538 5.84663 45.6731 6.35819C45.8923 6.88436 46.1993 7.33746 46.5939 7.71748C46.9885 8.09749 47.4562 8.40443 47.9824 8.62367C48.5232 8.84291 49.0932 8.94522 49.7071 8.94522C50.3648 8.94522 50.9495 8.81368 51.4903 8.56521C52.0311 8.31673 52.4988 7.95133 52.8788 7.48362C52.9957 7.32284 53.1126 7.17668 53.2003 7.04514C53.288 6.9136 53.3757 6.76743 53.4634 6.63589C53.5365 6.48973 53.6242 6.32895 53.6973 6.13895C53.7704 5.94894 53.8581 5.7297 53.9604 5.46661L53.8288 5.40814Z" fill="#3C3F40"/>
</g>
<g id="Group">
<g id="logo_00000169525968594219568650000013256619184519993268_">
<path id="Fill-1_00000011016469208023276880000004608259732116492433_" d="M10.886 8.94522C10.2722 8.94522 9.70215 8.84291 9.17597 8.62367C8.66441 8.41905 8.21131 8.11211 7.83129 7.74671C7.45128 7.36669 7.15896 6.92821 6.93972 6.40204C6.72048 5.89047 6.61816 5.32045 6.61816 4.69196C6.61816 4.06347 6.73509 3.46421 6.96895 2.92342C7.20281 2.36801 7.53897 1.9003 7.94822 1.49105C8.37209 1.0818 8.85442 0.760246 9.42444 0.52639C9.99447 0.292533 10.5937 0.175606 11.2514 0.175606C11.7338 0.175606 12.1869 0.248685 12.6254 0.380229C13.0492 0.52639 13.4146 0.716399 13.7362 0.950256C14.0577 1.19873 14.3062 1.49105 14.4816 1.82722C14.657 2.16339 14.7593 2.52879 14.7593 2.9088C14.7593 3.33267 14.6277 3.68345 14.3647 3.96116C14.1016 4.23886 13.78 4.38502 13.3854 4.38502C12.9908 4.38502 12.6546 4.25348 12.3915 3.97577C12.1284 3.69807 11.9969 3.34728 11.9969 2.92342C11.9969 2.80649 12.0115 2.68956 12.0407 2.57263C12.0699 2.45571 12.1138 2.29493 12.1576 2.09031C12.2161 1.9003 12.2453 1.75414 12.26 1.66644C12.2746 1.57874 12.2892 1.47643 12.2892 1.35951C12.2892 1.06718 12.2015 0.833328 12.0115 0.657935C11.8215 0.467927 11.5876 0.380229 11.3099 0.380229C11.0614 0.380229 10.8276 0.467927 10.6083 0.628704C10.3891 0.78948 10.2137 1.00872 10.0529 1.28642C9.89215 1.56413 9.77523 1.9003 9.67291 2.28031C9.58522 2.66033 9.52675 3.06958 9.52675 3.50806C9.52675 4.51657 9.77523 5.32045 10.2868 5.91971C10.7983 6.51896 11.4853 6.81128 12.3476 6.81128C12.83 6.81128 13.2685 6.72359 13.6777 6.53358C14.0723 6.34357 14.467 6.06587 14.8324 5.67123L15.037 5.77355C14.1016 7.89287 12.713 8.94522 10.886 8.94522Z" fill="#3C3F40"/>
<path id="Fill-3_00000011742743377546024350000002478270211733710756_" d="M21.3688 2.68956C21.325 2.14877 21.2519 1.69567 21.1642 1.37412C21.0765 1.06718 20.9303 0.818711 20.7403 0.643318C20.5503 0.467926 20.3165 0.380229 20.0534 0.380229C19.7757 0.380229 19.5418 0.467926 19.3372 0.643318C19.1472 0.818711 19.001 1.05257 18.9279 1.37412C18.8402 1.7249 18.7672 2.178 18.7233 2.71879C18.6795 3.25959 18.6502 3.87346 18.6502 4.57503C18.6502 5.2766 18.6795 5.89047 18.7233 6.43127C18.7672 6.97206 18.8402 7.42516 18.9279 7.77594C19.001 8.08288 19.1472 8.33135 19.3372 8.50674C19.5272 8.68213 19.7757 8.76983 20.0534 8.76983C20.3165 8.76983 20.5503 8.68213 20.7549 8.50674C20.9449 8.33135 21.0911 8.09749 21.1642 7.77594C21.3542 7.04514 21.4565 5.99279 21.4565 4.57503C21.4565 3.85885 21.4273 3.23036 21.3688 2.68956ZM24.2774 6.29972C24.0435 6.8259 23.722 7.29361 23.3127 7.68824C22.9035 8.08288 22.4212 8.38981 21.8658 8.60905C21.3103 8.82829 20.7111 8.94522 20.068 8.94522C19.4103 8.94522 18.811 8.82829 18.2556 8.60905C17.7002 8.38981 17.2179 8.08288 16.8086 7.68824C16.3994 7.29361 16.0778 6.8259 15.8439 6.29972C15.6101 5.77354 15.4932 5.1889 15.4932 4.56041C15.4932 3.93193 15.6101 3.3619 15.8439 2.82111C16.0778 2.29493 16.3994 1.82722 16.8086 1.43259C17.2179 1.03795 17.7002 0.731015 18.2556 0.511775C18.811 0.292534 19.4103 0.175606 20.068 0.175606C20.7111 0.175606 21.3103 0.292534 21.8658 0.511775C22.4212 0.731015 22.9035 1.03795 23.3127 1.43259C23.722 1.82722 24.0435 2.29493 24.2774 2.82111C24.5113 3.34729 24.6282 3.93193 24.6282 4.56041C24.6282 5.1889 24.5113 5.75893 24.2774 6.29972Z" fill="#3C3F40"/>
<path id="Fill-5_00000042696154182986708640000006184571545047555742_" d="M59.0762 1.46186C59.0762 2.26575 59.7339 2.92347 60.5378 2.92347C61.3417 2.92347 61.9994 2.26575 61.9994 1.46186C61.9994 0.657983 61.3417 0.000261854 60.5378 0.000261854C59.7339 -0.0143542 59.0762 0.643367 59.0762 1.46186Z" fill="#3C3F40"/>
<path id="Fill-5-Copy_00000016064115279616205030000000465230881663261100_" d="M0.978516 2.35346C0.978516 3.15735 1.63624 3.81507 2.44012 3.81507C3.244 3.81507 3.90172 3.15735 3.90172 2.35346C3.90172 1.54958 3.244 0.891861 2.44012 0.891861C1.63624 0.891861 0.978516 1.54958 0.978516 2.35346Z" fill="#E83B67"/>
<path id="Fill-5-Copy-2_00000134231448144615100240000015161598083555143583_" d="M0.978516 6.82597C0.978516 7.62985 1.63624 8.28757 2.44012 8.28757C3.244 8.28757 3.90172 7.62985 3.90172 6.82597C3.90172 6.02209 3.244 5.36436 2.44012 5.36436C1.63624 5.36436 0.978516 6.00747 0.978516 6.82597Z" fill="#E83B67"/>
<path id="Fill-8_00000140713630128390992890000011380071841172234421_" d="M30.9259 7.469C30.6336 8.12672 30.2243 8.44828 29.7127 8.44828C29.4058 8.44828 29.1427 8.33135 28.8942 8.08288V1.52028C29.1427 1.3595 29.3327 1.25719 29.4643 1.19873C29.5958 1.14026 29.7274 1.11103 29.8589 1.11103C30.3266 1.11103 30.692 1.43258 30.9551 2.07569C31.2182 2.71879 31.3497 3.59576 31.3497 4.72119C31.3644 5.89047 31.2182 6.81128 30.9259 7.469ZM34.2437 2.5434C34.0976 2.06107 33.8783 1.63721 33.6152 1.28642C33.3375 0.93564 33.016 0.657935 32.6359 0.467926C32.2559 0.277918 31.8467 0.175606 31.3936 0.175606C30.9697 0.175606 30.5605 0.263301 30.1658 0.424078C29.7712 0.584854 29.3473 0.862558 28.8942 1.25719V0.555623V0.175606L24.8018 1.40335V1.47643V1.65183C24.9772 1.68106 25.1233 1.71029 25.2402 1.76875C25.401 1.84183 25.5472 1.95876 25.6641 2.10492C25.7372 2.19262 25.781 2.29493 25.8249 2.38263C25.8687 2.48494 25.898 2.60187 25.9126 2.73341C25.9418 2.86495 25.9564 3.02573 25.9564 3.20112C25.971 3.39113 25.971 3.59576 25.971 3.84423V9.106V9.79295C25.971 9.98296 25.971 10.1437 25.9564 10.2607C25.9564 10.3776 25.9418 10.4945 25.9272 10.5822C25.9126 10.6699 25.898 10.7576 25.8833 10.8453C25.8541 11.0499 25.781 11.2253 25.6641 11.3422C25.5472 11.503 25.401 11.6053 25.2402 11.6638C25.1672 11.693 25.0648 11.7223 24.9479 11.7369V12H29.9174V11.7661C29.7712 11.7515 29.6397 11.7223 29.552 11.693C29.3912 11.6492 29.2596 11.5615 29.1573 11.4446C29.0989 11.3715 29.055 11.313 29.0258 11.2253C28.9966 11.1522 28.9673 11.0499 28.9381 10.933C28.9089 10.8161 28.9089 10.6699 28.8942 10.4945C28.8942 10.3191 28.8796 10.1145 28.8796 9.86603V8.34596C29.172 8.5652 29.435 8.72598 29.6689 8.81368C29.9028 8.90137 30.1805 8.94522 30.502 8.94522C31.0574 8.94522 31.569 8.82829 32.0513 8.57982C32.5336 8.33135 32.9429 7.99518 33.2937 7.5567C33.6445 7.11822 33.9222 6.62127 34.1268 6.03663C34.3314 5.45199 34.4337 4.8235 34.4337 4.15116C34.463 3.56652 34.3899 3.02573 34.2437 2.5434Z" fill="#3C3F40"/>
<path id="Fill-10_00000037677155868093952660000012501669901649881250_" d="M41.2149 7.469C40.9226 8.12672 40.5133 8.44828 40.0018 8.44828C39.6948 8.44828 39.4317 8.33135 39.1833 8.08288V1.52028C39.4317 1.3595 39.6218 1.25719 39.7533 1.19873C39.8848 1.14026 40.0164 1.11103 40.1479 1.11103C40.6156 1.11103 40.981 1.43258 41.2441 2.07569C41.5072 2.71879 41.6388 3.59576 41.6388 4.72119C41.6388 5.89047 41.4926 6.81128 41.2149 7.469ZM44.5181 2.5434C44.372 2.06107 44.1527 1.63721 43.8896 1.28642C43.6119 0.93564 43.2904 0.657935 42.9104 0.467926C42.5303 0.277918 42.1211 0.175606 41.668 0.175606C41.2441 0.175606 40.8349 0.263301 40.4403 0.424078C40.0456 0.584854 39.6218 0.862558 39.1687 1.25719V0.555623V0.175606L35.0762 1.40335V1.47643V1.65183C35.2516 1.68106 35.3977 1.71029 35.5147 1.76875C35.6754 1.84183 35.8216 1.95876 35.9385 2.10492C36.0116 2.19262 36.0554 2.29493 36.0993 2.38263C36.1431 2.48494 36.1724 2.60187 36.187 2.73341C36.2162 2.86495 36.2308 3.02573 36.2308 3.20112C36.2455 3.39113 36.2455 3.59576 36.2455 3.84423V9.106V9.79295C36.2455 9.98296 36.2455 10.1437 36.2308 10.2607C36.2308 10.3776 36.2162 10.4945 36.2016 10.5822C36.187 10.6699 36.1724 10.7576 36.1578 10.8453C36.1285 11.0499 36.0554 11.2253 35.9385 11.3422C35.8216 11.503 35.6754 11.6053 35.5147 11.6638C35.4416 11.693 35.3393 11.7223 35.2223 11.7369V12H40.1918V11.7661C40.0456 11.7515 39.9141 11.7223 39.8264 11.693C39.6656 11.6492 39.5341 11.5615 39.4317 11.4446C39.3733 11.3715 39.3294 11.313 39.3002 11.2253C39.271 11.1522 39.2417 11.0499 39.2125 10.933C39.1833 10.8161 39.1833 10.6699 39.1687 10.4945C39.1687 10.3191 39.154 10.1145 39.154 9.86603V8.34596C39.4464 8.5652 39.7095 8.72598 39.9433 8.81368C40.1772 8.90137 40.4549 8.94522 40.7764 8.94522C41.3318 8.94522 41.8434 8.82829 42.3257 8.57982C42.808 8.33135 43.2173 7.99518 43.5681 7.5567C43.9189 7.11822 44.1966 6.62127 44.4012 6.03663C44.6058 5.45199 44.7081 4.8235 44.7081 4.15116C44.7374 3.56652 44.6643 3.02573 44.5181 2.5434Z" fill="#3C3F40"/>
<path id="Fill-12_00000136412264453705938140000002532692604296946304_" d="M59.0901 8.41907C58.9293 8.37523 58.8123 8.28753 58.7247 8.15599C58.6662 8.08291 58.6223 8.02444 58.6077 7.93675C58.5785 7.86367 58.5493 7.76135 58.5346 7.64443C58.5054 7.5275 58.5054 7.38134 58.4908 7.20595C58.4908 7.03055 58.4762 6.81131 58.4762 6.56284V5.51049V4.51659V0.161018L54.3398 1.40338V1.65185C54.5445 1.68109 54.7052 1.72493 54.8222 1.76878C54.9829 1.84186 55.1291 1.95879 55.246 2.10495C55.3191 2.19265 55.363 2.28034 55.4068 2.38266C55.4507 2.48497 55.4799 2.6019 55.4945 2.73344C55.5091 2.86498 55.5384 3.02576 55.5384 3.20115C55.553 3.37654 55.553 3.59579 55.553 3.84426V6.56284C55.553 7.08902 55.5384 7.45442 55.5091 7.67366C55.4799 7.8929 55.4214 8.05367 55.3337 8.1706C55.2314 8.28753 55.1145 8.37523 54.9537 8.43369C54.8368 8.46292 54.6906 8.49216 54.486 8.52139V8.74063H59.4993V8.50677C59.3239 8.47754 59.1777 8.46292 59.0901 8.41907Z" fill="#3C3F40"/>
<path id="Fill-14_00000172422039198002788510000012137286114582103733_" d="M49.8387 0.380229C50.1748 0.380229 50.4233 0.511774 50.5987 0.789479C50.7741 1.06718 50.891 1.50566 50.9349 2.10492C50.9495 2.22185 50.9495 2.32416 50.9641 2.41186C50.9641 2.49955 50.9787 2.60187 50.9787 2.70418C50.9787 2.80649 50.9933 2.93804 50.9933 3.06958V3.39113H48.4501C48.4647 2.44109 48.5817 1.71029 48.8009 1.19873C49.0202 0.657935 49.3709 0.380229 49.8387 0.380229ZM53.8288 5.40814C53.6681 5.67123 53.5219 5.86124 53.4196 5.97817C53.3027 6.10971 53.1565 6.22664 52.9665 6.35819C52.4842 6.70897 51.8849 6.86975 51.1979 6.86975C49.3709 6.86975 48.4355 5.83201 48.4355 3.75653H53.6388H53.9165C53.8434 3.21574 53.6973 2.71879 53.478 2.28031C53.2588 1.84183 52.9665 1.46182 52.6011 1.14026C52.2503 0.833328 51.841 0.584854 51.3733 0.424078C50.9056 0.263301 50.3941 0.175606 49.8533 0.175606C49.2248 0.175606 48.6401 0.292533 48.0847 0.52639C47.5439 0.760246 47.0616 1.0818 46.6524 1.49105C46.2431 1.9003 45.9216 2.36801 45.6877 2.9088C45.4538 3.4496 45.3369 4.03424 45.3369 4.66273C45.3369 5.2766 45.4538 5.84663 45.6731 6.35819C45.8923 6.88436 46.1993 7.33746 46.5939 7.71748C46.9885 8.09749 47.4562 8.40443 47.9824 8.62367C48.5232 8.84291 49.0932 8.94522 49.7071 8.94522C50.3648 8.94522 50.9495 8.81368 51.4903 8.56521C52.0311 8.31673 52.4988 7.95133 52.8788 7.48362C52.9957 7.32284 53.1126 7.17668 53.2003 7.04514C53.288 6.9136 53.3757 6.76743 53.4634 6.63589C53.5365 6.48973 53.6242 6.32895 53.6973 6.13895C53.7704 5.94894 53.8581 5.7297 53.9604 5.46661L53.8288 5.40814Z" fill="#3C3F40"/>
</g>
</g>
</g>
</svg>
