<svg width="72" height="14" viewBox="0 0 72 14" fill="none" xmlns="http://www.w3.org/2000/svg">
<g id="Frame" clip-path="url(#clip0_2049_2507)">
<g id="PHASE-2-final">
<g id="Livespace-Logo">
<path id="Livespace" d="M7.27463 11.6276V10.0314H2.75447V1.73754H2.6517C1.73625 1.73754 0.994141 2.47965 0.994141 3.39509V11.6276H7.27463ZM10.5566 11.6276V3.69124H10.2372C9.47436 3.69124 8.85594 4.30967 8.85594 5.07254V11.6276H10.5566ZM24.2364 11.6873C25.6089 11.6873 26.7426 11.195 27.5184 10.3447L26.6084 9.37501C26.0266 9.97173 25.2359 10.2999 24.3707 10.2999C23.1176 10.2999 22.1777 9.53911 21.9092 8.31583H27.9062C28.1151 5.45157 26.9813 3.63157 24.1917 3.63157C21.8346 3.64649 20.1787 5.27255 20.1787 7.67435C20.1787 10.0612 21.7899 11.6873 24.2364 11.6873ZM26.4144 7.06272H21.8794C22.0733 5.79468 22.9535 5.00403 24.2066 5.00403C25.5044 5.00403 26.3548 5.77977 26.4144 7.06272ZM32.0977 11.6873C33.6939 11.6873 35.141 10.9563 35.141 9.33025C35.1558 6.45108 30.934 7.24173 30.934 5.77977C30.934 5.21288 31.4263 4.98911 32.0977 4.98911C32.7988 4.98911 33.679 5.25764 34.3801 5.69026L35.0067 4.42223C34.2906 3.91501 33.2314 3.61665 32.2319 3.61665C30.7103 3.61665 29.308 4.30288 29.308 5.91403C29.3004 7.37946 30.39 7.85694 31.4562 8.19156L31.6013 8.23638C32.5665 8.53037 33.4701 8.73804 33.4701 9.49435C33.4701 10.0911 32.9032 10.3447 32.1722 10.3447C31.307 10.3447 30.2031 9.97173 29.5168 9.36009L28.9052 10.5834C29.6959 11.2994 30.934 11.6873 32.0977 11.6873ZM38.498 13.9692V10.2552C39.0798 11.1801 40.0346 11.6873 41.3026 11.6873C43.5702 11.6873 45.062 10.0612 45.062 7.68927C45.062 5.27255 43.5254 3.63157 41.2728 3.63157C40.0346 3.63157 39.0798 4.13878 38.498 5.0637C38.498 4.30571 37.8836 3.69124 37.1256 3.69124H36.7825V13.9692H38.498ZM40.9148 10.2253C39.4975 10.2253 38.498 9.16616 38.498 7.6296C38.498 6.1378 39.4975 5.0637 40.9148 5.0637C42.332 5.0637 43.3315 6.15272 43.3315 7.6296C43.3315 9.15124 42.332 10.2253 40.9148 10.2253ZM59.3987 11.6873C60.9054 11.6873 62.0541 11.1503 62.7702 10.2104L61.8154 9.25566C61.2784 9.88222 60.4728 10.2104 59.4733 10.2104C58.1009 10.2104 57.1163 9.18107 57.1163 7.67435C57.1163 6.16763 58.1009 5.13829 59.4733 5.13829C60.4281 5.12337 61.1889 5.46649 61.7409 6.03337L62.6807 4.92944C61.9497 4.09403 60.8309 3.63157 59.3987 3.63157C57.0417 3.63157 55.4007 5.27255 55.4007 7.67435C55.4007 10.0612 57.0417 11.6873 59.3987 11.6873ZM67.3196 11.6873C68.6921 11.6873 69.8259 11.195 70.6016 10.3447L69.6916 9.37501C69.1098 9.97173 68.3192 10.2999 67.4539 10.2999C66.2008 10.2999 65.261 9.53911 64.9924 8.31583H70.9895C71.1983 5.45157 70.0646 3.63157 67.2749 3.63157C64.9178 3.64649 63.2619 5.27255 63.2619 7.67435C63.2619 10.0612 64.8731 11.6873 67.3196 11.6873ZM69.4977 7.06272H64.9626C65.1565 5.79468 66.0367 5.00403 67.2898 5.00403C68.5877 5.00403 69.438 5.77977 69.4977 7.06272Z" fill="#24293B"/>
<path id="Combined-Shape" d="M49.7668 3.63157C47.5142 3.63157 45.9777 5.27256 45.9777 7.68928C45.9777 10.0612 47.4695 11.6873 49.737 11.6873C51.005 11.6873 51.9598 11.1801 52.5416 10.2552L52.545 10.3532C52.5953 11.0654 53.189 11.6276 53.9141 11.6276H54.1787V3.69124H52.5416V5.0637C51.9598 4.13879 51.005 3.63157 49.7668 3.63157ZM50.1249 5.0637C51.5421 5.0637 52.5416 6.1378 52.5416 7.6296C52.5416 9.16616 51.5421 10.2253 50.1249 10.2253C48.7077 10.2253 47.7082 9.15124 47.7082 7.6296C47.7082 6.15272 48.7077 5.0637 50.1249 5.0637Z" fill="#24293B"/>
<path id="Combined-Shape_2" d="M19.7315 3.69124L15.7832 11.6276L11.8398 3.69124H13.7222L15.783 8.07383L17.8471 3.69124H19.7315Z" fill="#24293B"/>
<path id="Path-4" fill-rule="evenodd" clip-rule="evenodd" d="M19.1118 4.93889L20.4509 2.30319C18.722 2.04764 17.5119 2.48546 16.8206 3.61665C16.2819 4.49814 15.9377 5.98387 15.7881 8.07383L16.8206 5.88452C16.9676 5.59412 17.1797 5.36288 17.4569 5.1908C17.947 4.88655 18.4986 4.80258 19.1118 4.93889Z" fill="#4FD465"/>
</g>
</g>
</g>
<defs>
<clipPath id="clip0_2049_2507">
<rect width="71.9091" height="14" fill="white" transform="translate(0.0908203)"/>
</clipPath>
</defs>
</svg>
