<svg width="88" height="16" viewBox="0 0 88 16" fill="none" xmlns="http://www.w3.org/2000/svg">
<g id="svg855" clip-path="url(#clip0_2049_2520)">
<g id="g853">
<g id="g847">
<path id="path841" d="M1.91531 12.6464C1.59144 12.6471 1.27318 12.5618 0.993052 12.3993C0.712924 12.2367 0.480967 12.0027 0.320877 11.7212C0.163238 11.4416 0.0846191 11.1245 0.0934422 10.8036C0.102265 10.4828 0.198198 10.1704 0.370964 9.89997L3.65444 4.74379C3.8225 4.46668 4.06109 4.23914 4.34586 4.08441C4.63063 3.92968 4.95137 3.85331 5.27531 3.8631C5.59901 3.87086 5.91483 3.96447 6.19046 4.13438C6.46609 4.30428 6.69164 4.54436 6.84401 4.83005C7.15009 5.40884 7.11183 6.10519 6.74523 6.64849L3.46383 11.8047C3.29743 12.064 3.06826 12.2771 2.79757 12.4242C2.52687 12.5714 2.22341 12.6478 1.91531 12.6464Z" fill="#F62B54"/>
<path id="path843" d="M7.54774 12.6463C6.88548 12.6463 6.27609 12.2922 5.95609 11.7231C5.7988 11.4443 5.72036 11.128 5.72919 10.808C5.73801 10.488 5.83376 10.1765 6.00617 9.90679L9.28339 4.76244C9.44897 4.48143 9.68672 4.24983 9.97197 4.09167C10.2572 3.93351 10.5796 3.85454 10.9057 3.86296C11.5735 3.87757 12.1787 4.25113 12.4848 4.83548C12.7888 5.41983 12.7443 6.12035 12.3665 6.66226L9.09 11.8066C8.92411 12.0648 8.69587 12.2771 8.42633 12.4238C8.15679 12.5706 7.85463 12.6471 7.54774 12.6463Z" fill="#FFCC00"/>
<path id="ellipse845" d="M13.0537 12.6894C13.9873 12.6894 14.7442 11.9484 14.7442 11.0344C14.7442 10.1204 13.9873 9.37948 13.0537 9.37948C12.1201 9.37948 11.3633 10.1204 11.3633 11.0344C11.3633 11.9484 12.1201 12.6894 13.0537 12.6894Z" fill="#00CA72"/>
</g>
<path id="path849" d="M86.4907 9.47548C87.0013 9.47548 87.3067 9.83861 87.3067 10.4334V12.4717H88.0003V10.3868C88.0003 9.37531 87.5237 8.78887 86.6277 8.78887C86.2771 8.78887 85.7206 8.88487 85.3888 9.52974C85.3117 9.33953 85.1845 9.17376 85.0207 9.05005C84.857 8.92634 84.6627 8.8493 84.4587 8.82713C84.3303 8.80361 84.1994 8.7959 84.0691 8.80418C83.7839 8.82713 83.2761 9.00452 83.0862 9.40661V8.86609H82.3919V12.4717H83.0862V10.5259C83.0862 9.76905 83.5815 9.47548 84.0775 9.47548C84.5422 9.47548 84.8476 9.83096 84.8476 10.4257V12.4717H85.5377V10.5259C85.5377 9.92348 85.8994 9.46852 86.4907 9.47548ZM79.8437 11.8692C80.161 11.8762 80.4671 11.7496 80.689 11.52C80.9116 11.2904 81.0298 10.9781 81.018 10.6574C81.018 9.93113 80.4837 9.47548 79.8437 9.47548C79.203 9.47548 78.6695 9.93113 78.6695 10.6574C78.657 10.9774 78.7752 11.289 78.9964 11.5179C79.2177 11.7475 79.5224 11.8748 79.8382 11.8692H79.8437ZM79.8437 12.5454C78.8295 12.5454 77.9829 11.7962 77.9829 10.6532C77.9829 9.51026 78.8295 8.7847 79.8437 8.7847C80.858 8.7847 81.7116 9.51026 81.7116 10.6532C81.7116 11.7962 80.8531 12.5489 79.8389 12.5489L79.8437 12.5454ZM74.4107 10.6532L74.4037 10.6574C74.4037 9.51444 75.2726 8.78887 76.2938 8.7847C76.5504 8.77973 76.8051 8.82869 77.0415 8.92839C77.278 9.02809 77.4908 9.17632 77.6664 9.36348L77.1404 9.81148C77.0287 9.70179 76.8964 9.61532 76.7511 9.55705C76.6058 9.49878 76.4504 9.46988 76.2938 9.472C75.6538 9.472 75.0973 9.92765 75.0973 10.6532C75.0973 11.1437 75.3888 11.5854 75.8361 11.7732C76.2834 11.961 76.7982 11.8567 77.1404 11.5103L77.674 11.9583C77.4979 12.1474 77.2841 12.2973 77.0463 12.3985C76.8085 12.4996 76.5522 12.5497 76.2938 12.5454C75.2803 12.5454 74.4107 11.7962 74.4107 10.6532ZM72.1895 11.7795C72.1888 11.7164 72.2004 11.6539 72.2239 11.5954C72.2473 11.5368 72.2821 11.4835 72.3261 11.4384C72.3702 11.3933 72.4227 11.3574 72.4807 11.3326C72.5386 11.3078 72.6009 11.2946 72.6639 11.2939C72.727 11.2946 72.7892 11.3078 72.8472 11.3326C72.9051 11.3574 72.9577 11.3933 73.0017 11.4384C73.0458 11.4835 73.0805 11.5368 73.104 11.5954C73.1274 11.6539 73.1391 11.7164 73.1384 11.7795C73.1322 11.9016 73.0796 12.0167 72.9915 12.1014C72.9033 12.186 72.7862 12.2339 72.6639 12.2351C72.5417 12.2339 72.4245 12.186 72.3364 12.1014C72.2482 12.0167 72.1957 11.9016 72.1895 11.7795Z" fill="#333333"/>
<path id="path851" fill-rule="evenodd" clip-rule="evenodd" d="M74.0873 4.28243H71.617L69.8855 8.74644L68.1631 4.28243H65.6928L68.696 11.3363L66.8281 16H69.2803L74.0873 4.28243ZM59.064 8.20591C59.064 9.33287 60.049 10.0744 61.0167 10.0744C61.9676 10.0744 62.9019 9.38435 62.9019 8.20522C62.9019 7.02609 61.9676 6.3353 61.0167 6.3353C60.049 6.3353 59.064 7.07826 59.064 8.20591ZM62.9019 12.1447V11.2522C62.401 12.0104 61.2323 12.297 60.6327 12.297C58.6473 12.297 56.6612 10.7318 56.6612 8.20522C56.6612 5.6793 58.6466 4.11409 60.6327 4.11409C61.1328 4.11409 62.3015 4.28104 62.9019 5.15757V4.28522H65.2045V12.1461L62.9019 12.1447ZM56.0059 12.1447H53.7033V11.168C53.3186 11.8915 52.3857 12.313 51.4174 12.313C49.4146 12.313 47.6455 10.7137 47.6455 8.23722C47.6455 5.71409 49.4146 4.1127 51.4174 4.1127C52.3843 4.1127 53.32 4.51617 53.7033 5.24035V0H56.0059V12.1447ZM53.6532 8.18783C53.6532 7.00939 52.8024 6.31861 51.8514 6.31861C50.8664 6.31861 50.0483 7.05948 50.0483 8.18783C50.0483 9.35235 50.8664 10.0897 51.8508 10.0897C52.8198 10.0911 53.6532 9.31617 53.6532 8.18783ZM41.9523 7.9847C41.9523 6.78957 42.5701 6.38539 43.3874 6.38539C44.1714 6.38539 44.7391 6.90713 44.7391 7.95061V12.1433H47.0584V7.44626C47.0584 5.20765 45.9565 4.1127 44.2041 4.1127C43.2866 4.1127 42.369 4.63444 41.9516 5.42609V4.28243H39.6337V12.1433H41.9523V7.9847ZM34.9241 12.2783C32.7217 12.2783 30.8845 10.6623 30.8845 8.18713C30.8845 5.71061 32.7196 4.11061 34.9241 4.11061C37.1287 4.11061 38.9798 5.71061 38.9798 8.18713C38.9798 10.6637 37.1266 12.2783 34.9241 12.2783ZM34.9241 9.98956C35.8911 9.98956 36.6932 9.28139 36.6932 8.18783C36.6932 7.12696 35.8918 6.40278 34.9241 6.40278C34.6912 6.39914 34.4599 6.44296 34.2443 6.53158C34.0288 6.6202 33.8336 6.75177 33.6706 6.91826C33.5066 7.08565 33.3779 7.28429 33.2923 7.50239C33.2066 7.72049 33.1656 7.95358 33.1718 8.18783C33.1725 9.28278 33.9732 9.98956 34.9241 9.98956ZM26.7266 6.38609C27.4104 6.38609 28.0114 6.92522 28.0114 7.9513V12.1447H30.3141V7.68C30.3141 5.30644 29.16 4.1113 27.3102 4.1113C26.7607 4.1113 25.7255 4.27826 24.9742 5.50817C24.5401 4.59896 23.7061 4.1273 22.4734 4.1273C22.0454 4.12513 21.6258 4.24626 21.2649 4.47621C20.9039 4.70616 20.6168 5.0352 20.4379 5.424V4.28313H18.1172V12.144H20.4358V7.9847C20.4358 6.78957 21.0869 6.38539 21.7874 6.38539C22.4553 6.38539 23.0549 6.90713 23.0723 7.90052V12.144H25.3916V7.9847C25.3916 6.84174 25.9927 6.38609 26.7266 6.38609Z" fill="#333333"/>
</g>
</g>
<defs>
<clipPath id="clip0_2049_2520">
<rect width="87.9074" height="16" fill="white" transform="translate(0.0927734)"/>
</clipPath>
</defs>
</svg>
