<svg width="35" height="24" viewBox="0 0 35 24" fill="none" xmlns="http://www.w3.org/2000/svg">
<g id="Layer_1" clip-path="url(#clip0_2049_2416)">
<path id="Vector" d="M14.8742 2.6175C15.9805 1.46625 17.518 0.75 19.2205 0.75C21.4855 0.75 23.458 2.01375 24.5117 3.885C25.4267 3.47625 26.4392 3.2475 27.5005 3.2475C31.5842 3.2475 34.8917 6.585 34.8917 10.7062C34.8917 14.8275 31.5805 18.165 27.5005 18.165C27.0017 18.165 26.5142 18.1162 26.0455 18.0187C25.1192 19.6687 23.353 20.7863 21.328 20.7863C20.4805 20.7863 19.678 20.5912 18.9655 20.2425C18.028 22.4513 15.838 24 13.2917 24C10.7455 24 8.37547 22.32 7.50547 19.965C7.12672 20.0438 6.73297 20.0887 6.32797 20.0887C3.16672 20.0887 0.605469 17.5013 0.605469 14.3063C0.605469 12.165 1.75672 10.2975 3.46672 9.29625C3.11422 8.48625 2.91922 7.59 2.91922 6.6525C2.91922 2.9775 5.90047 0 9.57922 0C11.7392 0 13.6592 1.0275 14.8742 2.6175Z" fill="#0D9DDA"/>
<g id="Group">
<path id="Vector_2" d="M5.57365 12.4462C5.55115 12.5025 5.58115 12.5137 5.58865 12.525C5.6524 12.57 5.7199 12.6037 5.78365 12.645C6.1324 12.8287 6.4624 12.885 6.8074 12.885C7.5124 12.885 7.9474 12.51 7.9474 11.91V11.8987C7.9474 11.3437 7.4524 11.1412 6.99115 10.995L6.93115 10.9762C6.5824 10.8637 6.2824 10.7662 6.2824 10.5337V10.5225C6.2824 10.3275 6.45865 10.1812 6.7324 10.1812C7.03615 10.1812 7.39615 10.2825 7.6249 10.41C7.6249 10.41 7.6924 10.455 7.71865 10.3875C7.73365 10.35 7.8499 10.035 7.86115 10.0012C7.87615 9.96375 7.8499 9.9375 7.8274 9.9225C7.56115 9.76125 7.1974 9.6525 6.81865 9.6525H6.7474C6.1024 9.6525 5.6524 10.0425 5.6524 10.5975V10.6087C5.6524 11.1975 6.1474 11.385 6.6124 11.52L6.6874 11.5425C7.0249 11.6475 7.3174 11.7375 7.3174 11.9737V11.985C7.3174 12.2025 7.12615 12.3637 6.8224 12.3637C6.7024 12.3637 6.32365 12.3637 5.9149 12.1012C5.86615 12.0712 5.83615 12.0525 5.79865 12.03C5.7799 12.0187 5.7274 11.9962 5.7049 12.06L5.56615 12.4462H5.57365Z" fill="white"/>
<path id="Vector_3" d="M15.8676 12.4462C15.8451 12.5025 15.8751 12.5137 15.8826 12.525C15.9463 12.57 16.0138 12.6037 16.0776 12.645C16.4263 12.8287 16.7563 12.885 17.1013 12.885C17.8063 12.885 18.2413 12.51 18.2413 11.91V11.8987C18.2413 11.3437 17.7501 11.1412 17.2851 10.995L17.2251 10.9762C16.8763 10.8637 16.5763 10.7662 16.5763 10.5337V10.5225C16.5763 10.3275 16.7526 10.1812 17.0263 10.1812C17.3301 10.1812 17.6901 10.2825 17.9188 10.41C17.9188 10.41 17.9863 10.455 18.0126 10.3875C18.0276 10.35 18.1438 10.035 18.1551 10.0012C18.1701 9.96375 18.1438 9.9375 18.1213 9.9225C17.8551 9.76125 17.4913 9.6525 17.1126 9.6525H17.0413C16.3963 9.6525 15.9463 10.0425 15.9463 10.5975V10.6087C15.9463 11.1975 16.4413 11.385 16.9063 11.52L16.9813 11.5425C17.3188 11.6475 17.6113 11.7375 17.6113 11.9737V11.985C17.6113 12.2025 17.4201 12.3637 17.1163 12.3637C16.9963 12.3637 16.6176 12.3637 16.2088 12.1012C16.1601 12.0712 16.1301 12.0525 16.0926 12.03C16.0813 12.0225 16.0213 12 15.9988 12.06L15.8601 12.4462H15.8676Z" fill="white"/>
<path id="Vector_4" d="M23.4838 10.635C23.4276 10.44 23.3376 10.2675 23.2176 10.125C23.0976 9.9825 22.9476 9.86625 22.7676 9.78375C22.5876 9.70125 22.3776 9.65625 22.1376 9.65625C21.8976 9.65625 21.6876 9.6975 21.5076 9.78375C21.3276 9.86625 21.1776 9.9825 21.0576 10.125C20.9376 10.2675 20.8476 10.44 20.7913 10.635C20.7351 10.83 20.7051 11.04 20.7051 11.265C20.7051 11.49 20.7351 11.7037 20.7913 11.895C20.8476 12.09 20.9376 12.2625 21.0576 12.405C21.1776 12.5475 21.3313 12.6638 21.5076 12.7463C21.6876 12.8288 21.8976 12.87 22.1376 12.87C22.3776 12.87 22.5876 12.8288 22.7676 12.7463C22.9476 12.6638 23.0976 12.5513 23.2176 12.405C23.3376 12.2625 23.4276 12.09 23.4838 11.895C23.5401 11.7 23.5701 11.49 23.5701 11.265C23.5701 11.04 23.5401 10.8263 23.4838 10.635ZM22.8951 11.265C22.8951 11.6063 22.8313 11.8725 22.7076 12.0637C22.5838 12.2512 22.3963 12.3412 22.1376 12.3412C21.8788 12.3412 21.6913 12.2512 21.5676 12.0637C21.4438 11.8725 21.3801 11.6063 21.3801 11.265C21.3801 10.9238 21.4438 10.6575 21.5638 10.47C21.6876 10.2825 21.8713 10.1925 22.1338 10.1925C22.3963 10.1925 22.5801 10.2825 22.7038 10.47C22.8276 10.6575 22.8913 10.9238 22.8913 11.265" fill="white"/>
<path id="Vector_5" fill-rule="evenodd" clip-rule="evenodd" d="M28.3063 12.2513C28.2876 12.195 28.2313 12.2175 28.2313 12.2175C28.1451 12.2513 28.0551 12.2813 27.9576 12.2963C27.8601 12.3113 27.7513 12.3188 27.6351 12.3188C27.3501 12.3188 27.1251 12.2325 26.9638 12.0675C26.8026 11.8988 26.7088 11.6288 26.7126 11.265C26.7126 10.9313 26.7951 10.6838 26.9376 10.4925C27.0801 10.3013 27.2976 10.2075 27.5901 10.2075C27.8338 10.2075 28.0176 10.2338 28.2126 10.2975C28.2126 10.2975 28.2576 10.3163 28.2801 10.2563C28.3326 10.1138 28.3701 10.0125 28.4263 9.855C28.4413 9.81 28.4038 9.79125 28.3888 9.7875C28.3138 9.7575 28.1338 9.70875 27.9988 9.69C27.8713 9.67125 27.7251 9.66 27.5601 9.66C27.3126 9.66 27.0951 9.70125 26.9038 9.7875C26.7163 9.87 26.5588 9.98625 26.4313 10.1288C26.3038 10.2713 26.2101 10.4438 26.1463 10.6388C26.0826 10.8338 26.0488 11.0438 26.0488 11.2725C26.0488 11.76 26.1801 12.1538 26.4388 12.4425C26.6976 12.7313 27.0876 12.8775 27.5976 12.8775C27.8976 12.8775 28.2051 12.8175 28.4301 12.7275C28.4301 12.7275 28.4713 12.7088 28.4526 12.6563L28.3101 12.2588L28.3063 12.2513Z" fill="white"/>
<path id="Vector_6" fill-rule="evenodd" clip-rule="evenodd" d="M31.3095 10.5262C31.2607 10.3387 31.137 10.1475 31.0545 10.0612C30.927 9.9225 30.8032 9.82875 30.6757 9.7725C30.5145 9.70125 30.3195 9.65625 30.1057 9.65625C29.8582 9.65625 29.6332 9.6975 29.4495 9.78375C29.2657 9.87 29.112 9.98625 28.992 10.1325C28.872 10.2788 28.782 10.4512 28.722 10.65C28.6657 10.845 28.6357 11.0587 28.6357 11.2837C28.6357 11.5087 28.6657 11.7263 28.7257 11.9175C28.7857 12.1125 28.8832 12.2813 29.0145 12.4238C29.1457 12.5663 29.3145 12.6787 29.5132 12.7537C29.712 12.8325 29.9557 12.87 30.2332 12.87C30.807 12.87 31.1107 12.7388 31.2345 12.6713C31.257 12.66 31.2757 12.6375 31.2532 12.5775L31.122 12.2137C31.1032 12.1612 31.047 12.18 31.047 12.18C30.9045 12.2325 30.702 12.3262 30.2295 12.3262C29.922 12.3262 29.6932 12.2362 29.5507 12.0937C29.4045 11.9475 29.3332 11.7337 29.3182 11.4337H31.3057C31.3057 11.4337 31.3582 11.4338 31.362 11.385C31.362 11.3625 31.4295 10.9762 31.302 10.53L31.3095 10.5262ZM29.3332 10.9425C29.3595 10.755 29.412 10.5975 29.4945 10.4738C29.6145 10.2863 29.802 10.185 30.0645 10.185C30.327 10.185 30.4957 10.2863 30.6195 10.4738C30.702 10.5975 30.7357 10.7588 30.7507 10.9425H29.3332Z" fill="white"/>
<path id="Vector_7" fill-rule="evenodd" clip-rule="evenodd" d="M15.3945 10.5262C15.3457 10.3387 15.222 10.1475 15.1395 10.0612C15.012 9.9225 14.8882 9.82875 14.7607 9.7725C14.5995 9.70125 14.4045 9.65625 14.1907 9.65625C13.9432 9.65625 13.7182 9.6975 13.5345 9.78375C13.3507 9.87 13.197 9.98625 13.077 10.1325C12.957 10.2788 12.867 10.4512 12.807 10.65C12.7507 10.845 12.7207 11.0587 12.7207 11.2837C12.7207 11.5087 12.7507 11.7263 12.8107 11.9175C12.8707 12.1125 12.9682 12.2813 13.0995 12.4238C13.2307 12.5663 13.3995 12.6787 13.5982 12.7537C13.797 12.8325 14.0407 12.87 14.3182 12.87C14.892 12.87 15.1957 12.7388 15.3195 12.6713C15.342 12.66 15.3607 12.6375 15.3345 12.5775L15.2032 12.2137C15.1845 12.1612 15.1282 12.18 15.1282 12.18C14.9857 12.2325 14.7832 12.3262 14.3107 12.3262C14.0032 12.3262 13.7745 12.2362 13.632 12.0937C13.4857 11.9475 13.4145 11.7337 13.3995 11.4337H15.387C15.387 11.4337 15.4395 11.4338 15.4432 11.385C15.4432 11.3625 15.5107 10.9762 15.3832 10.53L15.3945 10.5262ZM13.4182 10.9425C13.4445 10.755 13.497 10.5975 13.5795 10.4738C13.7032 10.2863 13.887 10.185 14.1495 10.185C14.412 10.185 14.5807 10.2863 14.7082 10.4738C14.7907 10.5975 14.8245 10.7588 14.8395 10.9425H13.422H13.4182Z" fill="white"/>
<path id="Vector_8" d="M9.91231 10.845C9.82981 10.8375 9.72856 10.8375 9.60106 10.8375C9.43231 10.8375 9.2673 10.86 9.1098 10.9012C8.95605 10.9425 8.81356 11.0062 8.69356 11.0925C8.57356 11.1787 8.47605 11.2875 8.4048 11.4188C8.33355 11.55 8.2998 11.7037 8.2998 11.8762C8.2998 12.0487 8.32981 12.2063 8.38981 12.33C8.44981 12.4538 8.53605 12.5587 8.64855 12.6412C8.7573 12.72 8.89605 12.78 9.05355 12.8175C9.21105 12.8512 9.3873 12.87 9.57855 12.87C9.78105 12.87 9.9873 12.8512 10.1823 12.8212C10.3773 12.7875 10.6173 12.7387 10.6811 12.7237C10.7486 12.7087 10.8198 12.69 10.8198 12.69C10.8686 12.6787 10.8648 12.6262 10.8648 12.6262V10.8075C10.8648 10.41 10.7561 10.1137 10.5461 9.93C10.3361 9.74625 10.0323 9.65625 9.63481 9.65625C9.48481 9.65625 9.24481 9.675 9.10231 9.705C9.10231 9.705 8.6673 9.7875 8.49105 9.93C8.49105 9.93 8.45356 9.9525 8.47231 10.0088L8.6148 10.3875C8.63355 10.4363 8.67855 10.4213 8.67855 10.4213C8.67855 10.4213 8.69355 10.4137 8.7123 10.4062C9.0948 10.2 9.57855 10.2037 9.57855 10.2037C9.7923 10.2037 9.95731 10.2487 10.0698 10.3312C10.1786 10.4137 10.2348 10.5412 10.2348 10.8037V10.8863C10.0661 10.86 9.90856 10.8487 9.90856 10.8487L9.91231 10.845ZM9.12105 12.24C9.0423 12.1762 9.03106 12.1613 9.00481 12.1238C8.96731 12.0638 8.94481 11.9775 8.94481 11.865C8.94481 11.6887 9.00105 11.565 9.12105 11.4788C9.12105 11.4788 9.29356 11.3287 9.69856 11.3362C9.98356 11.3362 10.2386 11.3813 10.2386 11.3813V12.285C10.2386 12.285 9.98731 12.3375 9.70231 12.3563C9.29731 12.3788 9.1173 12.24 9.12105 12.24Z" fill="white"/>
<path id="Vector_9" fill-rule="evenodd" clip-rule="evenodd" d="M25.94 9.82125C25.955 9.77625 25.925 9.75375 25.91 9.75C25.8763 9.73875 25.7075 9.70125 25.5763 9.69375C25.325 9.67875 25.1863 9.72 25.0625 9.77625C24.9388 9.8325 24.8038 9.9225 24.725 10.0237V9.78C24.725 9.74625 24.7025 9.72 24.6688 9.72H24.1588C24.125 9.72 24.1025 9.74625 24.1025 9.78V12.7462C24.1025 12.78 24.1288 12.8062 24.1625 12.8062H24.6838C24.7175 12.8062 24.7438 12.78 24.7438 12.7462V11.265C24.7438 11.0662 24.7663 10.8675 24.8113 10.7437C24.8525 10.62 24.9125 10.5225 24.9838 10.4512C25.055 10.38 25.1375 10.3312 25.2275 10.305C25.3213 10.275 25.4225 10.2675 25.4938 10.2675C25.5988 10.2675 25.7113 10.2937 25.7113 10.2937C25.7488 10.2975 25.7713 10.275 25.7825 10.2412C25.8163 10.1512 25.9138 9.8775 25.9325 9.825L25.94 9.82125Z" fill="white"/>
<path id="Vector_10" fill-rule="evenodd" clip-rule="evenodd" d="M21.0391 8.44876C20.9754 8.43001 20.9191 8.41501 20.8441 8.40376C20.7691 8.38876 20.6754 8.38126 20.5741 8.38126C20.2141 8.38126 19.9329 8.48251 19.7341 8.68501C19.5354 8.88376 19.4004 9.18751 19.3366 9.58501L19.3141 9.72001H18.8641C18.8641 9.72001 18.8079 9.72001 18.7966 9.77626L18.7216 10.1888C18.7179 10.23 18.7329 10.2525 18.7854 10.2525H19.2241L18.7779 12.7388C18.7441 12.9375 18.7029 13.1025 18.6579 13.23C18.6129 13.3538 18.5716 13.4438 18.5191 13.5113C18.4666 13.575 18.4216 13.6238 18.3391 13.65C18.2716 13.6725 18.1929 13.6838 18.1066 13.6838C18.0579 13.6838 17.9941 13.6763 17.9454 13.665C17.8966 13.6575 17.8741 13.6463 17.8366 13.6313C17.8366 13.6313 17.7841 13.6125 17.7654 13.665C17.7504 13.7063 17.6304 14.0288 17.6191 14.07C17.6041 14.1075 17.6266 14.1413 17.6491 14.1488C17.7091 14.1713 17.7504 14.1825 17.8291 14.2013C17.9379 14.2275 18.0316 14.2275 18.1216 14.2275C18.3054 14.2275 18.4704 14.2013 18.6091 14.1525C18.7479 14.1038 18.8679 14.0138 18.9766 13.8975C19.0929 13.77 19.1641 13.635 19.2354 13.4513C19.3029 13.2713 19.3629 13.0463 19.4116 12.7838L19.8579 10.2488H20.5141C20.5141 10.2488 20.5704 10.2488 20.5816 10.1925L20.6566 9.78001C20.6604 9.73876 20.6454 9.71626 20.5929 9.71626H19.9591C19.9591 9.71626 19.9929 9.48001 20.0641 9.26626C20.0941 9.17626 20.1541 9.10501 20.2029 9.05251C20.2516 9.00376 20.3079 8.97001 20.3679 8.94751C20.4316 8.92876 20.5029 8.91751 20.5816 8.91751C20.6416 8.91751 20.7016 8.92501 20.7466 8.93251C20.8066 8.94376 20.8329 8.95126 20.8479 8.95876C20.9116 8.97751 20.9229 8.95876 20.9341 8.92876L21.0879 8.51251C21.1029 8.46751 21.0654 8.44876 21.0504 8.44501L21.0391 8.44876Z" fill="white"/>
<path id="Vector_11" fill-rule="evenodd" clip-rule="evenodd" d="M12.1627 12.7463C12.1627 12.78 12.1402 12.8063 12.1065 12.8063H11.5777C11.544 12.8063 11.5215 12.78 11.5215 12.7463V8.50501C11.5215 8.47126 11.544 8.44501 11.5777 8.44501H12.1065C12.1402 8.44501 12.1627 8.47126 12.1627 8.50501V12.7463Z" fill="white"/>
</g>
</g>
<defs>
<clipPath id="clip0_2049_2416">
<rect width="34.5" height="24" fill="white" transform="translate(0.5)"/>
</clipPath>
</defs>
</svg>
