<svg width="14" height="13" viewBox="0 0 14 13" fill="none" xmlns="http://www.w3.org/2000/svg">
<path d="M10.25 1.5H10V1.25C10 1.05109 9.92098 0.860322 9.78033 0.71967C9.63968 0.579018 9.44891 0.5 9.25 0.5C9.05109 0.5 8.86032 0.579018 8.71967 0.71967C8.57902 0.860322 8.5 1.05109 8.5 1.25V1.5H5.5V1.25C5.5 1.05109 5.42098 0.860322 5.28033 0.71967C5.13968 0.579018 4.94891 0.5 4.75 0.5C4.55109 0.5 4.36032 0.579018 4.21967 0.71967C4.07902 0.860322 4 1.05109 4 1.25V1.5H3.75C3.02065 1.5 2.32118 1.78973 1.80546 2.30546C1.28973 2.82118 1 3.52065 1 4.25L1 9.75C1 10.4793 1.28973 11.1788 1.80546 11.6945C2.32118 12.2103 3.02065 12.5 3.75 12.5H10.25C10.9793 12.5 11.6788 12.2103 12.1945 11.6945C12.7103 11.1788 13 10.4793 13 9.75V4.25C13 3.52065 12.7103 2.82118 12.1945 2.30546C11.6788 1.78973 10.9793 1.5 10.25 1.5ZM10.25 11H3.75C3.41848 11 3.10054 10.8683 2.86612 10.6339C2.6317 10.3995 2.5 10.0815 2.5 9.75V4.5H11.5V9.75C11.5 10.0815 11.3683 10.3995 11.1339 10.6339C10.8995 10.8683 10.5815 11 10.25 11Z" fill="#75778A"/>
</svg>