<svg width="8" height="12" viewBox="0 0 8 12" fill="none" xmlns="http://www.w3.org/2000/svg">
<g id="Vector">
<path d="M1.25 2.5C1.94036 2.5 2.5 1.94036 2.5 1.25C2.5 0.559644 1.94036 0 1.25 0C0.559644 0 0 0.559644 0 1.25C0 1.94036 0.559644 2.5 1.25 2.5Z" fill="#75778A"/>
<path d="M6.46875 2.5C7.15911 2.5 7.71875 1.94036 7.71875 1.25C7.71875 0.559644 7.15911 0 6.46875 0C5.7784 0 5.21875 0.559644 5.21875 1.25C5.21875 1.94036 5.7784 2.5 6.46875 2.5Z" fill="#75778A"/>
<path d="M1.25 7.25C1.94036 7.25 2.5 6.69036 2.5 6C2.5 5.30965 1.94036 4.75 1.25 4.75C0.559644 4.75 0 5.30965 0 6C0 6.69036 0.559644 7.25 1.25 7.25Z" fill="#75778A"/>
<path d="M6.46875 7.25C7.15911 7.25 7.71875 6.69036 7.71875 6C7.71875 5.30965 7.15911 4.75 6.46875 4.75C5.7784 4.75 5.21875 5.30965 5.21875 6C5.21875 6.69036 5.7784 7.25 6.46875 7.25Z" fill="#75778A"/>
<path d="M1.25 12C1.94036 12 2.5 11.4404 2.5 10.75C2.5 10.0596 1.94036 9.5 1.25 9.5C0.559644 9.5 0 10.0596 0 10.75C0 11.4404 0.559644 12 1.25 12Z" fill="#75778A"/>
<path d="M6.46875 12C7.15911 12 7.71875 11.4404 7.71875 10.75C7.71875 10.0596 7.15911 9.5 6.46875 9.5C5.7784 9.5 5.21875 10.0596 5.21875 10.75C5.21875 11.4404 5.7784 12 6.46875 12Z" fill="#75778A"/>
</g>
</svg>
