<svg width="14" height="15" viewBox="0 0 14 15" fill="none" xmlns="http://www.w3.org/2000/svg">
<path d="M7 0.5C5.61553 0.5 4.26215 0.910543 3.11101 1.67971C1.95987 2.44888 1.06266 3.54213 0.532846 4.82122C0.00303302 6.1003 -0.13559 7.50776 0.134506 8.86563C0.404603 10.2235 1.07129 11.4708 2.05026 12.4497C3.02922 13.4287 4.2765 14.0954 5.63437 14.3655C6.99224 14.6356 8.3997 14.497 9.67879 13.9672C10.9579 13.4373 12.0511 12.5401 12.8203 11.389C13.5895 10.2378 14 8.88447 14 7.5C13.998 5.6441 13.2599 3.86479 11.9475 2.55247C10.6352 1.24015 8.8559 0.502007 7 0.5ZM7 12.75C5.96165 12.75 4.94662 12.4421 4.08326 11.8652C3.2199 11.2883 2.547 10.4684 2.14964 9.50909C1.75228 8.54977 1.64831 7.49417 1.85088 6.47577C2.05345 5.45737 2.55347 4.52191 3.28769 3.78769C4.02192 3.05346 4.95738 2.55345 5.97578 2.35088C6.99418 2.1483 8.04978 2.25227 9.00909 2.64963C9.9684 3.04699 10.7883 3.7199 11.3652 4.58326C11.9421 5.44661 12.25 6.46165 12.25 7.5C12.2485 8.89191 11.6948 10.2264 10.7106 11.2106C9.72637 12.1948 8.39191 12.7485 7 12.75Z" fill="#75778A"/>
<path d="M6.125 6.94875L4.725 7.82375C4.62757 7.88474 4.54312 7.96434 4.47647 8.05798C4.40981 8.15162 4.36226 8.25748 4.33653 8.36951C4.3108 8.48153 4.30739 8.59753 4.3265 8.71088C4.34561 8.82422 4.38687 8.93269 4.44792 9.03008C4.50891 9.12751 4.5885 9.21196 4.68215 9.27861C4.77579 9.34527 4.88165 9.39282 4.99368 9.41855C5.1057 9.44428 5.2217 9.44769 5.33504 9.42858C5.44839 9.40946 5.55685 9.36821 5.65425 9.30716L7.32783 8.25716C7.49575 8.15194 7.63409 8.00568 7.72983 7.83218C7.82556 7.65868 7.87552 7.46366 7.875 7.2655V5.03366C7.875 4.8016 7.78281 4.57904 7.61872 4.41495C7.45462 4.25085 7.23206 4.15867 7 4.15867C6.76793 4.15867 6.54537 4.25085 6.38128 4.41495C6.21719 4.57904 6.125 4.8016 6.125 5.03366V6.94875Z" fill="#75778A"/>
</svg>
