<svg width="12" height="13" viewBox="0 0 12 13" fill="none" xmlns="http://www.w3.org/2000/svg">
<path d="M6 0.5C4.81331 0.5 3.65328 0.851894 2.66658 1.51118C1.67989 2.17047 0.910851 3.10754 0.456725 4.2039C0.00259972 5.30026 -0.11622 6.50665 0.115291 7.67054C0.346802 8.83443 0.918247 9.90352 1.75736 10.7426C2.59648 11.5818 3.66557 12.1532 4.82946 12.3847C5.99335 12.6162 7.19975 12.4974 8.2961 12.0433C9.39246 11.5891 10.3295 10.8201 10.9888 9.83342C11.6481 8.84673 12 7.68669 12 6.5C11.9983 4.90923 11.3656 3.3841 10.2407 2.25926C9.1159 1.13441 7.59077 0.501721 6 0.5ZM10.4705 6H8.7315C8.61812 4.69745 8.22792 3.43412 7.587 2.2945C8.36175 2.5875 9.04077 3.08835 9.54946 3.74205C10.0581 4.39575 10.3768 5.17701 10.4705 6ZM4.8425 7.5H7.1575C6.96062 8.54738 6.56792 9.54821 6 10.45C5.43199 9.54825 5.03929 8.5474 4.8425 7.5ZM4.7765 6C4.91653 4.77189 5.33499 3.59193 6 2.55C6.66509 3.59189 7.08356 4.77187 7.2235 6H4.7765ZM4.413 2.2945C3.77208 3.43412 3.38189 4.69745 3.2685 6H1.5295C1.62318 5.17701 1.94186 4.39575 2.45055 3.74205C2.95924 3.08835 3.63825 2.5875 4.413 2.2945ZM1.616 7.5H3.3205C3.48874 8.62555 3.85885 9.71147 4.413 10.7055C3.71907 10.4425 3.10075 10.0124 2.61285 9.45322C2.12495 8.89406 1.78255 8.22316 1.616 7.5ZM7.587 10.7055C8.14138 9.71157 8.51149 8.62561 8.6795 7.5H10.384C10.2175 8.22316 9.87506 8.89406 9.38716 9.45322C8.89926 10.0124 8.28093 10.4425 7.587 10.7055Z" fill="#75778A"/>
</svg>
