<svg width="14" height="14" viewBox="0 0 14 14" fill="none" xmlns="http://www.w3.org/2000/svg">
<g id="Vector">
<path d="M7 0C5.61553 0 4.26215 0.410543 3.11101 1.17971C1.95987 1.94888 1.06266 3.04213 0.532846 4.32122C0.00303302 5.6003 -0.13559 7.00776 0.134506 8.36563C0.404603 9.7235 1.07129 10.9708 2.05026 11.9497C3.02922 12.9287 4.2765 13.5954 5.63437 13.8655C6.99224 14.1356 8.3997 13.997 9.67879 13.4672C10.9579 12.9373 12.0511 12.0401 12.8203 10.889C13.5895 9.73785 14 8.38447 14 7C13.998 5.1441 13.2599 3.36479 11.9475 2.05247C10.6352 0.74015 8.8559 0.0020073 7 0ZM7 12.25C5.96165 12.25 4.94662 11.9421 4.08326 11.3652C3.2199 10.7883 2.547 9.9684 2.14964 9.00909C1.75228 8.04977 1.64831 6.99417 1.85088 5.97577C2.05345 4.95737 2.55347 4.02191 3.28769 3.28769C4.02192 2.55346 4.95738 2.05345 5.97578 1.85088C6.99418 1.6483 8.04978 1.75227 9.00909 2.14963C9.9684 2.54699 10.7883 3.2199 11.3652 4.08326C11.9421 4.94661 12.25 5.96165 12.25 7C12.2485 8.39191 11.6948 9.72637 10.7106 10.7106C9.72637 11.6948 8.39191 12.2485 7 12.25Z" fill="#75778A"/>
<path d="M7.00291 11.0833C7.48616 11.0833 7.87791 10.6916 7.87791 10.2083C7.87791 9.72508 7.48616 9.33333 7.00291 9.33333C6.51967 9.33333 6.12792 9.72508 6.12792 10.2083C6.12792 10.6916 6.51967 11.0833 7.00291 11.0833Z" fill="#75778A"/>
<path d="M7.44158 2.90908C7.08477 2.84511 6.71827 2.86017 6.3679 2.95319C6.01754 3.04621 5.69183 3.21494 5.41374 3.44748C5.13565 3.68001 4.91194 3.97071 4.75837 4.29908C4.6048 4.62744 4.52511 4.9855 4.52492 5.348C4.52492 5.58006 4.6171 5.80262 4.7812 5.96672C4.94529 6.13081 5.16785 6.223 5.39992 6.223C5.63198 6.223 5.85454 6.13081 6.01863 5.96672C6.18273 5.80262 6.27491 5.58006 6.27491 5.348C6.27544 5.21963 6.30991 5.09368 6.37482 4.98292C6.43972 4.87217 6.53276 4.78055 6.6445 4.71734C6.75623 4.65414 6.88269 4.62161 7.01106 4.62305C7.13942 4.62449 7.26512 4.65984 7.37542 4.72553C7.48571 4.79121 7.57667 4.8849 7.63908 4.99708C7.70149 5.10926 7.73313 5.23595 7.73079 5.3643C7.72844 5.49265 7.6922 5.6181 7.62574 5.72792C7.55927 5.83775 7.46495 5.92805 7.35233 5.98966C6.99138 6.14084 6.68464 6.39772 6.47245 6.72652C6.26026 7.05533 6.15255 7.44066 6.1635 7.83183C6.1635 8.0639 6.25569 8.28646 6.41978 8.45055C6.58387 8.61464 6.80643 8.70683 7.0385 8.70683C7.27056 8.70683 7.49312 8.61464 7.65722 8.45055C7.82131 8.28646 7.9135 8.0639 7.9135 7.83183C7.91296 7.78925 7.91608 7.74671 7.92283 7.70466C8.00453 7.6301 8.09719 7.56852 8.19758 7.52208C8.64569 7.27509 9.00635 6.89543 9.23004 6.43525C9.45373 5.97507 9.52949 5.45693 9.44691 4.95197C9.36432 4.44701 9.12745 3.97999 8.76881 3.61505C8.41017 3.2501 7.94736 3.00512 7.44391 2.91375L7.44158 2.90908Z" fill="#75778A"/>
</g>
</svg>
