<svg width="16" height="17" viewBox="0 0 16 17" fill="none" xmlns="http://www.w3.org/2000/svg">
<path id="Vector" d="M15.7189 14.8814L12.6438 11.8064C13.5758 10.5864 14.0869 9.10662 14.0871 7.54511C14.0871 5.66334 13.3542 3.89408 12.0234 2.56349C10.6928 1.23289 8.92375 0.5 7.04175 0.5C5.15999 0.5 3.39072 1.23289 2.06013 2.56349C-0.68671 5.31056 -0.68671 9.78013 2.06013 12.5267C3.39072 13.8576 5.15999 14.5905 7.04175 14.5905C8.60326 14.5903 10.083 14.0791 11.303 13.1472L14.3781 16.2222C14.563 16.4074 14.8059 16.5 15.0485 16.5C15.2911 16.5 15.5339 16.4074 15.7189 16.2222C16.0892 15.8521 16.0892 15.2516 15.7189 14.8814ZM3.40091 11.186C1.39344 9.17849 1.39367 5.91196 3.40091 3.90427C4.37339 2.93201 5.66648 2.39635 7.04175 2.39635C8.41726 2.39635 9.71012 2.93201 10.6826 3.90427C11.6551 4.87675 12.1907 6.16984 12.1907 7.54511C12.1907 8.92061 11.6551 10.2135 10.6826 11.186C9.71012 12.1584 8.41726 12.6941 7.04175 12.6941C5.66648 12.6941 4.37339 12.1584 3.40091 11.186Z" fill="#75778A"/>
</svg>
