<svg width="7" height="7" viewBox="0 0 7 7" fill="none" xmlns="http://www.w3.org/2000/svg">
<path id="Vector" opacity="0.5" d="M5.65766 0.674805C5.55256 0.674771 5.44849 0.695447 5.35138 0.735651C5.25428 0.775855 5.16605 0.834799 5.09173 0.909115C5.01742 0.983431 4.95847 1.07166 4.91827 1.16877C4.87806 1.26587 4.85739 1.36995 4.85742 1.47505L4.85705 4.93358C4.85703 5.00428 4.82894 5.07209 4.77894 5.12209C4.72894 5.17209 4.66113 5.20019 4.59042 5.2002L1.13227 5.2002C0.920084 5.20015 0.716568 5.28439 0.566494 5.43439C0.41642 5.5844 0.332081 5.78787 0.332031 6.00006C0.331981 6.21225 0.416224 6.41576 0.566228 6.56584C0.716231 6.71591 0.919708 6.80025 1.13189 6.8003H4.5908C4.83595 6.80031 5.07869 6.75204 5.30518 6.65823C5.53167 6.56442 5.73746 6.42692 5.9108 6.25358C6.08415 6.08023 6.22165 5.87444 6.31545 5.64795C6.40926 5.42147 6.45754 5.17872 6.45752 4.93357L6.45753 1.47467C6.45749 1.26254 6.37321 1.05911 6.22322 0.909115C6.07322 0.759119 5.86979 0.674837 5.65766 0.674805Z" fill="#75778A"/>
</svg>
