<svg width="11" height="12" viewBox="0 0 11 12" fill="none" xmlns="http://www.w3.org/2000/svg">
<path id="Vector" d="M9.51458 3.85495L4.96323 0.515457C4.56696 0.224614 4.09783 0.049294 3.60794 0.00896607C3.11805 -0.0313619 2.62656 0.0648802 2.18806 0.287005C1.74956 0.50913 1.38121 0.848446 1.12391 1.26727C0.866603 1.6861 0.730418 2.16804 0.730474 2.65959V9.33858C0.729523 9.83033 0.865097 10.3127 1.1221 10.7319C1.37909 11.1512 1.74743 11.4909 2.18607 11.7131C2.62472 11.9354 3.11646 12.0316 3.60653 11.9909C4.09659 11.9502 4.56574 11.7743 4.96173 11.4827L9.51558 8.14322C9.85245 7.89634 10.1264 7.57356 10.3153 7.20103C10.5041 6.82851 10.6025 6.41674 10.6025 5.99908C10.6025 5.58143 10.5041 5.16966 10.3153 4.79714C10.1264 4.42461 9.85245 4.10183 9.51558 3.85495H9.51458Z" fill="white"/>
</svg>
