<svg width="22" height="20" viewBox="0 0 22 20" fill="none" xmlns="http://www.w3.org/2000/svg">
<path fill-rule="evenodd" clip-rule="evenodd" d="M10.0877 11.5024C8.81889 11.3114 7.52196 11.4906 6.35252 12.0185C5.18308 12.5464 4.19082 13.4005 3.49481 14.4784C2.7988 15.5563 2.42862 16.8121 2.42869 18.0952C2.42872 18.6212 2.00234 19.0476 1.47636 19.0476C0.950374 19.0476 0.523955 18.6213 0.523926 18.0953C0.523835 16.4456 0.999784 14.831 1.89465 13.4452C2.78952 12.0593 4.06529 10.9612 5.56885 10.2824C7.07242 9.60374 8.73989 9.37333 10.3712 9.61887C12.0024 9.86442 13.5282 10.5755 14.7654 11.6667C15.1598 12.0147 15.1975 12.6165 14.8496 13.011C14.5016 13.4054 13.8998 13.4431 13.5054 13.0952C12.5431 12.2464 11.3564 11.6934 10.0877 11.5024Z" fill="currentColor"/>
<path fill-rule="evenodd" clip-rule="evenodd" d="M9.09536 1.90476C6.99141 1.90476 5.28583 3.61034 5.28583 5.71429C5.28583 7.81823 6.99141 9.52381 9.09536 9.52381C11.1993 9.52381 12.9049 7.81823 12.9049 5.71429C12.9049 3.61034 11.1993 1.90476 9.09536 1.90476ZM3.38107 5.71429C3.38107 2.55837 5.93944 0 9.09536 0C12.2513 0 14.8096 2.55837 14.8096 5.71429C14.8096 8.8702 12.2513 11.4286 9.09536 11.4286C5.93944 11.4286 3.38107 8.8702 3.38107 5.71429Z" fill="currentColor"/>
<path fill-rule="evenodd" clip-rule="evenodd" d="M17.6668 12.381C18.1928 12.381 18.6192 12.8073 18.6192 13.3333V19.0476C18.6192 19.5736 18.1928 20 17.6668 20C17.1408 20 16.7144 19.5736 16.7144 19.0476V13.3333C16.7144 12.8073 17.1408 12.381 17.6668 12.381Z" fill="currentColor"/>
<path fill-rule="evenodd" clip-rule="evenodd" d="M13.8573 16.1905C13.8573 15.6645 14.2837 15.2381 14.8096 15.2381H20.5239C21.0499 15.2381 21.4763 15.6645 21.4763 16.1905C21.4763 16.7165 21.0499 17.1429 20.5239 17.1429H14.8096C14.2837 17.1429 13.8573 16.7165 13.8573 16.1905Z" fill="currentColor"/>
</svg>
