<svg width="12" height="13" viewBox="0 0 12 13" fill="none" xmlns="http://www.w3.org/2000/svg">
<path d="M9.25 1.5H9V1.25C9 1.05109 8.92098 0.860322 8.78033 0.71967C8.63968 0.579018 8.44891 0.5 8.25 0.5C8.05109 0.5 7.86032 0.579018 7.71967 0.71967C7.57902 0.860322 7.5 1.05109 7.5 1.25V1.5H4.5V1.25C4.5 1.05109 4.42098 0.860322 4.28033 0.71967C4.13968 0.579018 3.94891 0.5 3.75 0.5C3.55109 0.5 3.36032 0.579018 3.21967 0.71967C3.07902 0.860322 3 1.05109 3 1.25V1.5H2.75C2.02065 1.5 1.32118 1.78973 0.805456 2.30546C0.289731 2.82118 0 3.52065 0 4.25L0 9.75C0 10.4793 0.289731 11.1788 0.805456 11.6945C1.32118 12.2103 2.02065 12.5 2.75 12.5H9.25C9.97935 12.5 10.6788 12.2103 11.1945 11.6945C11.7103 11.1788 12 10.4793 12 9.75V4.25C12 3.52065 11.7103 2.82118 11.1945 2.30546C10.6788 1.78973 9.97935 1.5 9.25 1.5ZM9.25 11H2.75C2.41848 11 2.10054 10.8683 1.86612 10.6339C1.6317 10.3995 1.5 10.0815 1.5 9.75V4.5H10.5V9.75C10.5 10.0815 10.3683 10.3995 10.1339 10.6339C9.89946 10.8683 9.58152 11 9.25 11Z" fill="#75778A"/>
</svg>
