<svg width="22" height="22" viewBox="0 0 22 22" fill="none" xmlns="http://www.w3.org/2000/svg">
<path d="M21.9432 9.76617L19.1281 2.12575C18.7403 1.07067 17.6302 0.493167 16.5394 0.782833L11.9167 2.01575V0.916667C11.9167 0.410667 11.506 0 11 0C10.494 0 10.0833 0.410667 10.0833 0.916667V2.50433L5.26717 3.78858C4.11675 4.09567 3.18358 4.94633 2.77108 6.06375L0.0568333 13.4328C0.01925 13.5346 0 14.0259 0 14.0259C0 16.3231 1.83333 18.3324 4.12775 18.3324C5.18925 18.3324 6.18933 17.9346 6.96392 17.1994C7.78067 16.4239 8.24908 15.3331 8.24908 14.2074C8.24908 14.2074 8.22983 13.5364 8.19408 13.4356L5.38083 5.698C5.4945 5.64025 5.61458 5.5935 5.74017 5.5605L10.0833 4.40183V20.1667H4.58333C4.07733 20.1667 3.66667 20.5773 3.66667 21.0833C3.66667 21.5893 4.07733 22 4.58333 22H17.4167C17.9227 22 18.3333 21.5893 18.3333 21.0833C18.3333 20.5773 17.9227 20.1667 17.4167 20.1667H11.9167V3.91233L16.4047 2.71517L13.8068 9.76525C13.7693 9.867 13.75 10.3583 13.75 10.3583C13.75 12.6555 15.4651 14.5448 17.655 14.6593C18.7999 14.7198 19.8862 14.3193 20.7148 13.5328C21.5316 12.7572 22 11.6664 22 10.5407C22 10.5407 21.9808 9.867 21.9432 9.76525V9.76617ZM4.00033 16.4972C3.00942 16.445 2.17983 15.6704 1.92317 14.6667H6.37083C6.27917 15.1241 6.05 15.5412 5.70258 15.8702C5.24242 16.3084 4.63467 16.5348 4.00125 16.4963L4.00033 16.4972ZM6.02433 12.8333H2.23117L4.14058 7.65142L6.02433 12.8333ZM17.875 4.02692L19.7688 9.16667H15.9812L17.875 4.02692ZM17.7503 12.8306C16.7594 12.7783 15.9298 12.0037 15.6732 11H20.1199C20.0282 11.4574 19.7991 11.8745 19.4517 12.2036C18.9915 12.6418 18.3838 12.8636 17.7503 12.8306Z" fill="#75778A"/>
</svg>
