<svg width="22" height="22" viewBox="0 0 22 22" fill="none" xmlns="http://www.w3.org/2000/svg">
<path d="M13.4272 5.03525C14.2274 4.39267 15.0515 3.52917 15.4695 2.47867C15.6877 1.9305 15.6171 1.30808 15.2816 0.814C14.936 0.304333 14.3631 0 13.7498 0H8.24984C7.63659 0 7.06367 0.304333 6.71809 0.814C6.38259 1.30808 6.31292 1.9305 6.53017 2.47867C6.94817 3.52825 7.77225 4.39267 8.5725 5.03525C4.3045 6.61925 0.916504 12.0624 0.916504 16.5C0.916504 19.5333 3.38325 22 6.4165 22H15.5832C18.6164 22 21.0832 19.5333 21.0832 16.5C21.0832 12.0624 17.6952 6.61925 13.4272 5.03525ZM13.7654 1.80125C13.2924 2.99017 11.8459 3.99483 10.998 4.46875C10.1519 3.9985 8.71092 3.00208 8.24892 1.83333L13.7654 1.80125ZM15.5823 20.1667H6.4165C4.39434 20.1667 2.74984 18.5222 2.74984 16.5C2.74984 11.6939 7.06734 6.41667 10.9998 6.41667C14.9323 6.41667 19.2498 11.6939 19.2498 16.5C19.2498 18.5222 17.6044 20.1667 15.5823 20.1667ZM10.9989 20.1667C10.4929 20.1667 10.0823 19.756 10.0823 19.25V18.3333H9.83659C8.85759 18.3333 7.9455 17.8072 7.45509 16.9592C7.20209 16.5211 7.3515 15.961 7.78967 15.7071C8.226 15.4532 8.78792 15.6026 9.04184 16.0417C9.205 16.324 9.51025 16.5 9.83659 16.5H11.9156C12.4207 16.5 12.8323 16.0884 12.8323 15.5833C12.8323 15.2368 12.5838 14.9435 12.2419 14.8867L9.45342 14.4219C8.22417 14.2175 7.33134 13.1633 7.33134 11.9167C7.33134 10.4005 8.56517 9.16667 10.0813 9.16667V8.25C10.0813 7.744 10.492 7.33333 10.998 7.33333C11.504 7.33333 11.9147 7.744 11.9147 8.25V9.16667H12.1603C13.1384 9.16667 14.0514 9.69375 14.5418 10.5417C14.7948 10.9798 14.6454 11.5399 14.2073 11.7938C13.77 12.0478 13.209 11.8983 12.9551 11.4593C12.791 11.176 12.4867 11.0009 12.1603 11.0009H10.0813C9.57625 11.0009 9.16467 11.4125 9.16467 11.9176C9.16467 12.2641 9.41309 12.5574 9.755 12.6143L12.5435 13.079C13.7728 13.2834 14.6656 14.3376 14.6656 15.5842C14.6656 17.1004 13.4318 18.3342 11.9156 18.3342V19.2509C11.9156 19.7569 11.5049 20.1667 10.9989 20.1667Z" fill="#75778A"/>
</svg>
