<svg width="22" height="20" viewBox="0 0 22 20" fill="none" xmlns="http://www.w3.org/2000/svg">
<path fill-rule="evenodd" clip-rule="evenodd" d="M0 1C0 0.447715 0.447715 0 1 0H21C21.5523 0 22 0.447715 22 1C22 1.55228 21.5523 2 21 2V12C21 12.7957 20.6839 13.5587 20.1213 14.1213C19.5587 14.6839 18.7957 15 18 15H13.4142L16.7071 18.2929C17.0976 18.6834 17.0976 19.3166 16.7071 19.7071C16.3166 20.0976 15.6834 20.0976 15.2929 19.7071L11 15.4142L6.70711 19.7071C6.31658 20.0976 5.68342 20.0976 5.29289 19.7071C4.90237 19.3166 4.90237 18.6834 5.29289 18.2929L8.58579 15H4C3.20435 15 2.44129 14.6839 1.87868 14.1213C1.31607 13.5587 1 12.7957 1 12V2C0.447715 2 0 1.55228 0 1ZM3 2V12C3 12.2652 3.10536 12.5196 3.29289 12.7071C3.48043 12.8946 3.73478 13 4 13H18C18.2652 13 18.5196 12.8946 18.7071 12.7071C18.8946 12.5196 19 12.2652 19 12V2H3Z" fill="#00C3DF"/>
</svg>
