<svg width="22" height="20" viewBox="0 0 22 20" fill="none" xmlns="http://www.w3.org/2000/svg">
<path d="M17.4167 0.833496H4.58333C2.05608 0.833496 0 2.88958 0 5.41683V14.5835C0 17.1107 2.05608 19.1668 4.58333 19.1668H17.4167C19.9439 19.1668 22 17.1107 22 14.5835V5.41683C22 2.88958 19.9439 0.833496 17.4167 0.833496ZM4.58333 2.66683H17.4167C18.9328 2.66683 20.1667 3.90066 20.1667 5.41683H1.83333C1.83333 3.90066 3.06717 2.66683 4.58333 2.66683ZM1.83333 14.5835V7.25016H6.41667V17.3335H4.58333C3.06717 17.3335 1.83333 16.0997 1.83333 14.5835ZM17.4167 17.3335H8.25V7.25016H20.1667V14.5835C20.1667 16.0997 18.9328 17.3335 17.4167 17.3335Z" fill="#75778A"/>
</svg>
