<svg width="10" height="6" viewBox="0 0 10 6" fill="none" xmlns="http://www.w3.org/2000/svg">
<g id="Vector">
<path fill-rule="evenodd" clip-rule="evenodd" d="M8.84709 0.324793C9.03014 0.507855 9.03014 0.804649 8.84709 0.98771L4.15958 5.67521C3.97654 5.85826 3.67973 5.85826 3.49667 5.67521L1.15292 3.33146C0.96986 3.14841 0.96986 2.8516 1.15292 2.66855C1.33598 2.48551 1.63277 2.48551 1.81583 2.66855L3.82813 4.68085L8.18418 0.324793C8.36723 0.141737 8.66404 0.141737 8.84709 0.324793Z" fill="#0D1033"/>
<path fill-rule="evenodd" clip-rule="evenodd" d="M8.7145 0.457373C8.60468 0.347544 8.42659 0.347544 8.31677 0.457373L3.82813 4.94602L1.68326 2.80114C1.57342 2.69131 1.39533 2.69131 1.28549 2.80114C1.17567 2.91096 1.17567 3.08905 1.2855 3.19887L3.62925 5.54263C3.73909 5.65245 3.91718 5.65245 4.027 5.54263L8.7145 0.855132C8.82433 0.745293 8.82433 0.56721 8.7145 0.457373ZM8.0516 0.19221C8.30787 -0.0640712 8.72341 -0.0640701 8.97968 0.192214C9.23594 0.448497 9.23594 0.864004 8.97968 1.12029L4.29217 5.8078C4.03589 6.06407 3.62037 6.06406 3.36409 5.8078L1.02034 3.46405C0.764056 3.20777 0.764053 2.79224 1.02034 2.53597C1.27662 2.2797 1.69213 2.2797 1.94841 2.53596L3.82813 4.41569L8.0516 0.19221Z" fill="#0D1033"/>
</g>
</svg>
