<svg width="12" height="13" viewBox="0 0 12 13" fill="none" xmlns="http://www.w3.org/2000/svg">
<path id="Vector" d="M0.659564 7.05709L2.44054 8.35781L1.76417 10.4525C1.65487 10.7773 1.65348 11.1288 1.76022 11.4546C1.86697 11.7803 2.07612 12.0628 2.3565 12.26C2.63207 12.4635 2.96603 12.5725 3.3086 12.5708C3.65117 12.569 3.98401 12.4567 4.25754 12.2505L5.999 10.9687L7.74096 12.2489C8.01604 12.4513 8.34819 12.5612 8.68966 12.5628C9.03114 12.5645 9.36435 12.4579 9.64139 12.2582C9.91842 12.0586 10.125 11.7762 10.2315 11.4517C10.3379 11.1273 10.3387 10.7774 10.2338 10.4525L9.55746 8.35781L11.3384 7.05709C11.6132 6.85624 11.8174 6.5737 11.9219 6.24985C12.0265 5.92599 12.026 5.57737 11.9206 5.2538C11.8152 4.93022 11.6102 4.64823 11.3349 4.44811C11.0597 4.24799 10.7282 4.13998 10.3879 4.13949H8.20021L7.53634 2.07035C7.43195 1.74465 7.22681 1.46053 6.95051 1.25894C6.67421 1.05735 6.34102 0.94873 5.999 0.94873C5.65698 0.94873 5.32379 1.05735 5.04749 1.25894C4.77119 1.46053 4.56605 1.74465 4.46165 2.07035L3.79779 4.13949H1.61209C1.27177 4.13998 0.940315 4.24799 0.665057 4.44811C0.3898 4.64823 0.184824 4.93022 0.0794063 5.2538C-0.0260113 5.57737 -0.0264779 5.92599 0.0780731 6.24985C0.182624 6.5737 0.386845 6.85624 0.661566 7.05709H0.659564Z" fill="#E3E5FA"/>
</svg>
