<svg width="13" height="12" viewBox="0 0 13 12" fill="none" xmlns="http://www.w3.org/2000/svg">
<path id="Vector" d="M12.7366 6C12.7366 9.3085 10.0451 12 6.73659 12C5.26709 12 3.85259 11.463 2.75459 10.4885C2.44509 10.2135 2.41659 9.7395 2.69209 9.4295C2.96709 9.12 3.44109 9.0915 3.75059 9.367C4.57409 10.0975 5.63459 10.5005 6.73659 10.5005C9.21809 10.5005 11.2366 8.4815 11.2366 6.0005C11.2366 4.8355 10.7781 3.731 9.98959 2.902L9.52759 3.364C9.23559 3.656 8.73659 3.449 8.73659 3.0365V0.9635C8.73659 0.7075 8.94409 0.5 9.20009 0.5H11.2726C11.6851 0.5 11.8921 0.999 11.6001 1.291L11.0486 1.8425C12.1156 2.951 12.7366 4.434 12.7366 6ZM4.98659 8.0455C4.98659 8.2965 5.18609 8.5 5.43209 8.5H8.04109C8.28709 8.5 8.48659 8.2965 8.48659 8.0455C8.48659 7.098 7.88459 6.4095 7.37959 6C7.88459 5.5905 8.48659 4.902 8.48659 3.9545C8.48659 3.7035 8.28709 3.5 8.04109 3.5H5.43209C5.18609 3.5 4.98659 3.7035 4.98659 3.9545C4.98659 4.905 5.59259 5.5915 6.09809 6C5.59209 6.4085 4.98659 7.095 4.98659 8.0455ZM3.25309 2.753C3.66709 2.753 4.00309 2.417 4.00309 2.003C4.00309 1.589 3.66709 1.253 3.25309 1.253C2.83909 1.253 2.50309 1.589 2.50309 2.003C2.50309 2.417 2.83909 2.753 3.25309 2.753ZM1.66309 3.753C1.24909 3.753 0.913086 4.089 0.913086 4.503C0.913086 4.917 1.24909 5.253 1.66309 5.253C2.07709 5.253 2.41309 4.917 2.41309 4.503C2.41309 4.089 2.07709 3.753 1.66309 3.753ZM1.66309 6.7665C1.24909 6.7665 0.913086 7.1025 0.913086 7.5165C0.913086 7.9305 1.24909 8.2665 1.66309 8.2665C2.07709 8.2665 2.41309 7.9305 2.41309 7.5165C2.41309 7.1025 2.07709 6.7665 1.66309 6.7665ZM5.98659 1.5C6.40059 1.5 6.73659 1.164 6.73659 0.75C6.73659 0.336 6.40059 0 5.98659 0C5.57259 0 5.23659 0.336 5.23659 0.75C5.23659 1.164 5.57259 1.5 5.98659 1.5Z" fill="#DF003B"/>
</svg>
