<svg width="14" height="15" viewBox="0 0 14 15" fill="none" xmlns="http://www.w3.org/2000/svg">
<path d="M7 0.5C3.1402 0.5 0 3.64024 0 7.50004C0 11.3598 3.1402 14.5 7 14.5C10.8598 14.5 14 11.3598 14 7.50004C14 3.64024 10.8598 0.5 7 0.5ZM7 13.2273C3.84194 13.2273 1.27273 10.6581 1.27273 7.50004C1.27273 4.34202 3.84194 1.77273 7 1.77273C10.1581 1.77273 12.7273 4.34202 12.7273 7.50004C12.7273 10.6581 10.158 13.2273 7 13.2273Z" fill="#75778A"/>
<path d="M6.99992 3.4697C6.53215 3.4697 6.1516 3.8505 6.1516 4.31856C6.1516 4.78621 6.53215 5.16667 6.99992 5.16667C7.46769 5.16667 7.84823 4.78621 7.84823 4.31856C7.84823 3.8505 7.46769 3.4697 6.99992 3.4697Z" fill="#75778A"/>
<path d="M7 6.43939C6.64856 6.43939 6.36364 6.72432 6.36364 7.07576V10.8939C6.36364 11.2454 6.64856 11.5303 7 11.5303C7.35144 11.5303 7.63636 11.2454 7.63636 10.8939V7.07576C7.63636 6.72432 7.35144 6.43939 7 6.43939Z" fill="#75778A"/>
</svg>
