<svg width="21" height="20" viewBox="0 0 21 20" fill="none" xmlns="http://www.w3.org/2000/svg">
<path d="M16.0832 2.5H15.5482C15.364 1.78655 14.9485 1.15424 14.3669 0.701916C13.7852 0.249596 13.07 0.00276146 12.3332 0L8.99984 0C8.26299 0.00276146 7.54783 0.249596 6.96614 0.701916C6.38446 1.15424 5.96904 1.78655 5.78484 2.5H5.24984C4.03467 2.50132 2.86965 2.98463 2.01039 3.84389C1.15114 4.70314 0.667827 5.86816 0.666504 7.08333L0.666504 15.4167C0.667827 16.6318 1.15114 17.7969 2.01039 18.6561C2.86965 19.5154 4.03467 19.9987 5.24984 20H16.0832C17.2983 19.9985 18.4632 19.5151 19.3224 18.6559C20.1816 17.7967 20.665 16.6318 20.6665 15.4167V7.08333C20.665 5.86823 20.1816 4.70334 19.3224 3.84413C18.4632 2.98492 17.2983 2.50154 16.0832 2.5ZM5.24984 5H16.0832C16.6357 5 17.1656 5.21949 17.5563 5.61019C17.947 6.0009 18.1665 6.5308 18.1665 7.08333V9.16667H3.1665V7.08333C3.1665 6.5308 3.386 6.0009 3.7767 5.61019C4.1674 5.21949 4.6973 5 5.24984 5ZM16.0832 17.5H5.24984C4.6973 17.5 4.1674 17.2805 3.7767 16.8898C3.386 16.4991 3.1665 15.9692 3.1665 15.4167V11.6667H8.99984C8.99984 12.1087 9.17543 12.5326 9.48799 12.8452C9.80055 13.1577 10.2245 13.3333 10.6665 13.3333C11.1085 13.3333 11.5325 13.1577 11.845 12.8452C12.1576 12.5326 12.3332 12.1087 12.3332 11.6667H18.1665V15.4167C18.1665 15.9692 17.947 16.4991 17.5563 16.8898C17.1656 17.2805 16.6357 17.5 16.0832 17.5Z" fill="#0D1033"/>
</svg>