<svg width="21" height="16" viewBox="0 0 21 16" fill="none" xmlns="http://www.w3.org/2000/svg">
<path d="M19.5319 5.40335C17.5083 2.28105 14.0533 0.382075 10.3326 0.347168C6.61202 0.382075 3.15702 2.28105 1.13334 5.40335C0.0668811 6.96845 0.0668811 9.02676 1.13334 10.5919C3.15588 13.7161 6.61108 15.6171 10.3327 15.6531C14.0533 15.6182 17.5083 13.7192 19.532 10.5969C20.6007 9.03065 20.6007 6.96959 19.5319 5.40335ZM17.4612 9.17287C15.9162 11.6235 13.2296 13.1186 10.3326 13.1401C7.4357 13.1187 4.7491 11.6235 3.20403 9.17287C2.72235 8.46522 2.72235 7.53502 3.20403 6.82741C4.74906 4.37679 7.43566 2.88166 10.3326 2.86018C13.2295 2.88162 15.9161 4.37679 17.4612 6.82741C17.9429 7.53502 17.9429 8.46522 17.4612 9.17287Z" fill="#0D1033"/>
<path d="M10.3326 11.3508C12.1831 11.3508 13.6833 9.85064 13.6833 8.00012C13.6833 6.14959 12.1831 4.64945 10.3326 4.64945C8.48209 4.64945 6.98195 6.14959 6.98195 8.00012C6.98195 9.85064 8.48209 11.3508 10.3326 11.3508Z" fill="#0D1033"/>
</svg>