<svg width="14" height="13" viewBox="0 0 14 13" fill="none" xmlns="http://www.w3.org/2000/svg">
<path id="Vector" d="M12.7996 2.4361C12.7756 2.4221 8.6079 0.49836 8.6079 0.49836C7.60706 -0.0528389 6.39356 -0.0528389 5.39272 0.49836C5.39272 0.49836 1.22557 2.4221 1.20107 2.4361C0.085136 3.04357 -0.327054 4.4407 0.280417 5.55663C0.49224 5.94577 0.811929 6.26543 1.20107 6.47728C1.22557 6.49128 2.91717 7.27293 2.91717 7.27293V10.0302C2.91881 11.2179 3.6922 12.2666 4.82634 12.6189C5.53271 12.823 6.26514 12.9226 7.00032 12.9147C7.73554 12.9226 8.46794 12.823 9.17431 12.6189C10.3084 12.2665 11.0818 11.2178 11.0835 10.0302V7.2729L12.2501 6.73507V10.8731C12.2501 11.3563 12.6418 11.748 13.125 11.748C13.6083 11.748 14 11.3563 14 10.8731V4.43392C13.9769 3.5738 13.5658 2.80941 12.7996 2.4361ZM9.33352 10.0302C9.33566 10.447 9.06682 10.8169 8.66973 10.9436C7.5761 11.2371 6.42449 11.2371 5.33087 10.9436C4.93374 10.8169 4.66494 10.447 4.66707 10.0302V8.08019L5.39272 8.415C6.39321 8.96765 7.60741 8.96765 8.6079 8.415L9.33355 8.08019V10.0302H9.33352ZM11.9497 4.94665C11.9497 4.94665 7.79126 6.86574 7.76791 6.87974C7.29196 7.15043 6.70861 7.15043 6.23265 6.87974C6.20933 6.86574 2.0509 4.94665 2.0509 4.94665C1.78029 4.80859 1.67284 4.47731 1.81089 4.2067C1.86358 4.1034 1.9476 4.0194 2.0509 3.96669C2.0509 3.96669 6.2093 2.04759 6.23265 2.03359C6.70861 1.7629 7.29196 1.7629 7.76791 2.03359C7.79124 2.04759 11.9497 3.96669 11.9497 3.96669C12.2203 4.10474 12.3277 4.43602 12.1897 4.70663C12.137 4.80996 12.053 4.89396 11.9497 4.94665Z" fill="#75778A"/>
</svg>
