<svg width="20" height="24" viewBox="0 0 20 24" fill="none" xmlns="http://www.w3.org/2000/svg">
<path d="M7.5 10.5C7.5 9.121 8.621 8 10 8C11.379 8 12.5 9.121 12.5 10.5C12.5 11.879 11.379 13 10 13C8.621 13 7.5 11.879 7.5 10.5ZM10 14C7.681 14 5.592 15.577 5.031 17.75C4.954 18.049 5.02 18.368 5.21 18.612C5.399 18.856 5.69 18.999 6 18.999H14C14.31 18.999 14.601 18.856 14.79 18.612C14.979 18.367 15.046 18.049 14.969 17.75C14.408 15.577 12.32 14 10 14ZM20 7.5V18.5C20 21.533 17.533 24 14.5 24H5.5C2.467 24 0 21.533 0 18.5V7.5C0 4.522 2.379 2.089 5.337 2.002C5.899 0.819 7.106 0 8.5 0H11.5C12.895 0 14.101 0.819 14.663 2.002C17.621 2.088 20 4.522 20 7.5ZM17 7.5C17 6.122 15.878 5 14.5 5H13.5C12.671 5 12 4.329 12 3.5C12 3.224 11.776 3 11.5 3H8.5C8.224 3 8 3.224 8 3.5C8 4.329 7.329 5 6.5 5H5.5C4.122 5 3 6.122 3 7.5V18.5C3 19.878 4.122 21 5.5 21H14.5C15.878 21 17 19.878 17 18.5V7.5Z" fill="#0D1033"/>
</svg>
