<svg width="240" height="240" viewBox="0 0 240 240" fill="none" xmlns="http://www.w3.org/2000/svg">
<path d="M240 183.552H0V183.672H240V183.552Z" fill="#E3E5FA"/>
<path d="M215.952 191.275H200.055V191.395H215.952V191.275Z" fill="#E3E5FA"/>
<path d="M194.011 191.275H160.022V191.395H194.011V191.275Z" fill="#E3E5FA"/>
<path d="M141.279 186.821H132.067V186.941H141.279V186.821Z" fill="#E3E5FA"/>
<path d="M41.6399 187.627H25.1807V187.747H41.6399V187.627Z" fill="#E3E5FA"/>
<path d="M75.8401 187.627H45.9121V187.747H75.8401V187.627Z" fill="#E3E5FA"/>
<path d="M108.067 189.653H90.3984V189.773H108.067V189.653Z" fill="#E3E5FA"/>
<path d="M113.76 162.144H21.0768C20.3507 162.143 19.6548 161.853 19.1419 161.34C18.6289 160.826 18.3408 160.129 18.3408 159.403V29.1168C18.3471 28.3949 18.638 27.7047 19.1503 27.196C19.6626 26.6873 20.3549 26.4013 21.0768 26.4H113.76C114.487 26.4 115.184 26.6888 115.698 27.2028C116.212 27.7168 116.501 28.4139 116.501 29.1408V159.403C116.501 160.13 116.212 160.827 115.698 161.341C115.184 161.855 114.487 162.144 113.76 162.144ZM21.0768 26.496C20.3826 26.4973 19.7172 26.774 19.2267 27.2653C18.7363 27.7567 18.4608 28.4226 18.4608 29.1168V159.403C18.4608 160.097 18.7363 160.763 19.2267 161.255C19.7172 161.746 20.3826 162.023 21.0768 162.024H113.76C114.455 162.023 115.121 161.746 115.612 161.255C116.103 160.764 116.38 160.098 116.381 159.403V29.1168C116.38 28.4221 116.103 27.7563 115.612 27.265C115.121 26.7738 114.455 26.4973 113.76 26.496H21.0768Z" fill="#E3E5FA"/>
<path d="M217.589 162.144H124.901C124.174 162.143 123.478 161.854 122.964 161.34C122.451 160.826 122.161 160.13 122.16 159.403V29.1168C122.168 28.3945 122.46 27.7042 122.973 27.1957C123.486 26.6871 124.179 26.4012 124.901 26.4H217.589C218.31 26.4025 219.001 26.6891 219.512 27.1977C220.024 27.7062 220.314 28.3957 220.32 29.1168V159.403C220.32 160.128 220.033 160.824 219.521 161.338C219.009 161.852 218.314 162.141 217.589 162.144ZM124.901 26.496C124.206 26.4973 123.54 26.7738 123.049 27.265C122.558 27.7563 122.281 28.4221 122.28 29.1168V159.403C122.281 160.098 122.558 160.764 123.049 161.255C123.54 161.746 124.206 162.023 124.901 162.024H217.589C218.284 162.023 218.95 161.746 219.441 161.255C219.932 160.764 220.208 160.098 220.21 159.403V29.1168C220.208 28.4221 219.932 27.7563 219.441 27.265C218.95 26.7738 218.284 26.4973 217.589 26.496H124.901Z" fill="#E3E5FA"/>
<path d="M68.1791 102.11L173.995 102.11V33.3793L68.1791 33.3793L68.1791 102.11Z" fill="#F0F1F7"/>
<path d="M66.0094 102.11L172.661 102.11V33.3793L66.0094 33.3793L66.0094 102.11Z" fill="#F0F1F7"/>
<path d="M170.453 98.376V37.1088L68.2079 37.1088V98.376H170.453Z" fill="#F0F1F7"/>
<path d="M157.905 98.3761L144.974 37.1089H128.025L140.957 98.3761H157.905Z" fill="white"/>
<path d="M138.211 98.3761L125.28 37.1089H117.624L130.555 98.3761H138.211Z" fill="white"/>
<path d="M107.837 98.3761L94.9058 37.1089H81.8306L94.7618 98.3761H107.837Z" fill="white"/>
<path d="M68.4912 98.3761V37.1089H68.2128V98.3761H68.4912Z" fill="#F0F1F7"/>
<path d="M116.155 102.11H122.51L122.51 33.3793H116.155L116.155 102.11Z" fill="#F0F1F7"/>
<path d="M122.789 98.3761V37.1089H122.51V98.3761H122.789Z" fill="#F0F1F7"/>
<path d="M119.223 102.11H119.443L119.443 33.3793H119.223L119.223 102.11Z" fill="#F0F1F7"/>
<path d="M194.846 180.365H214.128V130.061H194.846V180.365Z" fill="#F0F1F7"/>
<path d="M115.334 183.552H210.422V180.365H115.334V183.552Z" fill="#F0F1F7"/>
<path d="M194.842 130.061H111.634V180.365H194.842V130.061Z" fill="#F0F1F7"/>
<path d="M187.267 136.253H119.218V152.75H187.267V136.253Z" fill="#F0F1F7"/>
<path d="M187.267 157.675H119.218V174.173H187.267V157.675Z" fill="#F0F1F7"/>
<path d="M144.638 145.632H161.837C162.346 145.632 162.758 145.219 162.758 144.71V144.293C162.758 143.784 162.346 143.371 161.837 143.371H144.638C144.129 143.371 143.717 143.784 143.717 144.293V144.71C143.717 145.219 144.129 145.632 144.638 145.632Z" fill="#F0F1F7"/>
<path d="M144.638 167.054H161.837C162.346 167.054 162.758 166.642 162.758 166.133V165.715C162.758 165.206 162.346 164.794 161.837 164.794H144.638C144.129 164.794 143.717 165.206 143.717 165.715V166.133C143.717 166.642 144.129 167.054 144.638 167.054Z" fill="#F0F1F7"/>
<path d="M148.978 121.589C148.978 121.589 148.747 130.061 139.858 130.061C130.968 130.061 130.738 121.589 130.738 121.589H148.978Z" fill="#F0F1F7"/>
<path d="M169.766 121.589C169.766 121.589 169.531 130.061 160.646 130.061C151.762 130.061 151.526 121.589 151.526 121.589H169.766Z" fill="#F0F1F7"/>
<path d="M148.978 115.978C148.978 115.978 148.747 124.45 139.858 124.45C130.968 124.45 130.738 115.978 130.738 115.978H148.978Z" fill="#F0F1F7"/>
<path d="M169.766 115.978C169.766 115.978 169.531 124.45 160.646 124.45C151.762 124.45 151.526 115.978 151.526 115.978H169.766Z" fill="#F0F1F7"/>
<path d="M190.56 121.589C190.56 121.589 190.315 130.08 181.44 130.08C172.565 130.08 172.32 121.608 172.32 121.608L190.56 121.589Z" fill="#F0F1F7"/>
<path d="M190.56 115.978C190.56 115.978 190.325 124.45 181.44 124.45C172.555 124.45 172.32 115.978 172.32 115.978H190.56Z" fill="#F0F1F7"/>
<path d="M184.958 83.7841H197.064V60.9601H184.958V83.7841Z" fill="#F0F1F7"/>
<path d="M182.246 83.7841H196.464V60.9601H182.246V83.7841Z" fill="#F0F1F7"/>
<path d="M194.299 81.7536V62.9856H184.411V81.7536H194.299Z" fill="white"/>
<path d="M203.289 98.5344H215.395V75.7104H203.289V98.5344Z" fill="#F0F1F7"/>
<path d="M200.582 98.5344H214.8V75.7104H200.582V98.5344Z" fill="#F0F1F7"/>
<path d="M212.63 96.5041V77.7361H202.742V96.5041H212.63Z" fill="white"/>
<path d="M34.9198 82.2001H52.2334L52.2334 49.5601H34.9198V82.2001Z" fill="#F0F1F7"/>
<path d="M31.0462 82.2001H51.3838L51.3838 49.5601H31.0462L31.0462 82.2001Z" fill="#F0F1F7"/>
<path d="M48.2832 79.3008V52.4592H34.1376V79.3008H48.2832Z" fill="white"/>
<path d="M28.1759 139.502C25.8863 132.782 18.9023 130.277 16.8767 126.034C14.2223 120.475 15.1919 112.138 18.3167 109.128C21.0479 106.512 27.0911 124.195 27.7727 126.173C30.1199 132.965 30.4511 138.01 30.4799 142.891C30.8831 138.739 31.2575 134.928 31.5407 131.986C32.4623 122.386 32.6015 119.304 32.6111 118.354C32.3279 117.874 31.9919 117.35 31.7951 117.062C30.1247 114.61 26.1311 111.691 24.3743 108.13C21.8111 102.926 23.0303 96.7008 25.5119 94.3824C28.1039 91.9824 31.5407 97.6896 33.0671 103.363C34.5935 109.037 33.0671 114.475 33.1151 119.203C33.1151 120.13 32.8703 123.638 32.4383 128.51C33.6959 123.269 35.4095 119.76 38.1983 116.51C41.6543 112.488 44.7935 107.582 47.1887 108.216C49.5839 108.85 47.5151 115.334 45.0479 119.89C42.8447 123.941 33.8111 127.987 32.1791 131.246C31.5743 137.851 30.7391 146.213 29.9615 154.003C31.0943 149.981 30.6671 149.64 34.1375 143.482C36.2015 139.819 43.4687 135.322 43.9871 137.822C44.5055 140.323 42.7391 145.094 39.8111 148.421C37.4495 151.109 32.8895 151.104 31.6511 152.774C31.3631 153.163 30.3791 154.651 29.8127 155.51C28.8527 165.019 27.9311 173.414 27.5519 176.275L27.1055 176.304C27.2111 175.565 27.7103 170.726 28.3535 164.304C27.6335 160.896 20.4047 158.909 18.5087 155.366C16.5215 151.661 15.2831 147.331 16.6463 144.437C17.7839 142.037 24.2015 145.306 26.5007 149.309C28.0319 151.973 28.8335 154.819 28.9007 158.64C29.3327 154.277 29.7983 149.592 30.2303 145.171C29.8415 144.058 28.8623 141.514 28.1759 139.502Z" fill="#F0F1F7"/>
<path d="M34.9634 183.552H20.6402C19.853 183.552 19.2002 182.635 19.0226 181.363L17.9858 173.04H37.5986L36.5762 181.363C36.4226 182.635 35.7458 183.552 34.9634 183.552Z" fill="#F0F1F7"/>
<path d="M38.0066 173.659H17.5778C17.3705 173.68 17.1623 173.63 16.9876 173.517C16.813 173.403 16.6825 173.233 16.6178 173.035L16.2002 170.309C16.1378 169.891 16.5842 169.526 17.1602 169.526H38.4242C39.0002 169.526 39.4466 169.891 39.3842 170.309L38.9666 173.035C38.9034 173.234 38.7733 173.405 38.5982 173.519C38.4232 173.633 38.2141 173.682 38.0066 173.659Z" fill="#F0F1F7"/>
<path d="M120 205.229C171.399 205.229 213.067 202.796 213.067 199.795C213.067 196.794 171.399 194.362 120 194.362C68.6002 194.362 26.9326 196.794 26.9326 199.795C26.9326 202.796 68.6002 205.229 120 205.229Z" fill="#F0F1F7"/>
<path d="M165.643 51.4847C160.459 54.5327 164.64 57.6863 163.843 60.7439C163.046 63.8015 163.128 64.7327 164.462 66.5039C165.797 68.2751 161.731 69.0287 164.717 70.6223C167.702 72.2159 179.39 70.7903 177.134 60.5423C174.878 50.2943 168.509 49.8047 165.643 51.4847Z" fill="#0D1033"/>
<path d="M164.481 70.6223H164.438C163.598 70.3439 163.118 70.0031 162.969 69.5759C162.777 69.0191 163.161 68.4431 163.569 67.8335C164.049 67.0847 164.529 66.3935 164.016 65.7023C163.877 65.5247 163.747 65.3615 163.622 65.2223C162.547 63.8735 162.101 63.3023 163.2 60.6191C163.608 59.6207 163.334 58.6991 163.041 57.7679C162.518 56.0591 161.928 54.1199 165.566 51.3935C165.594 51.3798 165.626 51.3763 165.657 51.3836C165.687 51.3909 165.714 51.4086 165.733 51.4336C165.751 51.4587 165.761 51.4894 165.759 51.5206C165.758 51.5519 165.746 51.5816 165.725 51.6047C162.235 54.2207 162.773 55.9823 163.296 57.6911C163.589 58.6511 163.891 59.6111 163.449 60.7199C162.403 63.2735 162.763 63.7247 163.829 65.0399L164.222 65.5199C164.865 66.3503 164.294 67.2047 163.79 67.9631C163.421 68.5151 163.075 69.0383 163.224 69.4703C163.344 69.8159 163.766 70.1039 164.52 70.3487C164.548 70.3598 164.572 70.3801 164.587 70.4065C164.603 70.4328 164.608 70.4635 164.604 70.4936C164.599 70.5237 164.585 70.5514 164.563 70.5722C164.54 70.593 164.512 70.6056 164.481 70.6079V70.6223Z" fill="#0D1033"/>
<path d="M168.072 82.08C167.563 84.4512 166.977 86.8176 166.382 89.1744C165.787 91.5312 165.158 93.8832 164.52 96.2256L164.28 97.104L164.16 97.5456L164.045 97.944C163.996 98.1069 163.938 98.2672 163.872 98.424C163.595 99.11 163.175 99.7288 162.638 100.238C162.136 100.704 161.55 101.069 160.91 101.314C159.976 101.656 158.981 101.803 157.987 101.746C157.218 101.702 156.455 101.586 155.707 101.4C154.385 101.069 153.098 100.607 151.867 100.022C150.677 99.471 149.531 98.8291 148.44 98.1024C148.099 97.8803 147.848 97.5452 147.73 97.1562C147.612 96.7671 147.635 96.3489 147.795 95.9751C147.955 95.6014 148.242 95.2959 148.605 95.1126C148.967 94.9293 149.383 94.8797 149.779 94.9728L149.875 94.9968C152.057 95.559 154.283 95.9363 156.528 96.1247C156.985 96.149 157.443 96.1298 157.896 96.0672C158.275 96.024 158.563 95.8991 158.549 95.8463C158.534 95.7935 158.453 95.8464 158.337 95.9184C158.237 95.9978 158.152 96.0955 158.088 96.2063C158.088 96.2063 158.088 96.2448 158.059 96.2496V96.1919L158.136 95.7408L158.294 94.8287C158.712 92.4288 159.182 90.0288 159.681 87.6288C160.181 85.2288 160.723 82.8288 161.357 80.472C161.589 79.6012 162.152 78.8556 162.926 78.3941C163.7 77.9326 164.624 77.7917 165.5 78.0014C166.377 78.2111 167.137 78.7549 167.618 79.5168C168.099 80.2787 168.264 81.1984 168.077 82.08H168.072Z" fill="#FFDBA1"/>
<path d="M163.483 75.1488C160.517 76.5888 159.509 84.2304 159.509 84.2304L168.48 89.3712C168.48 89.3712 172.061 82.6128 170.837 78.1968C170.141 75.696 168.605 72.6432 163.483 75.1488Z" fill="#00C3DF"/>
<path d="M150.442 95.1071L147.96 93.6671L147.605 97.9871C147.605 97.9871 149.717 99.4271 151.152 97.7759L151.354 96.7631C151.365 96.4305 151.287 96.1009 151.126 95.8093C150.966 95.5177 150.729 95.2751 150.442 95.1071Z" fill="#FFDBA1"/>
<path d="M144.902 94.7088L144.59 96.2592C144.543 96.4418 144.565 96.6357 144.654 96.8021C144.743 96.9685 144.892 97.0952 145.07 97.1568L147.605 98.0064L147.96 93.6864L146.093 93.7248C145.815 93.7394 145.549 93.8429 145.335 94.0201C145.121 94.1973 144.969 94.4388 144.902 94.7088Z" fill="#FFDBA1"/>
<path d="M180.528 195.139L175.963 195.24L175.114 184.838L179.679 184.733L180.528 195.139Z" fill="#FFDBA1"/>
<path d="M175.68 194.678H180.734C180.822 194.675 180.907 194.705 180.974 194.762C181.041 194.819 181.084 194.899 181.094 194.986L181.67 198.984C181.682 199.085 181.672 199.188 181.641 199.285C181.61 199.382 181.559 199.471 181.491 199.547C181.423 199.622 181.339 199.683 181.246 199.724C181.153 199.765 181.052 199.786 180.95 199.786C179.184 199.757 178.339 199.651 176.112 199.651C174.744 199.651 170.832 199.795 168.912 199.795C166.992 199.795 166.925 197.928 167.707 197.755C171.235 196.997 173.726 195.95 174.907 194.952C175.124 194.772 175.398 194.676 175.68 194.678Z" fill="#0D1033"/>
<g opacity="0.2">
<path d="M175.114 184.838L175.551 190.2L180.12 190.099L179.683 184.738L175.114 184.838Z" fill="#0D1033"/>
</g>
<path d="M186.422 74.4624C186.331 73.4771 185.877 72.5607 185.149 71.8905C184.421 71.2202 183.471 70.8436 182.481 70.8336C176.918 70.7568 169.493 72.5184 165.033 74.4192C164.254 74.7508 163.582 75.2919 163.091 75.9825C162.6 76.673 162.311 77.486 162.254 78.3312C162.195 79.2807 162.195 80.2329 162.254 81.1824C161.985 82.3008 159.936 90.6192 163.925 92.1024C164.017 92.1364 164.112 92.1653 164.208 92.1888C165.101 95.6928 166.358 99.8976 168.115 104.952C175.262 103.704 187.459 100.992 190.934 100.382C191.232 95.04 187.637 87.7632 186.422 74.4624Z" fill="#00C3DF"/>
<path d="M177.408 62.2607C177.154 65.0159 177.283 69.9407 180.144 71.2703C180.144 71.2703 177.662 76.2767 170.669 79.7039C166.536 77.3039 168.797 73.2527 168.797 73.2527C172.747 71.8415 172.262 69.6863 171.197 67.7663L177.408 62.2607Z" fill="#FFDBA1"/>
<path d="M168.869 73.1999C168.887 73.1591 168.895 73.1139 168.89 73.0693C168.885 73.0246 168.868 72.9821 168.841 72.9462C168.814 72.9103 168.778 72.8824 168.736 72.8654C168.695 72.8484 168.649 72.8429 168.605 72.8495C165.144 73.3919 162.648 74.9663 162.048 79.1711C161.702 81.5711 160.997 84.8303 160.843 88.2383C160.8 89.1983 161.51 90.7487 162.283 91.1183C162.725 94.8143 163.512 98.4287 164.717 101.04C165.483 101.345 166.302 101.494 167.126 101.478C167.95 101.462 168.763 101.282 169.517 100.949C169.517 100.949 165.24 80.6399 168.869 73.1999Z" fill="#0D1033"/>
<path d="M179.27 70.6896C175.157 72.216 174.917 74.3424 175.353 80.1936C175.833 86.8368 177.974 95.5536 179.102 99.2544C187.517 97.488 191.222 94.2048 191.222 94.2048C191.222 94.2048 188.371 76.5888 187.382 73.6224C186.393 70.656 182.371 69.5376 179.27 70.6896Z" fill="#0D1033"/>
<path opacity="0.2" d="M174.874 64.5072L171.197 67.7616C171.451 68.201 171.654 68.668 171.802 69.1536C173.381 69.408 175.282 67.68 175.354 66.4752C175.339 65.7921 175.175 65.1205 174.874 64.5072Z" fill="#0D1033"/>
<path d="M177.442 56.9904C177.768 61.4448 177.998 63.3264 176.074 65.8944C173.194 69.7584 167.63 69.1776 165.994 64.9104C164.51 61.0704 164.232 54.4272 168.317 52.0896C169.215 51.571 170.231 51.2904 171.269 51.2745C172.306 51.2586 173.33 51.5079 174.244 51.9988C175.158 52.4897 175.931 53.2058 176.491 54.0794C177.051 54.9529 177.378 55.9549 177.442 56.9904Z" fill="#FFDBA1"/>
<path d="M168.134 104.952C168.134 104.952 165.422 131.578 166.632 145.272C167.89 159.499 173.976 189.13 173.976 189.13H181.392C181.392 189.13 181.733 155.837 179.602 140.914C182.309 125.64 184.79 102.067 183.408 102.302L168.134 104.952Z" fill="#0D1033"/>
<path d="M181.92 189.331H173.453L172.925 187.051L182.251 186.773L181.92 189.331Z" fill="#00C3DF"/>
<path opacity="0.2" d="M179.678 112.594C180.878 110.386 182.242 110.28 183.341 111.394C182.736 119.074 181.464 129.682 180.048 138.274C177.898 130.714 175.584 120.11 179.678 112.594Z" fill="#0D1033"/>
<path d="M215.251 179.938L210.927 182.03L204.802 173.414L209.127 171.322L215.251 179.938Z" fill="#FFDBA1"/>
<path d="M210.178 181.522L213.73 177.926C213.792 177.866 213.873 177.827 213.959 177.815C214.045 177.803 214.133 177.818 214.21 177.859L217.829 179.89C217.915 179.937 217.989 180.004 218.045 180.085C218.101 180.166 218.136 180.26 218.149 180.357C218.163 180.455 218.153 180.554 218.12 180.647C218.088 180.74 218.034 180.824 217.963 180.893C216.696 182.126 216.019 182.669 214.455 184.253C213.495 185.213 210.643 188.304 208.968 189.168C207.293 190.032 206.127 188.534 206.727 188.035C209.424 185.784 209.818 183.682 209.851 182.227C209.863 181.958 209.98 181.705 210.178 181.522Z" fill="#0D1033"/>
<g opacity="0.2">
<path d="M204.806 173.414L207.96 177.854L212.285 175.766L209.131 171.322L204.806 173.414Z" fill="#0D1033"/>
</g>
<path d="M175.2 103.714C175.2 103.714 178.685 131.155 184.8 143.616C191.165 156.576 206.29 176.842 206.29 176.842L211.997 174.72C211.997 174.72 204.096 151.68 195.941 137.813C195.149 122.933 194.981 106.848 191.069 100.954L175.2 103.714Z" fill="#0D1033"/>
<path d="M212.568 174.413L206.482 177.696L204.542 175.843L211.891 171.576L212.568 174.413Z" fill="#00C3DF"/>
<path d="M209.621 183.206C209.363 183.507 209.017 183.719 208.632 183.811C208.533 183.824 208.432 183.814 208.336 183.783C208.241 183.753 208.153 183.702 208.08 183.634C208.036 183.598 208.003 183.551 207.985 183.497C207.967 183.444 207.965 183.386 207.979 183.331C208.123 182.755 210.12 182.035 210.346 181.958C210.367 181.95 210.391 181.948 210.414 181.952C210.437 181.956 210.458 181.967 210.475 181.982C210.489 181.998 210.497 182.019 210.497 182.04C210.497 182.061 210.489 182.082 210.475 182.098C210.226 182.494 209.94 182.865 209.621 183.206ZM208.31 183.206C208.261 183.251 208.223 183.307 208.2 183.369C208.195 183.392 208.197 183.416 208.204 183.438C208.212 183.46 208.225 183.479 208.243 183.494C208.29 183.54 208.347 183.574 208.41 183.595C208.472 183.616 208.538 183.622 208.603 183.614C208.992 183.571 209.563 183.067 210.115 182.256C209.47 182.476 208.865 182.797 208.32 183.206H208.31Z" fill="#00C3DF"/>
<path d="M210.475 182.117H210.437C209.865 182.347 208.339 182.51 207.989 182.141C207.907 182.054 207.845 181.901 208.027 181.661C208.169 181.492 208.37 181.382 208.589 181.354C209.366 181.243 210.413 181.906 210.456 181.934C210.471 181.944 210.483 181.958 210.492 181.974C210.5 181.99 210.504 182.008 210.504 182.026C210.504 182.058 210.494 182.09 210.475 182.117ZM208.257 181.762L208.214 181.81C208.094 181.963 208.147 182.016 208.166 182.035C208.373 182.261 209.496 182.213 210.144 182.035C209.689 181.749 209.164 181.597 208.627 181.594C208.489 181.608 208.359 181.667 208.257 181.762Z" fill="#00C3DF"/>
<path d="M170.136 59.2415C170.184 59.6015 170.035 59.9183 169.8 59.9519C169.565 59.9855 169.32 59.7167 169.286 59.3567C169.253 58.9967 169.387 58.6799 169.622 58.6511C169.858 58.6223 170.088 58.8815 170.136 59.2415Z" fill="#0D1033"/>
<path d="M166.08 59.7887C166.128 60.1487 165.975 60.4656 165.739 60.4992C165.504 60.5328 165.259 60.264 165.231 59.904C165.202 59.544 165.331 59.2272 165.567 59.1984C165.802 59.1696 166.023 59.4287 166.08 59.7887Z" fill="#0D1033"/>
<path d="M165.662 59.2031L164.765 59.0687C164.765 59.0687 165.297 59.6831 165.662 59.2031Z" fill="#0D1033"/>
<path d="M167.827 60.1392C167.623 61.0019 167.3 61.8322 166.867 62.6064C167.068 62.7129 167.29 62.7746 167.517 62.787C167.744 62.7994 167.971 62.7624 168.182 62.6784L167.827 60.1392Z" fill="#0D1033"/>
<path d="M170.323 63.8399C170.152 63.8906 169.977 63.9275 169.8 63.9503C169.786 63.9531 169.771 63.9528 169.758 63.9496C169.744 63.9464 169.731 63.9403 169.719 63.9317C169.708 63.9231 169.699 63.9121 169.692 63.8996C169.685 63.8871 169.681 63.8733 169.68 63.8591C169.678 63.8452 169.679 63.8311 169.682 63.8175C169.686 63.8039 169.692 63.7912 169.7 63.78C169.709 63.7688 169.719 63.7594 169.732 63.7524C169.744 63.7454 169.757 63.7409 169.771 63.7391C170.221 63.6898 170.653 63.5333 171.031 63.2828C171.408 63.0322 171.72 62.6949 171.941 62.2991C171.956 62.2782 171.977 62.2632 172.002 62.2567C172.027 62.2501 172.053 62.2525 172.077 62.2633C172.1 62.2741 172.119 62.2927 172.13 62.3159C172.141 62.3391 172.144 62.3654 172.137 62.3903C171.946 62.7401 171.687 63.0483 171.376 63.2972C171.064 63.546 170.706 63.7305 170.323 63.8399Z" fill="#0D1033"/>
<path d="M179.174 60.624C179.038 61.0882 178.808 61.5195 178.499 61.8911C178.189 62.2626 177.806 62.5666 177.374 62.784C176.237 63.3312 175.425 62.2608 175.541 60.984C175.646 59.832 176.366 58.1568 177.605 58.152C178.843 58.1472 179.52 59.4432 179.174 60.624Z" fill="#FFDBA1"/>
<path d="M164.717 52.1952C165.365 54.1152 169.997 53.5056 170.477 55.4736C170.957 57.4416 170.794 59.7936 173.295 59.8656C175.795 59.9376 176.607 63.5376 176.256 65.3088C175.906 67.08 176.64 70.5312 181.114 69.3984C185.587 68.2656 187.354 64.1712 184.421 60.2784C182.775 58.0944 183.461 57.8784 183.576 55.4784C183.653 53.5248 183.576 50.8416 180.73 50.0736C178.09 49.368 177.312 50.4048 174.735 48.5376C170.635 45.6 163.056 47.3088 164.717 52.1952Z" fill="#0D1033"/>
<path d="M171.466 57.9168C171.422 57.9261 171.376 57.9214 171.334 57.9034C171.293 57.8853 171.258 57.8547 171.235 57.816C170.755 56.9616 169.483 56.8272 169.474 56.8272C169.417 56.8223 169.365 56.7954 169.328 56.7523C169.291 56.7092 169.273 56.6533 169.277 56.5968C169.279 56.5685 169.287 56.5411 169.301 56.516C169.314 56.491 169.332 56.4688 169.354 56.4509C169.376 56.433 169.401 56.4197 169.428 56.4118C169.455 56.4038 169.484 56.4015 169.512 56.4048C169.574 56.4048 171.01 56.5584 171.605 57.6048C171.619 57.6286 171.629 57.655 171.633 57.6826C171.637 57.7102 171.635 57.7383 171.628 57.7652C171.621 57.7921 171.608 57.8172 171.591 57.8392C171.574 57.8611 171.552 57.8793 171.528 57.8928C171.509 57.9049 171.488 57.913 171.466 57.9168Z" fill="#0D1033"/>
<path d="M164.77 58.1807C164.737 58.1984 164.701 58.2076 164.664 58.2076C164.627 58.2076 164.591 58.1984 164.558 58.1807C164.534 58.1657 164.514 58.1459 164.497 58.1226C164.481 58.0993 164.47 58.073 164.464 58.0452C164.458 58.0174 164.458 57.9888 164.463 57.9609C164.469 57.9331 164.48 57.9066 164.496 57.8831C164.673 57.5945 164.916 57.3526 165.206 57.1779C165.496 57.0033 165.824 56.9011 166.162 56.8799C166.19 56.8793 166.217 56.8843 166.243 56.8947C166.269 56.9051 166.293 56.9206 166.312 56.9403C166.332 56.9601 166.348 56.9836 166.358 57.0095C166.368 57.0355 166.373 57.0632 166.373 57.0911C166.373 57.1472 166.351 57.2009 166.311 57.2405C166.271 57.2801 166.218 57.3023 166.162 57.3023C165.895 57.3251 165.637 57.4104 165.409 57.5513C165.182 57.6923 164.991 57.8849 164.851 58.1135C164.831 58.1437 164.803 58.1671 164.77 58.1807Z" fill="#0D1033"/>
<path d="M187.709 73.92C188.405 74.2608 188.986 74.5632 189.6 74.9088C190.214 75.2544 190.795 75.6 191.386 75.96C192.557 76.6944 193.714 77.4576 194.832 78.2976C197.181 79.9908 199.295 81.9873 201.12 84.2352L201.307 84.4608C201.432 84.6288 201.557 84.8016 201.648 84.9408C201.822 85.2211 201.97 85.5167 202.09 85.824C202.278 86.2891 202.421 86.7713 202.517 87.264C202.664 88.0561 202.749 88.8586 202.771 89.664C202.803 91.0827 202.739 92.5019 202.579 93.912C202.277 96.6085 201.759 99.2763 201.029 101.89C200.919 102.289 200.669 102.636 200.325 102.867C199.981 103.097 199.565 103.197 199.154 103.147C198.743 103.097 198.363 102.901 198.084 102.594C197.805 102.288 197.646 101.891 197.635 101.477V101.429C197.558 98.8704 197.52 96.2688 197.357 93.7776C197.293 92.5768 197.168 91.38 196.982 90.192C196.906 89.6919 196.789 89.199 196.632 88.7184C196.587 88.5729 196.525 88.4329 196.45 88.3008C196.411 88.2672 196.426 88.2768 196.45 88.3008C196.466 88.3345 196.485 88.3666 196.507 88.3968L196.368 88.2576C195.565 87.444 194.712 86.6809 193.814 85.9728C192.888 85.2384 191.894 84.5328 190.901 83.856C189.907 83.1792 188.851 82.5168 187.79 81.8832C187.267 81.5616 186.73 81.2544 186.202 80.9232L184.646 80.0448L184.526 79.9776C183.852 79.4904 183.376 78.7764 183.185 77.9664C182.995 77.1565 183.103 76.3051 183.49 75.5685C183.877 74.832 184.517 74.2598 185.292 73.9569C186.067 73.6541 186.925 73.641 187.709 73.92Z" fill="#FFDBA1"/>
<path d="M183.038 70.8767C186.95 70.5791 192.273 75.7055 192.273 75.7055L188.683 83.4623C188.683 83.4623 182.923 82.3439 180.691 79.4975C178.32 76.4543 180.139 71.0975 183.038 70.8767Z" fill="#00C3DF"/>
<path d="M173.971 195.466C173.585 195.499 173.2 195.401 172.877 195.187C172.806 195.123 172.751 195.042 172.718 194.951C172.684 194.861 172.673 194.764 172.685 194.669C172.689 194.61 172.708 194.553 172.74 194.504C172.772 194.454 172.815 194.414 172.867 194.386C173.419 194.083 175.214 195 175.416 195.106C175.436 195.116 175.452 195.132 175.462 195.152C175.472 195.172 175.476 195.194 175.474 195.216C175.469 195.237 175.458 195.256 175.443 195.272C175.428 195.287 175.408 195.298 175.387 195.302C174.921 195.401 174.447 195.456 173.971 195.466ZM173.17 194.534C173.1 194.529 173.031 194.543 172.968 194.573C172.947 194.584 172.93 194.601 172.918 194.621C172.907 194.641 172.9 194.665 172.901 194.688C172.89 194.75 172.896 194.814 172.917 194.874C172.938 194.933 172.974 194.987 173.021 195.029C173.294 195.274 174.034 195.317 175.032 195.154C174.451 194.843 173.821 194.634 173.17 194.534Z" fill="#00C3DF"/>
<path d="M175.368 195.307H175.32C174.787 195.062 173.727 194.093 173.808 193.584C173.808 193.464 173.914 193.31 174.207 193.282C174.312 193.269 174.419 193.279 174.521 193.31C174.623 193.342 174.717 193.394 174.797 193.464C175.363 193.944 175.469 195.149 175.474 195.202C175.474 195.216 175.472 195.231 175.467 195.244C175.462 195.258 175.455 195.27 175.445 195.281C175.435 195.292 175.423 195.3 175.41 195.307C175.397 195.313 175.383 195.316 175.368 195.317V195.307ZM174.293 193.478H174.24C174.043 193.478 174.034 193.579 174.029 193.603C173.976 193.91 174.696 194.674 175.243 195.005C175.201 194.493 175.001 194.007 174.672 193.613C174.566 193.523 174.431 193.476 174.293 193.478Z" fill="#00C3DF"/>
<path d="M169.728 58.656L168.831 58.5216C168.831 58.5216 169.368 59.136 169.728 58.656Z" fill="#0D1033"/>
<path d="M190.992 99.864L191.736 101.395C191.818 101.51 191.693 101.664 191.486 101.702L168.187 105.773C168.024 105.802 167.875 105.744 167.846 105.648L167.405 104.064C167.371 103.954 167.496 103.834 167.674 103.805L190.675 99.7824C190.731 99.7674 190.789 99.767 190.844 99.7813C190.9 99.7956 190.951 99.8241 190.992 99.864Z" fill="white"/>
<path d="M186.24 102.802L186.72 102.715C186.816 102.715 186.883 102.634 186.864 102.576L186.24 100.522C186.218 100.487 186.186 100.461 186.148 100.447C186.109 100.433 186.068 100.432 186.029 100.445L185.549 100.531C185.448 100.531 185.386 100.608 185.4 100.67L185.995 102.725C186.029 102.782 186.125 102.821 186.24 102.802Z" fill="#0D1033"/>
<path d="M169.589 105.71L170.069 105.624C170.165 105.624 170.232 105.542 170.213 105.485L169.617 103.43C169.617 103.368 169.507 103.334 169.411 103.349L168.931 103.435C168.835 103.435 168.768 103.517 168.787 103.574L169.382 105.629C169.397 105.691 169.493 105.725 169.589 105.71Z" fill="#0D1033"/>
<path d="M174.586 104.861L178.344 104.203C178.45 104.203 178.522 104.112 178.502 104.05L177.854 101.813C177.854 101.746 177.734 101.707 177.629 101.726L173.866 102.384C173.76 102.384 173.688 102.47 173.707 102.538L174.355 104.774C174.374 104.837 174.48 104.875 174.586 104.861Z" fill="#F0F1F7"/>
<path d="M197.616 100.598L196.742 104.16L201.005 104.098C201.005 104.098 202.277 101.554 200.789 100.421L197.616 100.598Z" fill="#FFDBA1"/>
<path d="M198.581 106.968L199.339 106.934C199.741 106.916 200.123 106.751 200.412 106.471C200.701 106.19 200.877 105.814 200.909 105.413L201.005 104.078L196.742 104.141L196.867 105.48C196.907 105.9 197.107 106.289 197.426 106.566C197.745 106.843 198.159 106.987 198.581 106.968Z" fill="#FFDBA1"/>
<path d="M89.6449 94.2432L96.5377 102.48C97.1561 103.219 97.9413 103.8 98.8284 104.175C99.7156 104.551 100.679 104.71 101.64 104.64L132.259 102.389C134.544 102.221 136.801 102.967 138.536 104.463C140.27 105.959 141.339 108.082 141.509 110.366L145.671 166.925C145.834 169.207 145.087 171.46 143.591 173.192C142.096 174.923 139.974 175.991 137.693 176.16L52.8001 182.4C50.5151 182.568 48.2569 181.821 46.5223 180.324C44.7877 178.827 43.7188 176.703 43.5505 174.418L38.1793 101.582C38.0617 99.9778 38.5863 98.3921 39.6377 97.1742C40.689 95.9563 42.1811 95.2059 43.7857 95.088L84.5473 92.0832C85.5075 92.0126 86.4706 92.1717 87.3571 92.5473C88.2435 92.9229 89.0278 93.5043 89.6449 94.2432Z" fill="#00C3DF"/>
<g opacity="0.3">
<path d="M89.6449 94.2432L96.5377 102.48C97.1561 103.219 97.9413 103.8 98.8284 104.175C99.7156 104.551 100.679 104.71 101.64 104.64L132.259 102.389C134.544 102.221 136.801 102.967 138.536 104.463C140.27 105.959 141.339 108.082 141.509 110.366L145.671 166.925C145.834 169.207 145.087 171.46 143.591 173.192C142.096 174.923 139.974 175.991 137.693 176.16L52.8001 182.4C50.5151 182.568 48.2569 181.821 46.5223 180.324C44.7877 178.827 43.7188 176.703 43.5505 174.418L38.1793 101.582C38.0617 99.9778 38.5863 98.3921 39.6377 97.1742C40.689 95.9563 42.1811 95.2059 43.7857 95.088L84.5473 92.0832C85.5075 92.0126 86.4706 92.1717 87.3571 92.5473C88.2435 92.9229 89.0278 93.5043 89.6449 94.2432Z" fill="#0D1033"/>
</g>
<path d="M74.2571 97.0138L45.1949 99.1531C44.5366 99.2016 44.0422 99.7745 44.0907 100.433L44.0928 100.462C44.1412 101.12 44.7142 101.614 45.3725 101.566L74.4347 99.4265C75.093 99.378 75.5874 98.8051 75.5389 98.1468L75.5368 98.118C75.4883 97.4597 74.9154 96.9654 74.2571 97.0138Z" fill="white"/>
<path d="M70.081 102.69L45.3178 104.424C44.6577 104.47 44.16 105.042 44.2062 105.703L44.2082 105.731C44.2544 106.391 44.827 106.889 45.4871 106.843L70.2503 105.109C70.9104 105.063 71.408 104.491 71.3618 103.831L71.3598 103.802C71.3136 103.142 70.7411 102.644 70.081 102.69Z" fill="white"/>
<path d="M140.482 172.949L51.2928 179.52C50.2158 179.597 49.1523 179.244 48.3347 178.539C47.5171 177.834 47.0119 176.833 46.9296 175.757L42.8832 120.763C42.8052 119.686 43.1575 118.622 43.863 117.804C44.5684 116.986 45.5694 116.481 46.6464 116.4L135.84 109.834C136.917 109.756 137.982 110.108 138.799 110.813C139.617 111.519 140.122 112.52 140.203 113.597L144.254 168.586C144.33 169.664 143.975 170.728 143.268 171.546C142.561 172.363 141.559 172.868 140.482 172.949Z" fill="#F0F1F7"/>
<path d="M135.832 109.837L47.9177 116.308C45.6731 116.473 43.9875 118.427 44.1527 120.671L48.2005 175.66C48.3657 177.905 50.3192 179.591 52.5638 179.425L140.478 172.954C142.723 172.789 144.408 170.835 144.243 168.591L140.195 113.602C140.03 111.357 138.076 109.671 135.832 109.837Z" fill="white"/>
<path d="M55.4497 179.213L73.8529 177.854L57.1921 123.058L55.4497 179.213Z" fill="#F0F1F7"/>
<path d="M157.829 157.598L69.6434 172.445C68.575 172.62 67.4809 172.364 66.6002 171.735C65.7196 171.105 65.1242 170.152 64.9442 169.085L55.7906 114.72C55.6157 113.652 55.8711 112.559 56.5009 111.679C57.1307 110.799 58.0835 110.204 59.1506 110.026L147.336 95.1792C148.405 95.0029 149.5 95.2577 150.381 95.8876C151.261 96.5175 151.857 97.4711 152.035 98.5392L161.189 152.909C161.361 153.976 161.105 155.067 160.475 155.946C159.846 156.824 158.895 157.418 157.829 157.598Z" fill="white"/>
<path opacity="0.3" d="M147.333 95.1803L60.4048 109.821C58.1854 110.194 56.6892 112.297 57.063 114.516L66.2203 168.888C66.5941 171.107 68.6963 172.603 70.9157 172.23L157.843 157.589C160.063 157.216 161.559 155.113 161.185 152.894L152.028 98.5221C151.654 96.3027 149.552 94.8065 147.333 95.1803Z" fill="#00C3DF"/>
<path opacity="0.2" d="M146.218 106.891L65.2802 120.514C64.81 120.592 64.3281 120.48 63.9397 120.204C63.5512 119.928 63.2877 119.51 63.2066 119.04L62.7554 116.338C62.7162 116.105 62.7233 115.867 62.7761 115.637C62.829 115.407 62.9266 115.19 63.0635 114.998C63.2003 114.806 63.3737 114.642 63.5737 114.517C63.7737 114.392 63.9964 114.308 64.229 114.269L145.167 100.642C145.637 100.562 146.12 100.673 146.508 100.949C146.897 101.226 147.16 101.645 147.24 102.115L147.696 104.818C147.773 105.288 147.66 105.77 147.384 106.158C147.107 106.547 146.688 106.81 146.218 106.891Z" fill="#00C3DF"/>
<path opacity="0.2" d="M147.091 111.754L66.0384 125.4C65.8119 125.437 65.5949 125.518 65.3998 125.639C65.2047 125.759 65.0353 125.918 64.9015 126.104C64.7677 126.291 64.6721 126.502 64.6201 126.725C64.568 126.949 64.5607 127.18 64.5984 127.406L64.9968 129.806C65.0335 130.033 65.1146 130.25 65.2354 130.445C65.3562 130.64 65.5144 130.81 65.7008 130.943C65.8873 131.077 66.0983 131.173 66.3218 131.225C66.5453 131.277 66.7769 131.284 67.0032 131.246L148.056 117.6C148.282 117.563 148.499 117.482 148.693 117.362C148.888 117.241 149.057 117.084 149.191 116.898C149.325 116.712 149.42 116.501 149.473 116.278C149.525 116.056 149.533 115.824 149.496 115.598L149.093 113.198C149.019 112.742 148.766 112.333 148.391 112.062C148.016 111.791 147.548 111.68 147.091 111.754Z" fill="#00C3DF"/>
<path d="M157.954 175.925L157.781 175.474C158.89 175.053 159.915 174.435 160.805 173.65L161.122 174.01C160.19 174.834 159.117 175.483 157.954 175.925Z" fill="#00C3DF"/>
<path d="M163.57 170.842L163.143 170.626C163.95 169.023 164.305 167.231 164.17 165.442L163.642 158.242L164.122 158.208L164.65 165.408C164.789 167.284 164.416 169.162 163.57 170.842Z" fill="#00C3DF"/>
<path d="M154.891 174.898L61.5219 181.771L52.8003 182.4C55.1146 182.229 57.2664 181.146 58.7823 179.389C60.2982 177.632 61.054 175.345 60.8835 173.03L58.0803 134.765C58.0221 134.008 58.1142 133.246 58.3513 132.525C58.5884 131.803 58.9659 131.136 59.462 130.561C59.9581 129.986 60.563 129.515 61.2419 129.174C61.9208 128.834 62.6603 128.631 63.4179 128.578L153.965 121.92C154.723 121.861 155.484 121.953 156.206 122.19C156.929 122.426 157.597 122.804 158.172 123.3C158.748 123.796 159.219 124.401 159.56 125.08C159.901 125.76 160.104 126.5 160.157 127.258L162.975 165.547C163.141 167.859 162.383 170.142 160.868 171.895C159.352 173.648 157.203 174.728 154.891 174.898Z" fill="#00C3DF"/>
</svg>
