<svg width="12" height="12" viewBox="0 0 12 12" fill="none" xmlns="http://www.w3.org/2000/svg">
<path d="M11.8235 6C11.8235 9.3085 9.132 12 5.8235 12C4.354 12 2.9395 11.463 1.8415 10.4885C1.532 10.2135 1.5035 9.7395 1.779 9.4295C2.054 9.12 2.528 9.0915 2.8375 9.367C3.661 10.0975 4.7215 10.5005 5.8235 10.5005C8.305 10.5005 10.3235 8.4815 10.3235 6.0005C10.3235 4.8355 9.865 3.731 9.0765 2.902L8.6145 3.364C8.3225 3.656 7.8235 3.449 7.8235 3.0365V0.9635C7.8235 0.7075 8.031 0.5 8.287 0.5H10.3595C10.772 0.5 10.979 0.999 10.687 1.291L10.1355 1.8425C11.2025 2.951 11.8235 4.434 11.8235 6ZM4.0735 8.0455C4.0735 8.2965 4.273 8.5 4.519 8.5H7.128C7.374 8.5 7.5735 8.2965 7.5735 8.0455C7.5735 7.098 6.9715 6.4095 6.4665 6C6.9715 5.5905 7.5735 4.902 7.5735 3.9545C7.5735 3.7035 7.374 3.5 7.128 3.5H4.519C4.273 3.5 4.0735 3.7035 4.0735 3.9545C4.0735 4.905 4.6795 5.5915 5.185 6C4.679 6.4085 4.0735 7.095 4.0735 8.0455ZM2.34 2.753C2.754 2.753 3.09 2.417 3.09 2.003C3.09 1.589 2.754 1.253 2.34 1.253C1.926 1.253 1.59 1.589 1.59 2.003C1.59 2.417 1.926 2.753 2.34 2.753ZM0.75 3.753C0.336 3.753 0 4.089 0 4.503C0 4.917 0.336 5.253 0.75 5.253C1.164 5.253 1.5 4.917 1.5 4.503C1.5 4.089 1.164 3.753 0.75 3.753ZM0.75 6.7665C0.336 6.7665 0 7.1025 0 7.5165C0 7.9305 0.336 8.2665 0.75 8.2665C1.164 8.2665 1.5 7.9305 1.5 7.5165C1.5 7.1025 1.164 6.7665 0.75 6.7665ZM5.0735 1.5C5.4875 1.5 5.8235 1.164 5.8235 0.75C5.8235 0.336 5.4875 0 5.0735 0C4.6595 0 4.3235 0.336 4.3235 0.75C4.3235 1.164 4.6595 1.5 5.0735 1.5Z" fill="#DF003B"/>
</svg>