<svg width="17" height="19" viewBox="0 0 17 19" fill="none" xmlns="http://www.w3.org/2000/svg">
<path fill-rule="evenodd" clip-rule="evenodd" d="M8.1 7.7C9.59121 7.7 10.8 6.49116 10.8 5C10.8 3.50883 9.59121 2.3 8.1 2.3C6.60879 2.3 5.4 3.50883 5.4 5C5.4 6.49116 6.60879 7.7 8.1 7.7ZM8.1 9.5C10.5853 9.5 12.6 7.48528 12.6 5C12.6 2.51472 10.5853 0.5 8.1 0.5C5.61472 0.5 3.6 2.51472 3.6 5C3.6 7.48528 5.61472 9.5 8.1 9.5Z" fill="#75778A"/>
<path fill-rule="evenodd" clip-rule="evenodd" d="M5.4 13.1C3.41177 13.1 1.8 14.7118 1.8 16.7V17.6C1.8 18.0971 1.39705 18.5 0.9 18.5C0.402948 18.5 0 18.0971 0 17.6V16.7C0 13.7177 2.41766 11.3 5.4 11.3H10.8C13.7823 11.3 16.2 13.7177 16.2 16.7V17.6C16.2 18.0971 15.7971 18.5 15.3 18.5C14.8029 18.5 14.4 18.0971 14.4 17.6V16.7C14.4 14.7118 12.7882 13.1 10.8 13.1H5.4Z" fill="#75778A"/>
</svg>