<svg width="9" height="6" viewBox="0 0 9 6" fill="none" xmlns="http://www.w3.org/2000/svg">
<path d="M8.43228 4.94465C8.35799 5.01899 8.26978 5.07796 8.17268 5.11819C8.07559 5.15843 7.97152 5.17914 7.86642 5.17914C7.76133 5.17914 7.65726 5.15843 7.56017 5.11819C7.46307 5.07796 7.37486 5.01899 7.30057 4.94465L4.85475 2.49936C4.80475 2.44937 4.73693 2.42129 4.66622 2.42129C4.59551 2.42129 4.5277 2.44937 4.47769 2.49936L2.03241 4.94465C1.88241 5.09472 1.67893 5.17906 1.46674 5.17911C1.25456 5.17916 1.05104 5.09492 0.900967 4.94491C0.750893 4.79491 0.666554 4.59143 0.666504 4.37925C0.666454 4.16706 0.750697 3.96354 0.9007 3.81347L3.34652 1.36765C3.51985 1.1943 3.72564 1.05679 3.95212 0.962971C4.1786 0.869152 4.42134 0.820864 4.66649 0.820864C4.91163 0.820864 5.15438 0.869152 5.38086 0.962971C5.60734 1.05679 5.81313 1.1943 5.98646 1.36765L8.43228 3.81347C8.58225 3.96349 8.6665 4.16693 8.6665 4.37906C8.6665 4.59119 8.58225 4.79463 8.43228 4.94465Z" fill="#00C3DF"/>
</svg>
