<svg width="16" height="16" viewBox="0 0 16 16" fill="none" xmlns="http://www.w3.org/2000/svg">
<path
        d="M12.3449 15.5017H4.21978C2.32475 15.5017 0.782227 13.9592 0.782227 12.0642V6.68033C0.782227 5.53656 1.34849 4.47154 2.29725 3.83091L6.35981 1.08962C7.5267 0.300856 9.03735 0.300856 10.2055 1.08962L14.2674 3.83091C15.2162 4.47092 15.7825 5.53656 15.7825 6.68033V12.0642C15.7825 13.9592 14.2399 15.5017 12.3449 15.5017ZM8.28234 2.37464C7.97859 2.37464 7.67358 2.46464 7.4092 2.64402L3.34602 5.38468C2.91538 5.67594 2.65726 6.1597 2.65726 6.6797V12.0635C2.65726 12.9254 3.35789 13.6261 4.21978 13.6261H12.3449C13.2068 13.6261 13.9074 12.9254 13.9074 12.0635V6.68033C13.9074 6.16032 13.6499 5.67656 13.2187 5.38531L9.1561 2.64402C8.89048 2.46464 8.5861 2.37464 8.28234 2.37464Z" fill="currentColor"/>
</svg>
