<svg width="10" height="12" viewBox="0 0 11 13" fill="none" xmlns="http://www.w3.org/2000/svg">
<path d="M5.66653 4.31851C4.47547 4.31851 3.50992 5.2952 3.50992 6.5C3.50992 7.7048 4.47547 8.68149 5.66653 8.68149C6.85759 8.68149 7.82314 7.7048 7.82314 6.5C7.82179 5.29576 6.85703 4.31987 5.66653 4.31851ZM5.66653 7.18149C5.29444 7.18149 4.99281 6.87638 4.99281 6.5C4.99281 6.12362 5.29444 5.81851 5.66653 5.81851C6.03862 5.81851 6.34025 6.12362 6.34025 6.5C6.33999 6.87627 6.0385 7.18123 5.66653 7.18149Z" fill="#75778A"/>
<path d="M10.6095 6.5C10.6087 5.73385 10.4326 4.97827 10.0949 4.29249L10.349 4.11399C10.6849 3.87718 10.7674 3.40979 10.5333 3.06999C10.2992 2.73024 9.83718 2.64676 9.50126 2.8835L9.24669 3.06249C8.49194 2.25671 7.49292 1.7288 6.40795 1.56249V1.25C6.40795 0.835789 6.07599 0.5 5.6665 0.5C5.25702 0.5 4.92506 0.835789 4.92506 1.25V1.56249C3.84009 1.7288 2.84104 2.25671 2.08632 3.06249L1.83175 2.8835C1.49583 2.64676 1.03377 2.73027 0.799658 3.06999C0.565617 3.40979 0.648172 3.87718 0.984023 4.11399L1.23808 4.29249C0.552016 5.68234 0.552016 7.31764 1.23808 8.70748L0.984023 8.88598C0.648149 9.1228 0.565617 9.59019 0.799658 9.92999C1.03377 10.2697 1.49583 10.3532 1.83175 10.1165L2.08632 9.93748C2.84107 10.7433 3.84009 11.2712 4.92506 11.4375V11.75C4.92506 12.1642 5.25702 12.5 5.6665 12.5C6.07599 12.5 6.40795 12.1642 6.40795 11.75V11.4375C7.49292 11.2712 8.49197 10.7433 9.24669 9.93751L9.50126 10.1165C9.83718 10.3532 10.2992 10.2697 10.5333 9.93001C10.7674 9.59021 10.6848 9.12282 10.349 8.88601L10.0949 8.70751C10.4326 8.02173 10.6087 7.26615 10.6095 6.5ZM5.66653 9.99999C3.75557 9.99999 2.20646 8.43298 2.20646 6.5C2.20646 4.56702 3.75557 3.00001 5.66653 3.00001C7.57749 3.00001 9.1266 4.56699 9.1266 6.5C9.12416 8.43198 7.57647 9.99753 5.66653 9.99999Z" fill="#75778A"/>
</svg>
