<svg width="13" height="16" viewBox="0 0 13 16" fill="none" xmlns="http://www.w3.org/2000/svg">
<path
        d="M5.28223 7.10005C5.28223 6.27265 5.95483 5.60005 6.78223 5.60005C7.60963 5.60005 8.28223 6.27265 8.28223 7.10005C8.28223 7.92745 7.60963 8.60005 6.78223 8.60005C5.95483 8.60005 5.28223 7.92745 5.28223 7.10005ZM6.78223 9.20005C5.39083 9.20005 4.13743 10.1462 3.80083 11.45C3.75463 11.6294 3.79423 11.8208 3.90823 11.9672C4.02163 12.1136 4.19623 12.1994 4.38223 12.1994H9.18223C9.36823 12.1994 9.54283 12.1136 9.65623 11.9672C9.76963 11.8202 9.80983 11.6294 9.76363 11.45C9.42703 10.1462 8.17423 9.20005 6.78223 9.20005ZM12.7822 5.30005V11.9C12.7822 13.7198 11.302 15.2 9.48223 15.2H4.08223C2.26243 15.2 0.782227 13.7198 0.782227 11.9V5.30005C0.782227 3.51325 2.20963 2.05345 3.98443 2.00125C4.32163 1.29145 5.04583 0.800049 5.88223 0.800049H7.68223C8.51923 0.800049 9.24283 1.29145 9.58003 2.00125C11.3548 2.05285 12.7822 3.51325 12.7822 5.30005ZM10.9822 5.30005C10.9822 4.47325 10.309 3.80005 9.48223 3.80005H8.88223C8.38483 3.80005 7.98223 3.39745 7.98223 2.90005C7.98223 2.73445 7.84783 2.60005 7.68223 2.60005H5.88223C5.71663 2.60005 5.58223 2.73445 5.58223 2.90005C5.58223 3.39745 5.17963 3.80005 4.68223 3.80005H4.08223C3.25543 3.80005 2.58223 4.47325 2.58223 5.30005V11.9C2.58223 12.7268 3.25543 13.4 4.08223 13.4H9.48223C10.309 13.4 10.9822 12.7268 10.9822 11.9V5.30005Z" fill="currentColor"/>
</svg>
