<svg width="10" height="12" viewBox="0 0 11 13" fill="none" xmlns="http://www.w3.org/2000/svg">
<path d="M9.16652 4.75478V4.02218C9.16652 2.07693 7.59951 0.5 5.6665 0.5C3.73349 0.5 2.16651 2.07693 2.16651 4.02216V4.75476C1.24691 5.22702 0.667629 6.17779 0.666504 7.21675V9.73259C0.668168 11.2603 1.8984 12.4983 3.4165 12.5H7.91651C9.4346 12.4983 10.6649 11.2603 10.6665 9.73259V7.21678C10.6654 6.17782 10.0861 5.22702 9.16652 4.75478ZM5.6665 2.0095C6.77107 2.0095 7.6665 2.9106 7.6665 4.02216V4.44935H3.66651V4.02216C3.66651 2.9106 4.56194 2.0095 5.6665 2.0095ZM9.16652 9.73259C9.16652 10.4273 8.60688 10.9905 7.91653 10.9905H3.41652C2.72617 10.9905 2.16653 10.4273 2.16653 9.73259V7.21678C2.16653 6.52205 2.72617 5.95887 3.41652 5.95887H7.91653C8.60688 5.95887 9.16652 6.52205 9.16652 7.21678V9.73259Z" fill="#75778A"/>
<path d="M5.41652 7.46834H5.91651C6.33072 7.46834 6.66651 7.80626 6.66651 8.22309C6.66651 8.63993 6.33072 8.97784 5.91651 8.97784H5.41652C5.00231 8.97784 4.66652 8.63993 4.66652 8.22309C4.66652 7.80626 5.00231 7.46834 5.41652 7.46834Z" fill="#75778A"/>
</svg>
