<svg width="13" height="13" viewBox="0 0 13 13" fill="none" xmlns="http://www.w3.org/2000/svg">
<path d="M4.66699 11H2.37121C2.25837 10.9997 2.16695 10.9083 2.16669 10.7955V2.20449C2.16697 2.09166 2.25837 2.00026 2.37121 2H4.66699C5.08125 2 5.41708 1.66421 5.41708 1.25C5.41708 0.835789 5.08125 0.5 4.66699 0.5H2.37121C1.43017 0.501102 0.667606 1.26359 0.666504 2.20449V10.7955C0.667606 11.7364 1.43017 12.4989 2.37121 12.5H4.66699C5.08125 12.5 5.41708 12.1642 5.41708 11.75C5.41708 11.3358 5.08125 11 4.66699 11Z" fill="#75778A"/>
<path d="M12.0089 4.90899L10.0677 2.96949C9.77463 2.67664 9.29965 2.67676 9.00677 2.96975C8.71388 3.26274 8.714 3.73766 9.00702 4.03051L10.7132 5.73601L3.91689 5.75C3.50263 5.75 3.1668 6.08579 3.1668 6.5C3.1668 6.91421 3.50263 7.25 3.91689 7.25L10.7407 7.23751L9.00702 8.97102C8.72476 9.2742 8.74175 9.74877 9.04495 10.031C9.33315 10.2992 9.77971 10.299 10.0677 10.0305L12.0074 8.09101C12.8862 7.21234 12.8862 5.78771 12.0074 4.90904L12.0074 4.90902L12.0089 4.90899Z" fill="#75778A"/>
</svg>
