<svg width="16" height="16" viewBox="0 0 16 16" fill="none" xmlns="http://www.w3.org/2000/svg">
<path
        d="M12.3447 2.375H11.9435C11.8053 1.83991 11.4938 1.36568 11.0575 1.02644C10.6212 0.687197 10.0849 0.502071 9.53223 0.5L7.03223 0.5C6.47959 0.502071 5.94322 0.687197 5.50696 1.02644C5.07069 1.36568 4.75913 1.83991 4.62098 2.375H4.21973C3.30835 2.37599 2.43458 2.73848 1.79014 3.38292C1.1457 4.02736 0.783219 4.90112 0.782227 5.8125L0.782227 12.0625C0.783219 12.9739 1.1457 13.8476 1.79014 14.4921C2.43458 15.1365 3.30835 15.499 4.21973 15.5H12.3447C13.2561 15.4988 14.1297 15.1363 14.7741 14.4919C15.4185 13.8475 15.7811 12.9738 15.7822 12.0625V5.8125C15.7811 4.90117 15.4185 4.0275 14.7741 3.3831C14.1297 2.73869 13.2561 2.37616 12.3447 2.375ZM4.21973 4.25H12.3447C12.7591 4.25 13.1566 4.41462 13.4496 4.70765C13.7426 5.00067 13.9072 5.3981 13.9072 5.8125V7.375H2.65723V5.8125C2.65723 5.3981 2.82185 5.00067 3.11487 4.70765C3.4079 4.41462 3.80533 4.25 4.21973 4.25ZM12.3447 13.625H4.21973C3.80533 13.625 3.4079 13.4604 3.11487 13.1674C2.82185 12.8743 2.65723 12.4769 2.65723 12.0625V9.25H7.03223C7.03223 9.58152 7.16392 9.89946 7.39834 10.1339C7.63276 10.3683 7.95071 10.5 8.28223 10.5C8.61375 10.5 8.93169 10.3683 9.16611 10.1339C9.40053 9.89946 9.53223 9.58152 9.53223 9.25H13.9072V12.0625C13.9072 12.4769 13.7426 12.8743 13.4496 13.1674C13.1566 13.4604 12.7591 13.625 12.3447 13.625Z" fill="currentColor"/>
</svg>
