<svg width="17" height="12" viewBox="0 0 17 12" fill="none" xmlns="http://www.w3.org/2000/svg">
<path d="M5.11556 8.66667C5.66784 8.66667 6.11556 8.21895 6.11556 7.66667C6.11556 7.11438 5.66784 6.66667 5.11556 6.66667C4.56328 6.66667 4.11556 7.11438 4.11556 7.66667C4.11556 8.21895 4.56328 8.66667 5.11556 8.66667Z" fill="#0D1033"/>
<path d="M13.1156 0H4.44889C3.47676 0.00105878 2.54474 0.387707 1.85734 1.07511C1.16993 1.76252 0.783285 2.69453 0.782227 3.66667L0.782227 8.33333C0.783285 9.30547 1.16993 10.2375 1.85734 10.9249C2.54474 11.6123 3.47676 11.9989 4.44889 12H13.1156C14.0877 11.9989 15.0197 11.6123 15.7071 10.9249C16.3945 10.2375 16.7812 9.30547 16.7822 8.33333V3.66667C16.7812 2.69453 16.3945 1.76252 15.7071 1.07511C15.0197 0.387707 14.0877 0.00105878 13.1156 0ZM4.44889 2H13.1156C13.4997 2.00008 13.872 2.13282 14.1695 2.37578C14.467 2.61873 14.6714 2.95699 14.7482 3.33333H2.81623C2.89305 2.95699 3.0975 2.61873 3.395 2.37578C3.6925 2.13282 4.06479 2.00008 4.44889 2ZM13.1156 10H4.44889C4.00687 10 3.58294 9.82441 3.27038 9.51184C2.95782 9.19928 2.78223 8.77536 2.78223 8.33333V5.33333H14.7822V8.33333C14.7822 8.77536 14.6066 9.19928 14.2941 9.51184C13.9815 9.82441 13.5576 10 13.1156 10Z" fill="#0D1033"/>
</svg>
