<svg width="16" height="16" viewBox="0 0 16 16" fill="none" xmlns="http://www.w3.org/2000/svg">
<path d="M15.7822 3.93749C15.7801 2.03987 14.2424 0.50208 12.3447 0.5H4.21972C2.3221 0.50208 0.784307 2.03987 0.782227 3.93749V4.56248C0.782461 5.13348 1.0069 5.68156 1.40722 6.08873V12.0625C1.4093 13.9601 2.94712 15.4979 4.84474 15.5H11.7197C13.6174 15.4979 15.1552 13.9601 15.1572 12.0625V6.08876C15.5576 5.68159 15.782 5.13351 15.7822 4.56251V3.93749ZM2.65723 3.93749C2.65723 3.07455 3.35678 2.375 4.21972 2.375H12.3447C13.2077 2.375 13.9072 3.07455 13.9072 3.93749V4.56248C13.9072 4.73507 13.7673 4.87499 13.5947 4.87499H2.96974C2.79715 4.87499 2.65723 4.73507 2.65723 4.56248V3.93749ZM13.2822 12.0625C13.2822 12.9254 12.5827 13.625 11.7197 13.625H4.84474C3.9818 13.625 3.28225 12.9254 3.28225 12.0625V6.74999H13.2822V12.0625Z" fill="#0D1033"/>
<path d="M6.71973 8H9.84474C10.3625 8 10.7822 8.41974 10.7822 8.9375C10.7822 9.45526 10.3625 9.875 9.84474 9.875H6.71973C6.20196 9.875 5.78223 9.45526 5.78223 8.9375C5.78223 8.41974 6.20196 8 6.71973 8Z" fill="#0D1033"/>
</svg>
