<svg width="55" height="16" viewBox="0 0 55 16" fill="none" xmlns="http://www.w3.org/2000/svg">
<g id="Frame" clip-path="url(#clip0_2049_2435)">
<g id="Group">
<path id="Vector" d="M6.2152 2.56723V6.94142H2.19662V2.56723H0.290039V13.009H2.19714V8.77678H6.21468V13.009H8.1223V2.56723H6.2152ZM14.2266 9.63407C14.2266 10.0526 14.0603 10.454 13.7644 10.7499C13.4684 11.0459 13.067 11.2121 12.6485 11.2121C12.23 11.2121 11.8286 11.0459 11.5326 10.7499C11.2367 10.454 11.0704 10.0526 11.0704 9.63407V5.16129H9.26139V9.63407C9.26139 10.5315 9.61789 11.3922 10.2525 12.0267C10.887 12.6613 11.7477 13.0178 12.6451 13.0178C13.5426 13.0178 14.4032 12.6613 15.0378 12.0267C15.6724 11.3922 16.0289 10.5315 16.0289 9.63407V5.16129H14.2266V9.63407ZM27.6309 5.6222C27.6309 4.70504 28.2374 4.41446 28.9017 4.41446C29.4374 4.41446 30.1445 4.8222 30.6075 5.31665L31.792 3.92C31.2005 3.12 30.001 2.56723 29.0188 2.56723C27.056 2.56723 25.6366 3.71665 25.6366 5.6222C25.6366 9.15768 29.9577 8.03562 29.9577 10.0145C29.9577 10.6245 29.3651 11.1634 28.6869 11.1634C27.617 11.1634 27.2702 10.6405 26.7788 10.0872L25.4637 11.4545C26.305 12.4867 27.3424 13.0111 28.5847 13.0111C30.4495 13.0111 31.9494 11.8477 31.9494 10.0289C31.9494 6.10426 27.6278 7.32387 27.6278 5.6222M54.3633 11.3409C53.2944 11.3409 52.9904 10.8785 52.9904 10.1703V7.03484H54.6524V5.4462H52.9904V3.3502L51.1561 4.17342V10.56C51.1561 12.1936 52.2833 13.0168 53.8286 13.0168C54.0712 13.0209 54.3138 13.0013 54.5522 12.959L54.9997 11.3115C54.7979 11.3254 54.5662 11.3394 54.3633 11.3394M21.1127 5.21342C20.2167 5.21342 19.5912 5.47355 18.9863 6.06658V2.62968H17.1747V9.00026C17.1747 11.3848 18.8986 13.0188 20.8361 13.0188C22.9853 13.0188 24.8758 11.3559 24.8758 9.11691C24.8758 6.90581 23.136 5.21497 21.1127 5.21497M21.1014 11.1954C20.8314 11.1954 20.564 11.1422 20.3146 11.0389C20.0652 10.9355 19.8385 10.7841 19.6476 10.5932C19.4567 10.4023 19.3052 10.1756 19.2019 9.92616C19.0986 9.67671 19.0454 9.40936 19.0454 9.13936C19.0454 8.86936 19.0986 8.60201 19.2019 8.35256C19.3052 8.10312 19.4567 7.87646 19.6476 7.68555C19.8385 7.49463 20.0652 7.34319 20.3146 7.23986C20.564 7.13654 20.8314 7.08336 21.1014 7.08336C21.6467 7.08336 22.1696 7.29997 22.5552 7.68555C22.9408 8.07112 23.1574 8.59407 23.1574 9.13936C23.1574 9.68464 22.9408 10.2076 22.5552 10.5932C22.1696 10.9787 21.6467 11.1954 21.1014 11.1954ZM40.7876 9.02194C40.7876 6.77884 38.9011 5.12 36.7478 5.12C34.8108 5.12 33.0864 6.75355 33.0864 9.13858V15.5128H34.898V12.0712C35.5019 12.6632 36.1285 12.9244 37.0235 12.9244C39.0467 12.9244 40.7876 11.2336 40.7876 9.02194ZM39.072 8.99923C39.072 9.54452 38.8554 10.0675 38.4698 10.453C38.0842 10.8386 37.5613 11.0552 37.016 11.0552C36.4707 11.0552 35.9477 10.8386 35.5622 10.453C35.1766 10.0675 34.96 9.54452 34.96 8.99923C34.96 8.45395 35.1766 7.93099 35.5622 7.54542C35.9477 7.15984 36.4707 6.94323 37.016 6.94323C37.5613 6.94323 38.0842 7.15984 38.4698 7.54542C38.8554 7.93099 39.072 8.45395 39.072 8.99923Z" fill="#33475B"/>
<path id="Vector_2" d="M46.641 5.03225V3.21186C46.8816 3.09944 47.0853 2.921 47.2284 2.69731C47.3715 2.47363 47.4481 2.21391 47.4493 1.94838V1.90657C47.4493 1.13238 46.8217 0.504768 46.0475 0.504768H46.0057C45.6339 0.504768 45.2773 0.652458 45.0145 0.915348C44.7516 1.17824 44.6039 1.53479 44.6039 1.90657V1.94838C44.6051 2.21391 44.6817 2.47363 44.8248 2.69731C44.9679 2.921 45.1716 3.09944 45.4121 3.21186V5.03225C44.7208 5.13812 44.0696 5.42478 43.5247 5.86322L38.5321 1.9747C38.5678 1.84619 38.5863 1.71406 38.5884 1.58141C38.589 1.269 38.497 0.963429 38.3239 0.703344C38.1508 0.443258 37.9045 0.240346 37.6161 0.120273C37.3276 0.000200033 37.0101 -0.0316389 36.7036 0.0287836C36.3971 0.089206 36.1154 0.239175 35.8941 0.459722C35.6728 0.680268 35.5219 0.961483 35.4605 1.2678C35.3991 1.57411 35.4299 1.89176 35.549 2.18056C35.6682 2.46937 35.8703 2.71636 36.1298 2.89028C36.3893 3.06421 36.6946 3.15726 37.007 3.15767C37.2803 3.15638 37.5485 3.08342 37.7848 2.94606L42.7009 6.77161C42.2593 7.43879 42.0289 8.22354 42.0397 9.02358C42.0506 9.82362 42.3022 10.6018 42.7618 11.2568L41.2666 12.7525C41.1457 12.7139 41.0198 12.6933 40.8929 12.6916C40.6365 12.6918 40.3858 12.768 40.1727 12.9106C39.9596 13.0532 39.7935 13.2558 39.6954 13.4928C39.5974 13.7297 39.5718 13.9904 39.6219 14.2419C39.672 14.4934 39.7955 14.7244 39.9768 14.9058C40.1581 15.0871 40.3891 15.2106 40.6407 15.2607C40.8922 15.3108 41.1529 15.2852 41.3898 15.1871C41.6268 15.0891 41.8294 14.923 41.972 14.7099C42.1146 14.4967 42.1908 14.2461 42.191 13.9897C42.1893 13.8628 42.1688 13.7368 42.1301 13.616L43.6093 12.1363C44.0917 12.5076 44.6526 12.7636 45.2492 12.8847C45.8458 13.0058 46.4622 12.9887 47.0512 12.8347C47.6401 12.6808 48.1861 12.3941 48.6471 11.9965C49.1081 11.599 49.4721 11.1012 49.711 10.5413C49.95 9.98144 50.0576 9.37427 50.0256 8.76636C49.9937 8.15844 49.823 7.5659 49.5267 7.03414C49.2303 6.50238 48.8162 6.0455 48.316 5.6985C47.8159 5.35151 47.2429 5.1236 46.641 5.03225ZM46.0279 11.0193C45.7545 11.0269 45.4824 10.9795 45.2276 10.8801C44.9729 10.7807 44.7406 10.6312 44.5446 10.4405C44.3486 10.2498 44.1927 10.0217 44.0863 9.7698C43.98 9.51786 43.9251 9.24715 43.9251 8.97367C43.9251 8.70019 43.98 8.42948 44.0863 8.17754C44.1927 7.92561 44.3486 7.69755 44.5446 7.50685C44.7406 7.31614 44.9729 7.16667 45.2276 7.06724C45.4824 6.96782 45.7545 6.92047 46.0279 6.92799C46.5577 6.94655 47.0597 7.17001 47.4281 7.55131C47.7964 7.93261 48.0024 8.44199 48.0027 8.97216C48.003 9.50233 47.7975 10.0119 47.4295 10.3936C47.0615 10.7753 46.5598 10.9992 46.0299 11.0183" fill="#FF7A59"/>
</g>
</g>
<defs>
<clipPath id="clip0_2049_2435">
<rect width="54.7097" height="16" fill="white" transform="translate(0.290039)"/>
</clipPath>
</defs>
</svg>
