<svg width="65" height="14" viewBox="0 0 65 14" fill="none" xmlns="http://www.w3.org/2000/svg">
<g id="Vector">
<path fill-rule="evenodd" clip-rule="evenodd" d="M11.3473 2.51168C12.0388 2.51168 12.5995 1.95144 12.5995 1.26034C12.5995 0.569251 12.0388 0.00900502 11.3473 0.00900502C10.6557 0.00900502 10.0951 0.569251 10.0951 1.26034C10.0951 1.95144 10.6557 2.51168 11.3473 2.51168Z" fill="#017737"/>
<path fill-rule="evenodd" clip-rule="evenodd" d="M12.4717 3.13842H10.2235V10.8463H12.4717V3.13842Z" fill="#017737"/>
<path fill-rule="evenodd" clip-rule="evenodd" d="M47.5266 2.51168C48.2182 2.51168 48.7788 1.95144 48.7788 1.26034C48.7788 0.569251 48.2182 0.00900502 47.5266 0.00900502C46.835 0.00900502 46.2744 0.569251 46.2744 1.26034C46.2744 1.95144 46.835 2.51168 47.5266 2.51168Z" fill="#017737"/>
<path fill-rule="evenodd" clip-rule="evenodd" d="M48.651 3.13842H46.4029V10.8463H48.651V3.13842Z" fill="#017737"/>
<path fill-rule="evenodd" clip-rule="evenodd" d="M65 6.73831C65 4.53823 63.2446 2.96903 61.1354 2.96903C58.7646 2.96903 57.0399 4.61527 57.0399 6.98471C57.0399 9.32357 58.6569 11.0003 61.1354 11.0003C63.2446 11.0003 64.6457 9.69279 64.9074 8.24643H62.7363C62.4897 8.87735 61.766 9.23128 61.0891 9.23128C60.1808 9.21599 59.5034 8.67742 59.3036 7.50799H64.9844L65 6.73831ZM59.3494 6.10745C59.596 4.96923 60.4424 4.69231 61.1349 4.69231C61.8435 4.69231 62.6749 5.04627 62.7821 6.10745H59.3494Z" fill="#017737"/>
<path fill-rule="evenodd" clip-rule="evenodd" d="M55.3771 3.13842H57.6866L54.5452 10.8463H52.175L49.0337 3.13842H51.4513L53.4064 8.24578L55.3771 3.13842Z" fill="#017737"/>
<path fill-rule="evenodd" clip-rule="evenodd" d="M43.0143 4.36895C43.538 3.55346 44.3694 3.03016 45.3236 3.03016C45.4931 3.03016 45.7084 3.04543 45.8473 3.09193V5.1997C45.6625 5.16917 45.4625 5.1539 45.2778 5.1539C43.8304 5.1539 43.0761 6.21578 43.0761 7.73845V10.8463H40.844V5.16917C40.844 5.04632 40.7975 5.01509 40.6593 5.01509H39.889V3.13843H41.8288C42.6143 3.13843 43.0143 3.50766 43.0143 4.2003V4.36895Z" fill="#017737"/>
<path fill-rule="evenodd" clip-rule="evenodd" d="M39.4883 8.96899C39.3654 8.96899 39.3341 8.93841 39.3341 8.81489V1.12294C39.3341 0.353956 38.9341 0 38.118 0H36.1629V1.86139H36.8866C37.0249 1.86139 37.0714 1.9072 37.0714 2.03074V3.84632C36.779 3.46183 35.963 2.96907 34.8698 2.96907C32.6987 2.96907 31.1131 4.61531 31.1131 6.98471C31.1131 9.39998 32.6376 11.0004 34.808 11.0004C36.0241 11.0004 36.8866 10.3848 37.2096 9.87743C37.2401 10.2161 37.4714 10.847 38.3027 10.847H40.2891V8.97034H39.4883V8.96899ZM35.2698 9.15358C34.1919 9.15358 33.4072 8.32284 33.4072 6.98406C33.4072 5.70705 34.2079 4.84573 35.2851 4.84573C36.5012 4.84573 37.1172 5.92286 37.1172 6.96877C37.1172 8.59972 36.1324 9.15358 35.2698 9.15358Z" fill="#017737"/>
<path fill-rule="evenodd" clip-rule="evenodd" d="M30.62 6.73831C30.62 4.53823 28.865 2.96903 26.7558 2.96903C24.3847 2.96903 22.6602 4.61527 22.6602 6.98471C22.6602 9.32357 24.2771 11.0003 26.7558 11.0003C28.865 11.0003 30.2658 9.69279 30.5277 8.24643H28.3566C28.1101 8.87735 27.3864 9.23128 26.7092 9.23128C25.8008 9.21599 25.1237 8.67742 24.9236 7.50799H30.6048L30.62 6.73831ZM24.9702 6.10745C25.2167 4.96923 26.0633 4.69231 26.7558 4.69231C27.4642 4.69231 28.2955 5.04627 28.4032 6.10745H24.9702Z" fill="#017737"/>
<path fill-rule="evenodd" clip-rule="evenodd" d="M18.5348 2.96903C17.2722 2.96903 16.3791 3.63044 16.0408 4.19955C15.979 3.87613 15.7637 3.13768 14.9018 3.13768H13.0239V5.01504H13.7934C13.9316 5.01504 13.9628 5.04557 13.9628 5.16911V13.9999H16.211V10.5846L16.1957 10.0308C16.5186 10.5694 17.3812 11.0003 18.4279 11.0003C20.6295 11.0003 22.1692 9.36939 22.1692 6.98471C22.1678 4.58404 20.7052 2.96903 18.5348 2.96903ZM17.9646 9.15352C16.7485 9.15352 16.163 8.06115 16.163 7.01524C16.163 5.41547 17.1333 4.84569 17.9952 4.84569C19.0418 4.84569 19.8731 5.72293 19.8731 6.99925C19.8738 8.50742 18.8578 9.15352 17.9646 9.15352Z" fill="#017737"/>
<path fill-rule="evenodd" clip-rule="evenodd" d="M9.69713 6.98471C9.69713 9.36939 8.1574 11.0004 5.95579 11.0004C4.90914 11.0004 4.04655 10.5694 3.72361 10.0308L3.73888 10.5846V14H1.49144V5.16914C1.49144 5.04629 1.46088 5.01506 1.32198 5.01506H0.551758V3.13841H2.43042C3.29231 3.13841 3.5083 3.87685 3.56942 4.20027C3.90835 3.63117 4.80079 2.96976 6.06343 2.96976C8.23445 2.96906 9.69713 4.58407 9.69713 6.98471ZM7.40312 7C7.40312 5.72298 6.57179 4.84642 5.52448 4.84642C4.66259 4.84642 3.69235 5.41552 3.69235 7.01594C3.69235 8.06185 4.27713 9.15428 5.49392 9.15428C6.38705 9.15358 7.40312 8.50742 7.40312 7Z" fill="#017737"/>
</g>
</svg>
