<svg width="55" height="24" viewBox="0 0 55 24" fill="none" xmlns="http://www.w3.org/2000/svg">
<g id="zoho-logo-web 1" clip-path="url(#clip0_2049_2445)">
<g id="Group">
<g id="Group_2">
<g id="Group_3">
<path id="Vector" d="M24.8194 18.8267C24.4087 18.8267 23.9927 18.7413 23.5927 18.5653L15.0594 14.7627C13.5341 14.0853 12.8461 12.288 13.5234 10.7627L17.3261 2.22933C18.0034 0.704 19.8007 0.016 21.3261 0.693333L29.8594 4.496C31.3847 5.17333 32.0727 6.97067 31.3954 8.496L27.5927 17.0293C27.0861 18.16 25.9767 18.8267 24.8194 18.8267ZM24.3021 16.9653C24.9474 17.2533 25.7047 16.96 25.9927 16.32L29.7954 7.78667C30.0834 7.14133 29.7901 6.384 29.1501 6.096L20.6114 2.29333C19.9661 2.00533 19.2087 2.29867 18.9207 2.93867L15.1181 11.472C14.8301 12.1173 15.1234 12.8747 15.7634 13.1627L24.3021 16.9653Z" fill="#089949"/>
</g>
<g id="Group_4">
<path id="Vector_2" d="M51.5872 18.832H42.2432C40.5739 18.832 39.2139 17.472 39.2139 15.8027V6.45867C39.2139 4.78934 40.5739 3.42934 42.2432 3.42934H51.5872C53.2565 3.42934 54.6165 4.78934 54.6165 6.45867V15.8027C54.6165 17.472 53.2565 18.832 51.5872 18.832ZM42.2432 5.17867C41.5392 5.17867 40.9632 5.75467 40.9632 6.45867V15.8027C40.9632 16.5067 41.5392 17.0827 42.2432 17.0827H51.5872C52.2912 17.0827 52.8672 16.5067 52.8672 15.8027V6.45867C52.8672 5.75467 52.2912 5.17867 51.5872 5.17867H42.2432Z" fill="#F9B21D"/>
</g>
<path id="Vector_3" d="M16.595 8.17067L15.3364 10.9867C15.3204 11.0187 15.3044 11.0453 15.2884 11.072L15.779 14.1013C15.891 14.8 15.4164 15.456 14.723 15.568L5.49636 17.0613C5.16036 17.1147 4.81903 17.0347 4.54169 16.8373C4.26436 16.64 4.08303 16.3413 4.02969 16.0053L2.53636 6.77867C2.48303 6.44267 2.56303 6.10133 2.76036 5.824C2.95769 5.54667 3.25636 5.36533 3.59236 5.312L12.819 3.81867C12.8884 3.808 12.9577 3.80267 13.0217 3.80267C13.635 3.80267 14.1844 4.25067 14.2857 4.88L14.7817 7.93067L16.083 5.01333L16.0137 4.60267C15.747 2.95467 14.1897 1.82933 12.5417 2.096L3.31503 3.58933C2.52036 3.712 1.81636 4.144 1.34703 4.8C0.872359 5.456 0.685692 6.256 0.813692 7.056L2.30703 16.2827C2.43503 17.0827 2.86703 17.7813 3.52303 18.256C4.04036 18.6347 4.65369 18.8267 5.28836 18.8267C5.44836 18.8267 5.61369 18.816 5.77903 18.7893L15.0057 17.296C16.6537 17.0293 17.779 15.472 17.5124 13.824L16.595 8.17067Z" fill="#E42527"/>
<g id="Group_5">
<path id="Vector_4" d="M27.6615 12.576L29.0162 9.54134L28.6322 6.72C28.5842 6.384 28.6748 6.048 28.8828 5.776C29.0908 5.504 29.3895 5.328 29.7308 5.28534L38.9895 4.02667C39.0482 4.02134 39.1068 4.016 39.1655 4.016C39.4428 4.016 39.7095 4.10667 39.9388 4.27734C39.9815 4.30934 40.0188 4.34667 40.0562 4.37867C40.4668 3.94667 41.0055 3.63734 41.6082 3.504C41.4375 3.26934 41.2348 3.06134 40.9948 2.88C40.3495 2.38934 39.5548 2.18134 38.7548 2.288L29.4855 3.54667C28.6855 3.65334 27.9708 4.06934 27.4855 4.71467C26.9948 5.36 26.7868 6.15467 26.8935 6.95467L27.6615 12.576Z" fill="#226DB4"/>
<path id="Vector_5" d="M43.4166 14.1387L42.2006 5.17867C41.5179 5.2 40.9686 5.76533 40.9686 6.45333V9.08267L41.6886 14.3733C41.7366 14.7093 41.6459 15.0453 41.4379 15.3173C41.2299 15.5893 40.9312 15.7653 40.5899 15.808L31.3312 17.0667C30.9952 17.1147 30.6592 17.024 30.3872 16.816C30.1152 16.608 29.9392 16.3093 29.8966 15.968L29.4699 12.8267L28.1152 15.8613L28.1632 16.2027C28.2699 17.0027 28.6859 17.7173 29.3312 18.2027C29.8646 18.608 30.4992 18.8213 31.1606 18.8213C31.2992 18.8213 31.4379 18.8107 31.5766 18.7947L40.8246 17.5467C41.6246 17.44 42.3392 17.024 42.8246 16.3787C43.3152 15.7333 43.5232 14.9387 43.4166 14.1387Z" fill="#226DB4"/>
</g>
</g>
<g id="Group_6">
<path id="Vector_6" d="M17.2938 23.264L18.6165 21.312H17.5285C17.4698 21.312 17.4218 21.264 17.4218 21.2053V20.944C17.4218 20.8853 17.4698 20.8373 17.5285 20.8373H19.3151C19.3738 20.8373 19.4218 20.8853 19.4218 20.944V21.0453C19.4218 21.0667 19.4165 21.088 19.4058 21.104L18.1098 23.056H19.2725C19.3311 23.056 19.3791 23.104 19.3791 23.1627V23.424C19.3791 23.4827 19.3311 23.5307 19.2725 23.5307H17.3845C17.3258 23.5307 17.2778 23.4827 17.2778 23.424V23.328C17.2725 23.3013 17.2831 23.28 17.2938 23.264Z" fill="black"/>
<path id="Vector_7" d="M22.8613 22.1653C22.8613 21.3653 23.448 20.7893 24.248 20.7893C25.0747 20.7893 25.6347 21.3547 25.6347 22.1707C25.6347 22.9973 25.064 23.568 24.2373 23.568C23.4053 23.568 22.8613 22.9973 22.8613 22.1653ZM25 22.176C25 21.6907 24.7653 21.2747 24.2373 21.2747C23.704 21.2747 23.5013 21.7067 23.5013 22.1973C23.5013 22.6613 23.752 23.088 24.264 23.088C24.792 23.0827 25 22.6293 25 22.176Z" fill="black"/>
<path id="Vector_8" d="M29.4269 20.832H29.8216C29.8803 20.832 29.9283 20.88 29.9283 20.9387V21.9307H31.0483V20.9387C31.0483 20.88 31.0963 20.832 31.1549 20.832H31.5496C31.6083 20.832 31.6563 20.88 31.6563 20.9387V23.4187C31.6563 23.4773 31.6083 23.5253 31.5496 23.5253H31.1603C31.1016 23.5253 31.0536 23.4773 31.0536 23.4187V22.416H29.9336V23.4187C29.9336 23.4773 29.8856 23.5253 29.8269 23.5253H29.4323C29.3736 23.5253 29.3256 23.4773 29.3256 23.4187V20.9387C29.3203 20.88 29.3683 20.832 29.4269 20.832Z" fill="black"/>
<path id="Vector_9" d="M35.3418 22.1653C35.3418 21.3653 35.9285 20.7893 36.7285 20.7893C37.5551 20.7893 38.1151 21.3547 38.1151 22.1707C38.1151 22.9973 37.5445 23.568 36.7178 23.568C35.8858 23.568 35.3418 22.9973 35.3418 22.1653ZM37.4751 22.176C37.4751 21.6907 37.2405 21.2747 36.7125 21.2747C36.1791 21.2747 35.9765 21.7067 35.9765 22.1973C35.9765 22.6613 36.2271 23.088 36.7391 23.088C37.2671 23.0827 37.4751 22.6293 37.4751 22.176Z" fill="black"/>
</g>
</g>
</g>
<defs>
<clipPath id="clip0_2049_2445">
<rect width="54.6133" height="24" fill="white" transform="translate(0.386719)"/>
</clipPath>
</defs>
</svg>
