<svg width="6" height="10" viewBox="0 0 6 10" fill="none" xmlns="http://www.w3.org/2000/svg">
<path id="Vector" d="M0.568992 0.29278C0.476068 0.385645 0.402352 0.495911 0.352059 0.617275C0.301765 0.738641 0.275879 0.868727 0.275879 1.0001C0.275879 1.13147 0.301765 1.26156 0.352059 1.38292C0.402352 1.50429 0.476068 1.61455 0.568992 1.70742L3.6256 4.76469C3.68809 4.8272 3.72319 4.91196 3.72319 5.00035C3.72319 5.08874 3.68809 5.1735 3.6256 5.23601L0.568993 8.29262C0.3814 8.48012 0.275976 8.73447 0.275914 8.9997C0.275851 9.26493 0.381155 9.51933 0.568659 9.70692C0.756163 9.89451 1.01051 9.99994 1.27574 10C1.54098 10.0001 1.79537 9.89476 1.98296 9.70725L5.04023 6.64998C5.25692 6.43332 5.42881 6.17609 5.54609 5.89298C5.66336 5.60988 5.72372 5.30645 5.72372 5.00002C5.72372 4.69359 5.66336 4.39016 5.54609 4.10705C5.42881 3.82395 5.25692 3.56672 5.04023 3.35005L1.98296 0.29278C1.79544 0.105312 1.54114 -5.53062e-08 1.27598 -4.37157e-08C1.01082 -3.21253e-08 0.756516 0.105312 0.568992 0.29278Z" fill="currentColor"/>
</svg>
