<svg width="10" height="10" viewBox="0 0 10 10" fill="none" xmlns="http://www.w3.org/2000/svg">
<path d="M9.24255 8.18189L6.06057 4.99991L9.24255 1.81793C9.53544 1.52503 9.53544 1.05016 9.24255 0.757266C8.94966 0.464375 8.47478 0.464375 8.18189 0.757266L4.99991 3.93925L1.81793 0.757266C1.52503 0.464375 1.05016 0.464375 0.757266 0.757266C0.464375 1.05016 0.464375 1.52503 0.757266 1.81793L3.93925 4.99991L0.757266 8.18189C0.464375 8.47478 0.464375 8.94966 0.757266 9.24255C1.05016 9.53544 1.52503 9.53544 1.81793 9.24255L4.99991 6.06057L8.18189 9.24255C8.47478 9.53544 8.94966 9.53544 9.24255 9.24255C9.53544 8.94966 9.53544 8.47478 9.24255 8.18189Z" fill="#75778A"/>
</svg>
