<svg width="14" height="14" viewBox="0 0 14 14" fill="none" xmlns="http://www.w3.org/2000/svg">
<path d="M12.1268 1.87197C11.5673 1.3136 10.8091 1 10.0187 1C9.22825 1 8.47009 1.3136 7.9106 1.87197L6.78795 2.99462L1.73624 8.04658C1.64441 8.13829 1.58487 8.25736 1.5666 8.38585L1.00507 12.315C0.992894 12.4001 0.999154 12.4868 1.02342 12.5693C1.0477 12.6518 1.08941 12.7281 1.14574 12.7931C1.20208 12.858 1.27172 12.9101 1.34994 12.9458C1.42816 12.9815 1.51314 13 1.59913 13C1.62756 13.0001 1.65596 12.998 1.6841 12.994L5.61352 12.4328C5.74198 12.4142 5.86099 12.3546 5.95279 12.2628L12.1274 6.08876C12.4043 5.8119 12.624 5.48321 12.7738 5.12145C12.9237 4.75968 13.0008 4.37194 13.0008 3.98037C13.0008 3.58879 12.9237 3.20105 12.7738 2.83929C12.624 2.47753 12.4037 2.14883 12.1268 1.87197ZM5.2455 11.2731L2.30642 11.6927L2.72646 8.75386L7.21238 4.26759L9.73184 6.78687L5.2455 11.2731ZM11.2781 5.24028L10.5802 5.93839L8.06062 3.41898L8.75909 2.72046C9.09848 2.3966 9.54958 2.21591 10.0187 2.21591C10.4878 2.21591 10.9389 2.3966 11.2783 2.72046C11.6124 3.05466 11.8 3.50784 11.8 3.98037C11.8 4.4529 11.6121 4.90608 11.2781 5.24028Z" fill="#75778A" stroke="#75778A" stroke-width="0.3"/>
</svg>
