<svg width="17" height="20" viewBox="0 0 17 20" fill="none" xmlns="http://www.w3.org/2000/svg">
<g id="Vector">
<path
        d="M8.49993 0.243902C6.19897 0.243902 4.31868 2.12434 4.31868 4.42528C4.31868 6.72622 6.19897 8.60586 8.49993 8.60586C10.8009 8.60586 12.6812 6.72622 12.6812 4.42528C12.6812 2.12434 10.8009 0.243902 8.49993 0.243902ZM8.49993 1.63748C10.0477 1.63748 11.2871 2.87756 11.2871 4.42528C11.2871 5.97301 10.0477 7.21228 8.49993 7.21228C6.9522 7.21228 5.71226 5.97301 5.71226 4.42528C5.71226 2.87756 6.9522 1.63748 8.49993 1.63748ZM7.10584 10.0001C3.64332 10.0001 0.834479 12.8094 0.834479 16.2719V19.7561H2.22805V16.2719C2.22805 13.8715 3.92207 11.9083 6.19067 11.4846L5.0363 16.1026C5.00714 16.2193 5.00868 16.3415 5.04077 16.4574C5.07286 16.5733 5.13441 16.679 5.21943 16.7641L8.0071 19.5518C8.07182 19.6165 8.14865 19.6679 8.23321 19.7029C8.31777 19.7379 8.4084 19.7559 8.49992 19.7559C8.59145 19.7559 8.68208 19.7379 8.76664 19.7029C8.85119 19.6679 8.92803 19.6165 8.99274 19.5518L11.7799 16.7641C11.8649 16.679 11.9265 16.5733 11.9586 16.4574C11.9907 16.3415 11.9922 16.2193 11.963 16.1026L10.8087 11.4846C13.0773 11.9083 14.7718 13.8715 14.7718 16.2719V19.7561H16.1654V16.2719C16.1654 12.8094 13.356 10.0001 9.89351 10.0001C9.78763 10.0001 9.68316 10.0242 9.58801 10.0707C9.49287 10.1171 9.40955 10.1846 9.3444 10.2681C9.27924 10.3515 9.23396 10.4487 9.21198 10.5523C9.19 10.6558 9.1919 10.763 9.21755 10.8657L10.5154 16.0578L8.49993 18.0733L6.4839 16.0578L7.7823 10.8657C7.80796 10.763 7.80986 10.6557 7.78785 10.5521C7.76585 10.4485 7.72051 10.3514 7.6553 10.2679C7.59009 10.1844 7.50671 10.1169 7.4115 10.0705C7.31629 10.0241 7.21175 10 7.10584 10.0001Z" fill="currentColor"/>
<path fill-rule="evenodd" clip-rule="evenodd"
      d="M4.07478 4.42528C4.07478 1.98965 6.06426 0 8.49993 0C10.9356 0 12.9251 1.98965 12.9251 4.42528C12.9251 6.86098 10.9355 8.84976 8.49993 8.84976C6.06432 8.84976 4.07478 6.86098 4.07478 4.42528ZM8.49993 0.487805C6.33369 0.487805 4.56258 2.25904 4.56258 4.42528C4.56258 6.59147 6.33362 8.36196 8.49993 8.36196C10.6662 8.36196 12.4373 6.59147 12.4373 4.42528C12.4373 2.25904 10.6662 0.487805 8.49993 0.487805ZM8.49993 1.88138C7.08692 1.88138 5.95616 3.01225 5.95616 4.42528C5.95616 5.83823 7.08683 6.96838 8.49993 6.96838C9.91297 6.96838 11.0432 5.83829 11.0432 4.42528C11.0432 3.01219 9.91288 1.88138 8.49993 1.88138ZM5.46836 4.42528C5.46836 2.74287 6.81748 1.39358 8.49993 1.39358C10.1824 1.39358 11.531 2.74293 11.531 4.42528C11.531 6.10773 10.1823 7.45618 8.49993 7.45618C6.81757 7.45618 5.46836 6.10779 5.46836 4.42528ZM7.10574 9.75618C3.50853 9.75623 0.590576 12.6748 0.590576 16.2719L7.10574 9.75618ZM7.10584 10.244C3.77804 10.244 1.07838 12.9441 1.07838 16.2719V19.5122H1.98415V16.2719C1.98415 13.7522 3.76368 11.6898 6.1459 11.2449L6.51945 11.1751L5.27293 16.1618C5.25398 16.2376 5.25498 16.317 5.27583 16.3924C5.2967 16.4677 5.33673 16.5365 5.39197 16.5917L8.17957 19.3793C8.22166 19.4214 8.27162 19.4548 8.32655 19.4776C8.38151 19.5003 8.44042 19.512 8.49992 19.512C8.55943 19.512 8.61834 19.5003 8.6733 19.4776C8.72822 19.4548 8.77817 19.4214 8.82026 19.3793L11.6074 16.5917C11.6626 16.5365 11.7026 16.4677 11.7235 16.3924C11.7444 16.317 11.7454 16.2376 11.7264 16.1618L10.4799 11.1751L10.8534 11.2449C13.2356 11.6897 15.0157 13.7522 15.0157 16.2719V19.5122H15.9215V16.2719C15.9215 12.9441 13.2214 10.244 9.89358 10.244M7.10574 9.75618C7.2486 9.75613 7.3898 9.78858 7.51837 9.85125C7.64694 9.91392 7.75948 10.0051 7.84749 10.1177C7.93549 10.2304 7.99671 10.3615 8.02643 10.5014C8.05614 10.6413 8.05358 10.7861 8.01894 10.9248L6.75402 15.983L8.49991 17.7284L10.2453 15.983L8.98093 10.9249C8.94631 10.7862 8.94372 10.6415 8.97339 10.5016C9.00306 10.3618 9.0642 10.2306 9.15215 10.118C9.24011 10.0053 9.35258 9.91417 9.48102 9.85147C9.60955 9.78873 9.7506 9.75622 9.89343 9.75618C13.4907 9.75618 16.4093 12.6747 16.4093 16.2719V20H14.5279V16.2719C14.5279 14.1263 13.1043 12.3496 11.1417 11.8113L12.1996 16.0435C12.239 16.201 12.2369 16.366 12.1936 16.5225C12.1503 16.679 12.0672 16.8216 11.9524 16.9365L9.16522 19.7242C9.07788 19.8116 8.97416 19.8809 8.85998 19.9282C8.74582 19.9755 8.62347 19.9998 8.49992 19.9998C8.37638 19.9998 8.25403 19.9755 8.13987 19.9282C8.02569 19.8809 7.92197 19.8116 7.83464 19.7242L5.04697 16.9366C4.93217 16.8217 4.84902 16.679 4.80571 16.5225C4.76239 16.366 4.76031 16.201 4.79968 16.0435L5.8576 11.8113C3.89513 12.3496 2.47196 14.1262 2.47196 16.2719V20H0.590576V16.2719M7.10584 10.244C7.17477 10.244 7.24281 10.2596 7.30463 10.2897L7.10584 10.244ZM9.89358 10.244C9.82469 10.244 9.75674 10.2597 9.695 10.2898C9.63316 10.32 9.579 10.3639 9.53664 10.4182C9.49429 10.4724 9.46485 10.5356 9.45057 10.6029C9.43628 10.6702 9.43752 10.7398 9.45417 10.8066L10.7856 16.1326L8.49995 18.4182L6.21377 16.1326L7.54567 10.8067C7.56232 10.7399 7.56357 10.6701 7.54927 10.6028C7.53498 10.5355 7.50553 10.4724 7.46311 10.4181C7.42069 10.3638 7.36648 10.3199 7.30463 10.2897" fill="currentColor"/>
</g>
</svg>
