<svg width="14" height="14" viewBox="0 0 14 14" fill="none" xmlns="http://www.w3.org/2000/svg">
<g id="Vector">
<path fill-rule="evenodd" clip-rule="evenodd" d="M6.99836 5.52637C6.18459 5.52637 5.52503 6.18594 5.52503 6.99971C5.52503 7.81326 6.18459 8.47283 6.99836 8.47283C7.81213 8.47283 8.4717 7.81326 8.4717 6.99971C8.4717 6.18594 7.81213 5.52637 6.99836 5.52637Z" fill="currentColor"/>
<path fill-rule="evenodd" clip-rule="evenodd"
      d="M11.3339 11.7297L7.01303 11.7294C7.01237 11.7294 7.01171 11.7297 7.01127 11.7297C7.01061 11.7297 7.00995 11.7294 7.0095 11.7294H6.99827C6.16181 11.7275 5.40531 11.5221 4.72835 11.1117C4.04675 10.7002 3.50791 10.1365 3.1138 9.42206C2.71859 8.70764 2.52054 7.90401 2.52054 7.01313C2.52054 6.10463 2.71859 5.29372 3.1138 4.57842C3.50791 3.86401 4.04675 3.30027 4.72835 2.88876C5.40884 2.47615 6.16952 2.26973 7.01127 2.26973C7.86822 2.26973 8.63396 2.47615 9.3063 2.88876C9.97865 3.30027 10.5085 3.86401 10.8953 4.57842C11.2824 5.29372 11.4762 6.10463 11.4762 7.01313V11.7294H11.3747L11.3339 11.7297ZM10.5422 0.921079C9.49928 0.307336 8.32291 0.000244141 7.01127 0.000244141C5.69941 0.000244141 4.51796 0.307336 3.46693 0.921079C2.41568 1.53482 1.58319 2.3715 0.969443 3.43069C0.354599 4.49009 0.0488281 5.68497 0.0488281 7.01313C0.0488281 8.34129 0.329925 9.53199 0.893441 10.5821C1.45696 11.6332 2.22579 12.4657 3.20192 13.0794C4.17717 13.6943 5.27864 14.0002 6.50613 14.0002C8.46588 14.0002 13.9479 13.9251 13.9479 13.9251V7.01313C13.9479 5.68497 13.6411 4.49009 13.0273 3.43069C12.4136 2.3715 11.585 1.53482 10.5422 0.921079Z" fill="currentColor"/>
</g>
</svg>
