<svg width="10" height="12" viewBox="0 0 10 12" fill="none" xmlns="http://www.w3.org/2000/svg">
<path id="Vector" d="M8.84808 3.85495L4.29673 0.515457C3.90045 0.224614 3.43133 0.049294 2.94143 0.00896607C2.45154 -0.0313619 1.96006 0.0648802 1.52156 0.287005C1.08306 0.50913 0.714707 0.848446 0.457403 1.26727C0.200099 1.6861 0.0639138 2.16804 0.0639698 2.65959V9.33858C0.0630193 9.83033 0.198593 10.3127 0.455591 10.7319C0.71259 11.1512 1.08092 11.4909 1.51957 11.7131C1.95822 11.9354 2.44996 12.0316 2.94002 11.9909C3.43009 11.9502 3.89924 11.7743 4.29523 11.4827L8.84908 8.14322C9.18595 7.89634 9.45991 7.57356 9.64875 7.20103C9.83759 6.82851 9.936 6.41674 9.936 5.99908C9.936 5.58143 9.83759 5.16966 9.64875 4.79714C9.45991 4.42461 9.18595 4.10183 8.84908 3.85495H8.84808ZM7.96081 6.93336L3.40946 10.2729C3.23678 10.3997 3.03231 10.4763 2.81875 10.4939C2.60519 10.5116 2.39092 10.4697 2.19975 10.3729C2.00857 10.2761 1.84798 10.1282 1.73583 9.94556C1.62367 9.76297 1.56433 9.55286 1.56442 9.33858V2.65959C1.56212 2.445 1.62054 2.23412 1.73292 2.05129C1.84531 1.86847 2.00709 1.72113 2.1996 1.62629C2.3626 1.5426 2.54304 1.49856 2.72626 1.49775C2.9718 1.49896 3.2105 1.5787 3.40746 1.72532L7.95881 5.06481C8.10559 5.17239 8.22496 5.31304 8.30725 5.47536C8.38953 5.63768 8.4324 5.8171 8.4324 5.99908C8.4324 6.18107 8.38953 6.36049 8.30725 6.52281C8.22496 6.68513 8.10559 6.82578 7.95881 6.93336H7.96081Z" fill="#75778A"/>
</svg>
