<svg width="14" height="11" viewBox="0 0 14 11" fill="none" xmlns="http://www.w3.org/2000/svg">
<g id="Vector">
<path d="M13.4389 3.62478C12.0223 1.43917 9.60383 0.109884 6.99939 0.0854492C4.39497 0.109884 1.97647 1.43917 0.559892 3.62478C-0.186631 4.72035 -0.186631 6.16117 0.559892 7.25676C1.97567 9.44372 4.39431 10.7744 6.99941 10.7996C9.60383 10.7752 12.0223 9.44589 13.4389 7.26028C14.187 6.16389 14.187 4.72114 13.4389 3.62478ZM11.9894 6.26344C10.9079 7.97888 9.02726 9.02546 6.99939 9.0405C4.97155 9.02549 3.09092 7.97888 2.00937 6.26344C1.6722 5.76809 1.6722 5.11694 2.00937 4.62162C3.09089 2.90618 4.97152 1.85959 6.99939 1.84456C9.02723 1.85957 10.9079 2.90618 11.9894 4.62162C12.3266 5.11694 12.3266 5.76809 11.9894 6.26344Z" fill="currentColor"/>
<path d="M6.99939 7.78798C8.29475 7.78798 9.34486 6.73788 9.34486 5.44251C9.34486 4.14715 8.29475 3.09704 6.99939 3.09704C5.70402 3.09704 4.65392 4.14715 4.65392 5.44251C4.65392 6.73788 5.70402 7.78798 6.99939 7.78798Z" fill="currentColor"/>
</g>
</svg>
