<svg width="833" height="837" viewBox="0 0 833 837" fill="none" xmlns="http://www.w3.org/2000/svg">
<g opacity="0.5">
<path fill-rule="evenodd" clip-rule="evenodd" d="M440.499 349.731C388.917 349.731 347.111 391.472 347.111 442.972C347.111 494.458 388.917 536.199 440.499 536.199C492.08 536.199 533.887 494.458 533.887 442.972C533.887 391.472 492.08 349.731 440.499 349.731Z" fill="#F0F1F7"/>
<path fill-rule="evenodd" clip-rule="evenodd" d="M715.309 742.304L441.428 742.29C441.387 742.29 441.345 742.304 441.317 742.304C441.275 742.304 441.233 742.29 441.205 742.29H440.493C387.474 742.165 339.523 729.171 296.613 703.198C253.41 677.156 219.255 641.479 194.274 596.267C169.224 551.054 156.671 500.195 156.671 443.816C156.671 386.321 169.224 335.002 194.274 289.733C219.255 244.521 253.41 208.845 296.613 182.802C339.746 156.689 387.962 143.626 441.317 143.626C495.635 143.626 544.172 156.689 586.789 182.802C629.405 208.845 662.988 244.521 687.508 289.733C712.041 335.002 724.329 386.321 724.329 443.816V742.29H717.892L715.309 742.304ZM665.124 58.2757C599.021 19.4345 524.456 0 441.317 0C358.164 0 283.278 19.4345 216.658 58.2757C150.024 97.1169 97.2559 150.067 58.3535 217.098C19.3814 284.143 0 359.762 0 443.816C0 527.869 17.8174 603.223 53.5361 669.683C89.2548 736.198 137.988 788.883 199.86 827.724C261.676 866.635 331.494 886 409.298 886C533.518 886 881 881.246 881 881.246V443.816C881 359.762 861.549 284.143 822.646 217.098C783.744 150.067 731.227 97.1169 665.124 58.2757Z" fill="#F0F1F7"/>
</g>
</svg>
