<svg width="117" height="24" viewBox="0 0 117 24" fill="none" xmlns="http://www.w3.org/2000/svg">
<g id="Group">
<path id="Fill-1" fill-rule="evenodd" clip-rule="evenodd" d="M49.103 13.1854C48.0644 13.1854 47.2227 14.0272 47.2227 15.0658C47.2227 16.1041 48.0644 16.9458 49.103 16.9458C50.1416 16.9458 50.9834 16.1041 50.9834 15.0658C50.9834 14.0272 50.1416 13.1854 49.103 13.1854Z" fill="#00C3DF"/>
<path id="Fill-3" fill-rule="evenodd" clip-rule="evenodd" d="M23.9159 13.6337C24.0264 13.0211 24.2015 12.4439 24.4585 11.9111C24.9092 10.9771 25.5693 10.2422 26.4378 9.7063C27.3077 9.1693 28.353 8.90052 29.5766 8.90052C30.6498 8.90052 31.5615 9.14821 32.3133 9.64079C33.0654 10.1348 33.6443 10.8053 34.0517 11.653C34.341 12.2561 34.5285 12.9179 34.6236 13.6337H23.9159ZM33.8906 7.24228C32.6892 6.502 31.2509 6.13257 29.5766 6.13257C27.8815 6.13257 26.3791 6.51381 25.0703 7.27489C23.7601 8.03738 22.7359 9.08917 21.9956 10.4308C21.2542 11.7722 20.8848 13.3233 20.8848 15.0828C20.8848 16.8209 21.275 18.3616 22.0597 19.7018C22.8433 21.0446 23.9266 22.0953 25.3112 22.8578C26.6959 23.62 28.2785 23.9998 30.0602 23.9998C31.0465 23.9998 32.0828 23.8179 33.1661 23.4538C34.2508 23.088 35.1575 22.6165 35.8871 22.0362L33.795 20.0083C33.3654 20.3305 32.802 20.6147 32.1039 20.8613C31.4069 21.1087 30.7257 21.2319 30.0602 21.2319C28.8366 21.2319 27.7519 20.9634 26.8087 20.4261C25.864 19.8905 25.1226 19.1609 24.5867 18.2373C24.228 17.6207 24.0005 16.9412 23.8819 16.2094H35.6973L37.5692 16.2341L37.594 14.7932C37.594 13.0967 37.2771 11.6007 36.6442 10.3009C36.0102 9.00285 35.0931 7.98368 33.8906 7.24228Z" fill="#0D1033"/>
<path id="Fill-5" fill-rule="evenodd" clip-rule="evenodd" d="M54.6365 21.1023L49.122 21.102C49.1211 21.102 49.1203 21.1023 49.1197 21.1023C49.1189 21.1023 49.118 21.102 49.1175 21.102H49.1031V21.1011C48.0356 21.0986 47.0701 20.8374 46.2061 20.3136C45.3362 19.7884 44.6485 19.069 44.1456 18.1572C43.6412 17.2454 43.3884 16.2198 43.3884 15.0828C43.3884 13.9233 43.6412 12.8884 44.1456 11.9755C44.6485 11.0637 45.3362 10.3442 46.2061 9.81904C47.0746 9.29244 48.0454 9.029 49.1197 9.029C50.2134 9.029 51.1907 9.29244 52.0488 9.81904C52.9068 10.3442 53.583 11.0637 54.0767 11.9755C54.5707 12.8884 54.8181 13.9233 54.8181 15.0828V16.6125V19.3113V20.8776V21.102H54.6885L54.6365 21.1023ZM53.626 7.30779C52.2951 6.5245 50.7937 6.13257 49.1197 6.13257C47.4454 6.13257 45.9376 6.5245 44.5962 7.30779C43.2546 8.09108 42.1921 9.1589 41.4088 10.5107C40.6241 11.8627 40.2339 13.3877 40.2339 15.0828C40.2339 16.7779 40.5926 18.2975 41.3118 19.6377C42.031 20.9791 43.0122 22.0416 44.258 22.8249C45.5027 23.6096 46.9084 24.0001 48.475 24.0001C50.9762 24.0001 57.9726 23.9042 57.9726 23.9042V22.2617V21.1023V19.3113V15.0828C57.9726 13.3877 57.581 11.8627 56.7977 10.5107C56.0144 9.1589 54.957 8.09108 53.626 7.30779Z" fill="#0D1033"/>
<path id="Fill-7" fill-rule="evenodd" clip-rule="evenodd" d="M93.9632 6.90435C93.0185 6.36848 91.9352 6.09998 90.7116 6.09998C89.3166 6.09998 88.0772 6.40109 86.994 7.00135C86.2284 7.42561 85.5902 7.97105 85.0655 8.62501C84.5834 7.89992 83.9783 7.32299 83.242 6.90435C82.2973 6.36848 81.214 6.09998 79.9904 6.09998C78.7236 6.09998 77.597 6.40109 76.6107 7.00135C76.194 7.25495 75.8243 7.55888 75.4839 7.89457V6.29369H73.8414H72.1997V7.93534V22.2618V23.9045H73.8414H75.4839V22.2618V13.1831C75.4839 11.9806 75.8482 10.9943 76.5778 10.2214C77.3077 9.44822 78.231 9.06192 79.3472 9.06192C80.42 9.06192 81.2888 9.38918 81.9543 10.0443C82.6198 10.6994 82.9524 11.7014 82.9524 13.0534V16.6297V22.2618V23.9045H84.5952H86.2365V22.2618V16.6297V13.1831C86.2365 11.9806 86.5956 10.9943 87.3147 10.2214C88.0339 9.44822 88.9511 9.06192 90.0684 9.06192C91.1412 9.06192 92.01 9.38918 92.6755 10.0443C93.341 10.6994 93.6736 11.7014 93.6736 13.0534V16.6297V22.2618V23.9045H95.3152H96.9577V22.2618V16.6297V13.0534C96.9577 11.5732 96.6946 10.3128 96.1691 9.27138C95.6425 8.22999 94.9076 7.44135 93.9632 6.90435Z" fill="#0D1033"/>
<path id="Fill-9" fill-rule="evenodd" clip-rule="evenodd" d="M3.91168 18.1402C3.40729 17.2181 3.15453 16.1882 3.15453 15.0498C3.15453 13.8906 3.40729 12.8608 3.91168 11.9594C4.41466 11.0583 5.10236 10.3442 5.97225 9.81897C6.84101 9.29237 7.81155 9.02893 8.88583 9.02893C9.97979 9.02893 10.9571 9.29237 11.8152 9.81897C12.673 10.3442 13.3491 11.0583 13.8428 11.9594C14.3368 12.8608 14.5845 13.8906 14.5845 15.0498V21.1022H8.88583C7.81155 21.1022 6.84101 20.8402 5.97225 20.3136C5.10236 19.7884 4.41466 19.0638 3.91168 18.1402ZM14.4546 0V2.45306V9.06183C13.725 8.16045 12.8237 7.44661 11.7508 6.92113C10.6765 6.39454 9.50802 6.1325 8.24143 6.1325C6.67456 6.1325 5.2688 6.52443 4.02442 7.30772C2.77863 8.09101 1.79741 9.15349 1.07822 10.4949C0.358751 11.8365 0 13.3547 0 15.0498C0 16.7463 0.39024 18.2699 1.17494 19.6216C1.95851 20.9737 3.0207 22.0415 4.36236 22.8248C5.6104 23.555 7.00464 23.939 8.54086 23.9899C8.65585 23.9936 8.76943 23.9997 8.88583 23.9997C12.5588 23.9997 17.739 23.9042 17.739 23.9042V21.1022V15.0498V2.45306V0H16.0974H14.4546Z" fill="#0D1033"/>
<path id="Fill-11" fill-rule="evenodd" clip-rule="evenodd" d="M66.584 20.6515H66.4698C65.9969 20.6515 65.6104 20.3948 65.3104 19.8797C65.0093 19.3638 64.86 18.7099 64.86 17.9148V3.96847V1.60988V0H63.2498H61.6396V1.60988V3.96847V17.9148C61.6396 19.0742 61.844 20.0999 62.2517 20.9894C62.6591 21.8815 63.2287 22.5839 63.9586 23.0986C64.6882 23.6134 65.5252 23.8715 66.4698 23.8715H66.5339C66.5514 23.8715 66.5668 23.8687 66.584 23.8684V23.8715H68.723V22.2614V20.6515H67.2742H66.584Z" fill="#0D1033"/>
<path id="Fill-13" fill-rule="evenodd" clip-rule="evenodd" d="M103.104 13.6337C103.215 13.0211 103.39 12.4439 103.647 11.9111C104.098 10.9771 104.758 10.2422 105.626 9.7063C106.496 9.1693 107.542 8.90052 108.765 8.90052C109.838 8.90052 110.75 9.14821 111.502 9.64079C112.254 10.1348 112.833 10.8053 113.24 11.653C113.529 12.2561 113.717 12.9179 113.812 13.6337H103.104ZM113.079 7.24228C111.878 6.502 110.439 6.13257 108.765 6.13257C107.07 6.13257 105.568 6.51381 104.259 7.27489C102.949 8.03738 101.924 9.08917 101.184 10.4308C100.443 11.7722 100.073 13.3233 100.073 15.0828C100.073 16.8209 100.463 18.3616 101.248 19.7018C102.032 21.0446 103.115 22.0953 104.5 22.8578C105.884 23.62 107.467 23.9998 109.249 23.9998C110.235 23.9998 111.271 23.8179 112.355 23.4538C113.439 23.088 114.346 22.6165 115.076 22.0362L112.983 20.0083C112.554 20.3305 111.99 20.6147 111.292 20.8613C110.595 21.1087 109.914 21.2319 109.249 21.2319C108.025 21.2319 106.94 20.9634 105.997 20.4261C105.052 19.8905 104.311 19.1609 103.775 18.2373C103.416 17.6207 103.189 16.9412 103.07 16.2094H114.886L116.758 16.2341L116.782 14.7932C116.782 13.0967 116.466 11.6007 115.833 10.3009C115.199 9.00285 114.282 7.98368 113.079 7.24228Z" fill="#0D1033"/>
</g>
</svg>
