<svg width="14" height="14" viewBox="0 0 14 14" fill="none" xmlns="http://www.w3.org/2000/svg">
<path d="M7.29167 10.5H6.70833C6.38633 10.5 6.125 10.2387 6.125 9.91667V9.33333C6.125 9.01133 6.38633 8.75 6.70833 8.75H7.29167C7.61367 8.75 7.875 9.01133 7.875 9.33333V9.91667C7.875 10.2387 7.61367 10.5 7.29167 10.5ZM7.875 4.08333V3.5C7.875 3.178 7.61367 2.91667 7.29167 2.91667H6.70833C6.38633 2.91667 6.125 3.178 6.125 3.5V4.08333C6.125 4.40533 6.38633 4.66667 6.70833 4.66667H7.29167C7.61367 4.66667 7.875 4.40533 7.875 4.08333ZM7.875 7V6.41667C7.875 6.09467 7.61367 5.83333 7.29167 5.83333H6.70833C6.38633 5.83333 6.125 6.09467 6.125 6.41667V7C6.125 7.322 6.38633 7.58333 6.70833 7.58333H7.29167C7.61367 7.58333 7.875 7.322 7.875 7ZM11.0833 9.91667V9.33333C11.0833 9.01133 10.822 8.75 10.5 8.75H9.91667C9.59467 8.75 9.33333 9.01133 9.33333 9.33333V9.91667C9.33333 10.2387 9.59467 10.5 9.91667 10.5H10.5C10.822 10.5 11.0833 10.2387 11.0833 9.91667ZM4.66667 9.91667V9.33333C4.66667 9.01133 4.40533 8.75 4.08333 8.75H3.5C3.178 8.75 2.91667 9.01133 2.91667 9.33333V9.91667C2.91667 10.2387 3.178 10.5 3.5 10.5H4.08333C4.40533 10.5 4.66667 10.2387 4.66667 9.91667ZM11.0833 7V6.41667C11.0833 6.09467 10.822 5.83333 10.5 5.83333H9.91667C9.59467 5.83333 9.33333 6.09467 9.33333 6.41667V7C9.33333 7.322 9.59467 7.58333 9.91667 7.58333H10.5C10.822 7.58333 11.0833 7.322 11.0833 7ZM14 10.7917V6.125C14 4.45025 12.7102 3.07125 11.0711 2.92892C10.9288 1.29033 9.54975 0 7.875 0H6.125C4.35575 0 2.91667 1.43967 2.91667 3.20833V5.84617C1.28392 5.99375 0 7.37042 0 9.04167V10.7917C0 12.5603 1.43908 14 3.20833 14H10.7917C12.5609 14 14 12.5603 14 10.7917ZM3.79167 7.58333C4.27525 7.58333 4.66667 7.19133 4.66667 6.70833V3.20833C4.66667 2.40392 5.32117 1.75 6.125 1.75H7.875C8.67883 1.75 9.33333 2.40392 9.33333 3.20833V3.79167C9.33333 4.27467 9.72475 4.66667 10.2083 4.66667H10.7917C11.5955 4.66667 12.25 5.32058 12.25 6.125V10.7917C12.25 11.5961 11.5955 12.25 10.7917 12.25H3.20833C2.4045 12.25 1.75 11.5961 1.75 10.7917V9.04167C1.75 8.23725 2.4045 7.58333 3.20833 7.58333H3.79167Z" fill="#75778A"/>
</svg>