<svg width="14" height="15" viewBox="0 0 14 15" fill="none" xmlns="http://www.w3.org/2000/svg">
<path d="M7.00021 0.5C5.37632 0.502007 3.81951 1.14798 2.67125 2.29625C1.52298 3.44451 0.877007 5.00132 0.875 6.62521C0.875 8.27377 2.15838 10.5722 4.69072 13.4557C4.9795 13.7839 5.33489 14.0467 5.73321 14.2268C6.13154 14.4069 6.56366 14.5 7.00079 14.5C7.43793 14.5 7.87005 14.4069 8.26837 14.2268C8.6667 14.0467 9.02209 13.7839 9.31087 13.4557C11.842 10.5728 13.1254 8.27435 13.1254 6.62521C13.1234 5.00132 12.4774 3.44451 11.3292 2.29625C10.1809 1.14798 8.6241 0.502007 7.00021 0.5ZM7.99541 12.3018C7.86821 12.4386 7.71419 12.5476 7.54296 12.6222C7.37173 12.6968 7.18697 12.7353 7.00021 12.7353C6.81345 12.7353 6.62869 12.6968 6.45746 12.6222C6.28624 12.5476 6.13221 12.4386 6.00501 12.3018C3.85652 9.85466 2.62156 7.7855 2.62156 6.62579C2.62156 5.46543 3.08251 4.3526 3.90301 3.5321C4.72351 2.7116 5.83635 2.25064 6.99671 2.25064C8.15707 2.25064 9.26991 2.7116 10.0904 3.5321C10.9109 4.3526 11.3719 5.46543 11.3719 6.62579C11.3754 7.7855 10.1439 9.85466 7.99541 12.3018Z" fill="#75778A"/>
<path d="M7.00021 4.03221C6.49682 4.03221 6.00474 4.18148 5.58619 4.46114C5.16764 4.74081 4.84142 5.13831 4.64878 5.60338C4.45614 6.06845 4.40574 6.5802 4.50394 7.07391C4.60215 7.56763 4.84455 8.02114 5.2005 8.37708C5.55645 8.73303 6.00996 8.97544 6.50367 9.07364C6.99739 9.17185 7.50914 9.12145 7.97421 8.92881C8.43928 8.73617 8.83678 8.40995 9.11644 7.9914C9.39611 7.57285 9.54538 7.08076 9.54538 6.57738C9.54461 5.90259 9.27621 5.25567 8.79907 4.77852C8.32192 4.30138 7.675 4.03298 7.00021 4.03221ZM7.00021 7.37249C6.84295 7.37249 6.68923 7.32585 6.55847 7.23849C6.42772 7.15112 6.3258 7.02694 6.26562 6.88165C6.20544 6.73636 6.1897 6.57649 6.22038 6.42226C6.25106 6.26802 6.32679 6.12635 6.43798 6.01515C6.54918 5.90395 6.69086 5.82822 6.84509 5.79754C6.99933 5.76686 7.1592 5.78261 7.30449 5.84279C7.44977 5.90297 7.57395 6.00488 7.66132 6.13564C7.74869 6.26639 7.79532 6.42012 7.79532 6.57738C7.79517 6.78821 7.71135 6.99036 7.56227 7.13943C7.41319 7.28851 7.21104 7.37233 7.00021 7.37249Z" fill="#75778A"/>
</svg>