<svg width="6" height="10" viewBox="0 0 6 10" fill="none" xmlns="http://www.w3.org/2000/svg">
<path id="Vector"
      d="M5.43101 0.29278C5.52393 0.385645 5.59765 0.495911 5.64794 0.617275C5.69824 0.738641 5.72412 0.868727 5.72412 1.0001C5.72412 1.13147 5.69824 1.26156 5.64794 1.38292C5.59765 1.50429 5.52393 1.61455 5.43101 1.70742L2.3744 4.76469C2.31191 4.8272 2.27681 4.91196 2.27681 5.00035C2.27681 5.08874 2.31191 5.1735 2.3744 5.23601L5.43101 8.29262C5.6186 8.48012 5.72402 8.73447 5.72409 8.9997C5.72415 9.26493 5.61885 9.51933 5.43134 9.70692C5.24384 9.89451 4.98949 9.99994 4.72426 10C4.45902 10.0001 4.20463 9.89476 4.01704 9.70725L0.959766 6.64998C0.743075 6.43332 0.571185 6.17609 0.453911 5.89298C0.336638 5.60988 0.276278 5.30645 0.276278 5.00002C0.276278 4.69359 0.336638 4.39016 0.453912 4.10705C0.571185 3.82395 0.743075 3.56672 0.959766 3.35005L4.01704 0.29278C4.20456 0.105312 4.45886 -5.53062e-08 4.72402 -4.37157e-08C4.98918 -3.21253e-08 5.24348 0.105312 5.43101 0.29278Z" fill="currentColor"/>
</svg>
